<?xml version="1.0" standalone="no"?>
<!DOCTYPE svg PUBLIC "-//W3C//DTD SVG 20010904//EN"
 "http://www.w3.org/TR/2001/REC-SVG-20010904/DTD/svg10.dtd">
<svg version="1.0" xmlns="http://www.w3.org/2000/svg"
 width="961.000000pt" height="1280.000000pt" viewBox="0 0 961.000000 1280.000000"
 preserveAspectRatio="xMidYMid meet">

<g transform="translate(0.000000,1280.000000) scale(0.100000,-0.100000)"
fill="#000000" stroke="none">
<path d="M3604 9369 c-24 -15 -33 -29 -38 -61 -4 -23 -3 -44 1 -48 4 -4 36 -5
71 -2 70 5 90 23 53 49 -16 11 -21 23 -19 46 2 26 -1 32 -17 34 -11 1 -34 -7
-51 -18z"/>
<path d="M5773 9243 c15 -53 16 -94 3 -143 -8 -30 -13 -57 -11 -60 5 -7 -12
-451 -25 -663 -11 -178 -7 -206 36 -255 18 -21 18 -21 31 -2 8 11 20 20 26 20
7 0 46 14 87 31 64 27 86 32 153 30 44 0 82 -3 86 -6 4 -2 50 0 102 4 84 8
101 6 164 -14 89 -29 165 -45 217 -45 61 0 114 -19 207 -74 80 -47 88 -50 185
-58 167 -15 338 -54 427 -98 63 -32 269 -168 314 -209 33 -29 91 -71 99 -71 3
0 13 14 22 31 15 30 17 31 65 25 44 -6 49 -5 49 12 0 31 11 32 46 4 40 -31 41
-39 14 -89 -11 -21 -20 -55 -20 -76 0 -35 -8 -46 -115 -150 -92 -90 -125 -116
-167 -131 -28 -10 -68 -28 -87 -40 -42 -26 -96 -41 -242 -66 -77 -13 -112 -23
-127 -38 -11 -11 -44 -29 -71 -39 -28 -10 -51 -20 -51 -24 0 -3 10 -18 23 -33
13 -14 35 -63 49 -109 15 -45 33 -100 40 -122 26 -81 7 -441 -27 -495 -11 -18
-475 -115 -694 -146 -235 -32 -351 -51 -437 -71 l-72 -16 -6 -71 c-12 -129
-38 -203 -96 -264 l-31 -34 38 6 c21 3 79 11 128 16 232 27 793 130 1009 185
54 14 103 25 109 25 11 0 2 -114 -14 -189 -6 -27 -6 -48 0 -55 5 -6 9 -28 9
-49 0 -54 15 -65 43 -33 12 14 28 26 35 26 8 0 18 9 24 20 6 11 18 20 26 20
10 0 14 6 11 15 -4 8 -1 17 5 21 7 4 8 3 4 -4 -8 -14 16 -14 54 -2 21 7 22 8
5 10 -11 1 0 6 25 11 76 15 159 42 154 51 -3 4 2 5 10 2 22 -9 218 87 211 104
-2 7 -1 11 4 7 5 -3 31 6 57 20 26 14 53 25 59 25 7 0 15 7 19 15 3 8 12 15
21 15 8 0 15 5 15 10 0 6 5 10 10 10 6 0 33 11 62 25 28 14 56 25 62 25 5 0
18 7 28 17 21 18 44 33 106 63 23 11 42 25 42 31 0 6 4 8 9 5 21 -13 147 111
200 197 12 20 26 37 29 37 12 0 151 139 175 174 37 57 81 110 105 130 33 27
71 91 89 148 16 55 6 132 -23 175 -17 27 -36 110 -38 168 -2 44 -23 105 -37
105 -5 0 -16 -11 -25 -25 -20 -31 -39 -33 -30 -2 4 12 9 41 12 65 3 24 14 61
23 83 l18 40 12 -45 c6 -25 15 -46 19 -46 17 1 40 49 51 105 7 33 16 82 22
108 13 71 12 107 -6 107 -29 0 -51 60 -70 187 -4 23 -20 63 -38 90 -51 80 -80
169 -78 241 l2 63 -49 50 c-35 35 -57 49 -78 50 -16 0 -38 2 -49 5 -67 15
-121 14 -209 -1 -54 -9 -110 -21 -125 -26 -14 -6 -65 -49 -113 -97 l-88 -87 0
-187 c0 -110 -4 -188 -9 -188 -21 0 -46 154 -45 275 1 66 2 128 3 137 1 10
-10 38 -26 63 -54 88 -56 94 -43 124 6 15 43 61 83 103 67 70 78 78 145 98 39
12 72 26 72 30 0 16 -93 90 -114 90 -11 0 -94 36 -183 80 -121 61 -182 85
-239 96 -112 21 -261 63 -323 90 -29 13 -71 24 -92 24 -44 0 -130 17 -319 64
-74 19 -166 36 -205 40 -38 3 -113 15 -165 26 -146 32 -187 39 -290 50 -219
21 -336 48 -428 96 -39 20 -75 18 -69 -3z m1477 -3633 c0 -5 -5 -10 -11 -10
-5 0 -7 5 -4 10 3 6 8 10 11 10 2 0 4 -4 4 -10z"/>
<path d="M2935 9185 c-82 -13 -160 -21 -172 -18 -14 3 -43 -5 -70 -20 -50 -25
-145 -52 -223 -62 -217 -29 -309 -54 -385 -106 -51 -34 -109 -54 -221 -74 -94
-18 -162 -53 -234 -121 -26 -25 -55 -39 -112 -53 -125 -32 -225 -71 -250 -98
l-23 -25 34 7 c26 5 32 4 29 -6 -8 -25 -68 -58 -116 -65 -57 -8 -231 -92 -280
-135 -19 -17 -52 -53 -74 -80 -21 -27 -44 -49 -52 -49 -7 0 -20 -8 -29 -18
-16 -18 -15 -18 35 -14 29 2 100 -1 157 -6 127 -13 179 -40 223 -116 27 -45
28 -53 20 -108 -8 -50 -6 -64 10 -93 18 -34 25 -61 10 -39 -9 13 -181 128
-205 137 -11 4 -88 8 -172 8 -143 1 -157 0 -207 -23 -29 -14 -82 -53 -116 -86
l-64 -61 5 -63 c9 -109 17 -138 38 -138 10 0 20 4 23 9 6 10 56 -9 56 -21 0
-4 -9 -22 -20 -40 -10 -18 -32 -65 -48 -104 -16 -39 -36 -86 -45 -105 -43 -96
-47 -141 -15 -163 20 -15 24 -14 45 6 23 21 23 21 23 1 0 -11 8 -31 18 -44 10
-13 21 -32 25 -41 3 -10 11 -18 17 -18 27 0 40 -30 40 -93 0 -78 -6 -97 -31
-97 -23 0 -35 -22 -44 -80 -3 -25 -9 -58 -11 -73 -2 -15 0 -36 5 -46 6 -10 11
-76 11 -147 1 -118 4 -132 26 -166 17 -26 36 -41 64 -49 32 -10 44 -20 56 -47
23 -55 80 -127 126 -157 61 -41 140 -122 172 -177 16 -27 31 -50 35 -53 14 -8
51 7 51 21 0 7 5 16 10 19 16 10 94 -40 110 -69 7 -14 15 -24 18 -21 7 6 101
-98 96 -106 -2 -4 9 -10 26 -14 17 -4 28 -10 26 -14 -2 -3 22 -15 54 -25 33
-11 57 -23 54 -27 -3 -5 1 -6 9 -3 7 2 27 0 43 -7 16 -6 46 -13 66 -15 63 -7
241 -79 259 -106 11 -16 59 10 59 32 0 19 4 20 38 14 20 -3 82 -26 137 -51
141 -63 252 -101 327 -112 35 -5 100 -20 144 -34 43 -13 96 -28 117 -31 35 -7
37 -6 33 16 -10 49 -17 266 -9 271 5 3 47 -1 94 -8 87 -15 296 -37 524 -56 72
-5 180 -14 240 -19 61 -6 199 -12 307 -15 l197 -5 11 43 c48 185 64 217 110
217 16 0 16 -3 2 -46 -9 -27 -18 -41 -22 -34 -5 8 -9 7 -13 -5 -4 -9 -3 -13 2
-10 19 11 21 -14 4 -51 -9 -22 -18 -48 -20 -59 -1 -11 -5 -30 -8 -42 -3 -13
-2 -23 2 -23 7 0 39 111 47 160 2 8 10 32 19 54 10 21 17 42 17 47 0 4 5 11
12 15 7 5 8 3 3 -7 -7 -11 -6 -12 7 -2 8 7 19 9 23 5 5 -4 5 -1 1 6 -10 17 -2
15 55 -13 27 -14 47 -30 44 -35 -3 -6 4 -10 15 -10 24 0 72 -37 80 -61 3 -7 5
-40 5 -71 0 -31 3 -60 8 -64 4 -4 7 4 7 18 0 14 7 31 15 38 9 7 14 19 11 27
-10 25 3 13 19 -17 9 -17 20 -28 25 -25 6 4 14 -5 20 -19 11 -30 20 -35 13 -7
-6 23 16 39 28 20 6 -10 9 -11 9 -1 0 6 5 12 11 12 5 0 7 -5 3 -12 -4 -7 -3
-8 5 -4 7 5 9 16 5 28 -4 12 -2 18 4 14 13 -8 22 -46 10 -46 -5 0 -6 -5 -3
-10 4 -7 12 -7 24 0 10 5 21 6 25 3 3 -3 6 -2 6 3 0 5 10 10 23 10 45 3 67 8
67 16 0 14 -35 25 -68 22 -27 -2 -31 0 -22 11 6 7 22 16 36 19 16 4 22 11 17
19 -5 8 -2 8 9 -1 11 -9 18 -10 23 -2 3 5 0 10 -7 10 -7 0 7 10 31 22 25 12
40 23 33 26 -6 2 -24 -4 -41 -12 -16 -9 -47 -18 -67 -21 -20 -2 -40 -7 -43
-11 -3 -4 8 -4 24 0 22 5 26 4 15 -4 -26 -17 -39 -11 -87 38 -28 28 -39 36
-28 19 18 -28 18 -28 -5 -34 -22 -6 -23 -7 -4 -14 16 -7 15 -8 -7 -8 -20 -1
-33 9 -54 39 -25 36 -47 58 -29 28 4 -7 3 -8 -5 -4 -6 4 -9 11 -6 16 3 5 1 11
-4 14 -5 4 -19 35 -31 71 l-22 65 -201 0 c-256 -1 -682 16 -902 34 -93 8 -237
20 -320 27 -82 7 -195 19 -250 28 l-100 16 -8 45 c-4 25 -6 117 -3 205 4 153
6 180 21 305 10 78 34 178 51 212 14 27 13 29 -8 37 -13 5 -90 14 -173 20
-174 14 -195 18 -189 36 6 15 -26 25 -86 25 -25 0 -67 7 -94 15 -27 8 -75 15
-107 15 -39 0 -84 9 -138 29 -43 16 -99 32 -123 36 -52 9 -73 19 -116 56 -21
19 -44 29 -65 29 -39 0 -110 24 -100 33 3 4 -4 7 -17 7 -13 0 -20 3 -16 7 4 4
-16 17 -44 30 -57 25 -62 43 -24 76 15 12 32 27 38 33 42 39 210 153 316 212
25 14 62 36 82 49 21 12 40 23 43 23 3 0 22 11 43 24 21 13 101 55 178 94 137
69 230 105 409 157 50 14 98 30 107 36 10 5 22 9 27 9 5 0 35 12 67 27 33 15
70 29 84 31 14 2 59 15 100 28 60 20 84 24 125 18 27 -4 58 -8 67 -9 10 -1 21
-4 24 -8 15 -15 71 -7 89 13 20 22 19 60 -9 355 -9 94 -25 283 -36 420 -12
138 -26 287 -32 333 -14 97 9 91 -213 57z m-1887 -767 c-5 -17 -63 -44 -110
-52 -30 -6 -37 -4 -32 7 6 18 50 39 87 42 15 2 31 6 34 9 11 11 25 6 21 -6z
m82 -1073 c44 -6 79 -19 84 -31 6 -16 -17 -23 -94 -26 -54 -3 -55 -3 -52 23 1
18 -3 29 -15 34 -17 7 -16 8 2 15 11 4 29 3 40 -3 10 -5 26 -11 35 -12z m315
-205 c3 -5 2 -10 -4 -10 -5 0 -13 5 -16 10 -3 6 -2 10 4 10 5 0 13 -4 16 -10z
m169 -31 c18 -16 0 -19 -64 -8 -94 15 -105 27 -19 22 41 -3 78 -9 83 -14z
m489 -146 c-13 -2 -33 -2 -45 0 -13 2 -3 4 22 4 25 0 35 -2 23 -4z m-1410 -83
l22 -35 -38 35 c-41 38 -44 43 -22 38 9 -2 26 -19 38 -38z m3717 -1050 c-8 -5
-19 -10 -25 -10 -5 0 -3 5 5 10 8 5 20 10 25 10 6 0 3 -5 -5 -10z m-1690 -74
c0 -3 -4 -8 -10 -11 -5 -3 -10 -1 -10 4 0 6 5 11 10 11 6 0 10 -2 10 -4z
m1854 -85 c3 -5 -1 -14 -8 -20 -10 -8 -16 -9 -21 -1 -3 6 -10 8 -15 5 -4 -3
-10 2 -14 10 -4 11 2 15 24 15 16 0 31 -4 34 -9z m181 -11 c3 -5 1 -10 -4 -10
-6 0 -11 5 -11 10 0 6 2 10 4 10 3 0 8 -4 11 -10z"/>
<path d="M438 7619 c-18 -10 -25 -49 -9 -49 14 0 33 28 29 44 -2 11 -7 12 -20
5z"/>
<path d="M472 7152 c-7 -38 -10 -81 -7 -95 4 -15 0 -37 -9 -55 -18 -34 -21
-89 -6 -112 15 -24 22 -6 26 70 3 41 11 82 19 93 18 26 19 57 2 120 l-12 48
-13 -69z"/>
<path d="M6777 7120 c-36 -11 -57 -28 -57 -47 0 -10 7 -14 19 -10 12 3 18 -1
17 -12 -2 -30 62 -51 149 -49 75 3 80 4 83 26 3 19 6 21 18 11 8 -7 14 -8 13
-3 -4 21 2 28 11 14 8 -13 10 -13 10 1 0 22 -31 48 -77 65 -42 15 -143 17
-186 4z m180 -18 c11 -6 24 -8 28 -4 5 4 5 1 1 -5 -4 -7 -2 -13 3 -13 16 0 13
-12 -11 -41 l-22 -27 -48 46 c-26 25 -45 48 -43 52 6 10 68 4 92 -8z m-114
-27 c15 -14 27 -23 27 -18 0 9 29 -30 30 -40 0 -12 -71 3 -102 21 -30 18 -35
31 -16 50 18 18 30 15 61 -13z"/>
<path d="M6570 7054 c0 -8 5 -12 10 -9 6 4 8 11 5 16 -9 14 -15 11 -15 -7z"/>
<path d="M6464 6992 c-17 -21 -35 -51 -38 -69 -4 -18 -15 -34 -24 -37 -9 -2
-66 -16 -127 -30 -130 -31 -215 -57 -215 -65 0 -4 -8 -7 -17 -7 -19 -1 -186
-28 -268 -44 -27 -5 -108 -15 -180 -21 -71 -6 -157 -18 -190 -26 -33 -8 -79
-15 -102 -14 -23 1 -91 -3 -150 -9 -59 -7 -169 -13 -243 -15 -74 -2 -164 -6
-200 -10 -42 -4 -60 -3 -52 3 22 15 -31 24 -99 16 -59 -7 -59 -6 -59 20 0 21
-5 26 -25 26 -14 0 -45 -10 -68 -23 -41 -21 -52 -22 -252 -21 -116 1 -246 7
-290 13 -44 6 -118 13 -165 16 -112 6 -252 27 -238 36 6 4 2 9 -11 14 -29 9
-40 33 -35 78 2 21 -1 48 -6 60 -7 17 -9 18 -9 5 -1 -11 -6 -15 -15 -12 -9 3
-26 -17 -51 -61 -26 -47 -41 -65 -52 -61 -8 3 -18 6 -21 6 -4 0 0 5 8 11 13 9
13 10 0 6 -10 -2 -14 -13 -12 -32 2 -15 -1 -31 -6 -34 -6 -4 -18 -51 -27 -106
-9 -55 -18 -110 -21 -122 -10 -40 36 -52 213 -59 87 -3 223 -9 303 -13 220
-12 1082 -13 1296 -1 253 13 291 17 346 34 91 29 200 39 278 27 54 -9 105 -9
194 -1 140 13 446 51 656 81 80 12 172 22 205 23 65 2 118 24 135 55 17 32 12
67 -26 174 -25 72 -43 108 -62 124 -15 11 -30 19 -34 17 -4 -3 -17 0 -28 6
-16 8 -25 8 -35 0 -10 -8 -18 -4 -35 17 -12 15 -18 21 -14 13 4 -8 -9 0 -29
18 -21 17 -45 32 -55 31 -9 0 -31 -17 -48 -37z m-3054 -144 c0 -16 -3 -19 -11
-11 -6 6 -8 16 -5 22 11 17 16 13 16 -11z"/>
<path d="M2995 6963 c-51 -11 -106 -36 -115 -54 -12 -21 2 -58 23 -61 7 0 17
-2 22 -2 6 -1 16 -5 23 -10 24 -15 57 3 77 41 12 22 28 38 38 38 10 0 22 7 27
14 7 12 16 10 49 -13 23 -16 41 -35 41 -43 0 -8 5 -11 11 -8 6 4 8 14 5 22 -3
8 -1 11 4 8 17 -11 11 14 -9 34 -29 29 -134 48 -196 34z m20 -73 l-26 -51 -30
22 c-25 18 -33 19 -40 8 -6 -11 -11 -11 -20 -2 -13 13 -5 43 12 43 8 0 8 -4
-1 -15 -20 -24 -6 -17 30 15 23 21 44 30 67 30 l33 0 -25 -50z"/>
<path d="M3131 6869 c-13 -10 -31 -19 -41 -19 -10 0 -33 -7 -51 -16 -25 -11
-27 -14 -9 -10 14 3 39 6 56 6 34 0 79 30 73 47 -3 7 -13 4 -28 -8z"/>
<path d="M5790 6430 c8 -5 20 -10 25 -10 6 0 3 5 -5 10 -8 5 -19 10 -25 10 -5
0 -3 -5 5 -10z"/>
<path d="M3167 6409 c7 -7 15 -10 18 -7 3 3 -2 9 -12 12 -14 6 -15 5 -6 -5z"/>
<path d="M5838 6413 c6 -2 10 -8 7 -12 -2 -5 7 -19 22 -32 l26 -24 -19 30
c-18 30 -18 30 1 16 11 -8 38 -31 60 -50 l40 -36 -40 43 c-37 41 -84 73 -102
71 -4 0 -2 -3 5 -6z"/>
<path d="M5160 6400 c-23 -7 -23 -8 -3 -9 12 -1 25 4 28 9 3 6 5 10 3 9 -2 -1
-14 -5 -28 -9z"/>
<path d="M5070 6361 c-53 -8 -97 -30 -125 -62 -20 -22 -20 -22 0 -16 19 7 19
7 1 -8 -10 -8 -23 -12 -27 -9 -17 10 -49 13 -54 4 -3 -4 2 -10 10 -14 8 -3 15
-1 15 5 0 6 5 7 11 4 18 -12 -23 -35 -43 -24 -31 17 -41 11 -34 -21 4 -24 2
-30 -13 -30 -10 0 -18 7 -18 15 0 8 4 12 9 9 4 -3 8 0 8 7 0 7 -11 10 -30 7
-17 -3 -33 0 -37 5 -3 5 -9 3 -14 -4 -7 -11 -9 -10 -9 4 0 21 -13 22 -30 2
-10 -12 -10 -15 4 -15 18 0 22 -15 6 -25 -6 -4 -7 -11 -4 -17 4 -7 2 -8 -4 -4
-7 4 -12 2 -12 -4 0 -7 -7 -10 -15 -6 -8 3 -15 1 -15 -4 0 -5 -8 -7 -17 -3
-10 3 -15 3 -11 -2 7 -8 -89 -60 -104 -57 -5 1 -8 -3 -8 -8 0 -6 -10 -15 -22
-21 l-23 -10 22 5 c39 7 35 -11 -6 -28 -50 -20 -57 -31 -19 -32 16 -1 25 2 19
6 -7 4 -2 11 14 18 15 7 25 8 25 2 0 -6 -4 -10 -10 -10 -5 0 -1 -9 10 -20 12
-12 20 -33 20 -52 0 -17 3 -28 7 -25 3 4 0 38 -7 77 -10 53 -10 73 -1 83 15
18 167 70 181 62 5 -3 10 -14 10 -23 0 -15 2 -15 10 -2 8 13 10 13 10 -2 0
-31 32 -98 43 -91 5 3 7 1 4 -5 -12 -18 3 -39 26 -37 31 3 33 4 22 13 -5 4
-15 16 -22 27 -6 11 -17 19 -24 17 -9 -2 -9 2 2 14 8 10 9 15 3 11 -7 -4 -17
0 -24 8 -11 13 -10 14 5 9 13 -5 16 -3 13 7 -3 8 2 22 10 32 14 16 14 17 0 12
-12 -5 -16 -2 -14 10 3 19 26 36 38 29 4 -3 8 0 8 5 0 6 6 11 14 11 8 0 17 7
20 16 3 8 10 12 16 9 5 -3 10 -2 10 3 0 11 70 48 83 44 5 -1 6 2 3 7 -4 5 7
12 24 16 16 4 32 11 36 16 3 6 27 23 52 39 49 31 47 32 -28 21z m-75 -57 c-19
-14 -39 -9 -30 6 3 5 13 6 22 3 12 -5 14 -3 8 7 -6 9 -4 11 5 5 10 -6 9 -11
-5 -21z m-143 -79 c0 -5 -5 -11 -11 -13 -6 -2 -11 4 -11 13 0 9 5 15 11 13 6
-2 11 -8 11 -13z"/>
<path d="M3968 6353 c45 -2 119 -2 165 0 45 1 8 3 -83 3 -91 0 -128 -2 -82 -3z"/>
<path d="M5330 6340 c-13 -8 -13 -10 2 -10 9 0 20 5 23 10 8 13 -5 13 -25 0z"/>
<path d="M5294 6305 c3 -8 0 -15 -7 -15 -15 0 -153 -137 -145 -145 3 -3 23 9
46 27 22 18 55 45 73 59 19 15 42 41 52 58 18 31 18 31 -4 31 -15 0 -19 -5
-15 -15z"/>
<path d="M5480 6247 c-45 -15 -117 -54 -125 -67 -4 -6 10 -10 34 -10 23 0 41
4 41 8 0 5 7 9 15 9 8 0 12 -4 9 -9 -3 -4 -1 -8 5 -8 5 0 13 5 16 10 17 27
166 1 207 -37 21 -18 33 -72 24 -107 -7 -27 -56 -90 -64 -82 -7 7 -43 -14 -38
-22 2 -4 -88 -8 -200 -9 -186 -3 -362 -9 -488 -18 -26 -2 -52 -7 -56 -12 -5
-4 -1 -25 7 -46 13 -32 18 -36 31 -25 9 8 13 8 9 2 -4 -7 2 -14 14 -17 14 -4
18 -10 14 -19 -4 -7 3 -1 16 14 24 27 66 48 95 48 13 0 11 -7 -7 -37 -26 -42
-55 -74 -62 -67 -2 2 -10 -3 -18 -13 -12 -15 -12 -16 2 -11 10 4 35 12 57 19
40 12 55 30 66 82 6 25 3 28 -25 34 l-32 6 27 14 c21 11 31 11 49 2 20 -11 21
-11 9 4 -11 13 -10 15 5 12 10 -2 18 -4 18 -5 0 -1 9 -3 21 -4 31 -4 94 -55
94 -77 0 -11 4 -19 9 -19 6 0 8 -25 6 -57 -5 -60 -40 -124 -79 -145 -11 -6
-27 -17 -34 -25 -8 -7 -17 -11 -22 -8 -4 3 -41 -7 -82 -21 -40 -14 -91 -31
-113 -36 -22 -6 -46 -12 -53 -14 -7 -2 -11 -8 -8 -12 3 -5 29 -6 58 -2 29 3
83 5 120 5 36 0 64 3 61 8 -2 4 4 10 14 14 10 4 24 13 32 21 7 7 20 11 27 8 8
-3 14 1 14 9 0 7 5 17 12 21 7 5 9 2 4 -7 -4 -8 -1 -6 7 4 9 10 19 19 24 20 4
1 7 6 5 10 -1 5 2 5 8 2 7 -4 14 2 17 14 3 11 9 18 14 15 5 -3 9 0 9 5 0 20 2
26 21 50 10 13 16 27 14 31 -3 5 -1 11 5 15 12 8 2 80 -16 117 -19 37 -55 62
-66 45 -5 -8 -8 -7 -8 6 0 11 -4 15 -12 11 -6 -4 -8 -3 -4 4 3 6 16 8 29 6 39
-10 115 -9 110 0 -4 5 0 5 8 0 8 -5 30 -10 50 -11 43 -2 92 -25 112 -53 7 -11
16 -17 19 -14 3 3 5 -3 5 -13 -1 -10 3 -17 10 -16 6 1 17 -5 25 -15 12 -15 11
-16 -4 -3 -23 18 -23 5 1 -25 10 -13 22 -20 26 -16 5 4 5 1 1 -6 -5 -8 0 -22
11 -34 10 -12 13 -18 6 -14 -9 5 -8 -5 2 -36 8 -24 16 -52 19 -63 3 -11 4 16
2 60 -2 44 -6 89 -10 100 -3 11 0 7 8 -10 9 -17 15 -59 16 -97 0 -39 4 -68 10
-68 10 0 13 9 13 43 0 9 4 17 8 17 13 0 11 19 -6 78 -10 34 -34 74 -70 116
-30 36 -55 66 -55 69 0 2 11 3 25 2 14 -2 25 1 25 6 0 6 4 7 10 4 5 -3 15 -1
22 4 100 80 118 109 118 186 0 59 -22 102 -63 118 -17 8 -34 14 -37 15 -3 0
-17 5 -31 11 -19 7 -30 6 -39 -2 -9 -8 -11 -8 -7 -1 14 24 -64 30 -123 11z
m-585 -368 c-4 -5 -12 -9 -18 -8 -9 0 -8 2 1 6 6 2 9 10 6 15 -4 7 -2 8 5 4 6
-4 9 -12 6 -17z m726 -66 c13 -16 12 -17 -3 -4 -10 7 -18 15 -18 17 0 8 8 3
21 -13z"/>
<path d="M6051 6115 c1 -19 18 -51 18 -35 0 8 -4 22 -9 30 -5 8 -9 11 -9 5z"/>
<path d="M4754 6034 c4 -9 1 -23 -5 -30 -9 -11 -7 -14 9 -14 19 0 20 3 11 30
-6 17 -13 30 -16 30 -3 0 -2 -7 1 -16z"/>
<path d="M5316 5875 c4 -8 10 -12 15 -9 5 2 18 0 29 -6 24 -13 26 -7 4 14 -20
21 -55 21 -48 1z"/>
<path d="M5650 5883 c0 -18 18 -35 33 -31 12 2 10 7 -9 21 -13 10 -24 14 -24
10z"/>
<path d="M4370 5775 c7 -8 17 -12 22 -9 6 4 5 10 -3 15 -22 14 -33 10 -19 -6z"/>
<path d="M4181 5721 c-8 -28 -9 -47 -3 -53 11 -11 172 -27 172 -17 0 4 -8 13
-17 20 -14 12 -16 12 -9 -1 4 -8 1 -7 -8 4 -8 10 -19 15 -24 12 -6 -3 -23 -3
-40 0 -23 5 -34 15 -44 43 l-15 36 -12 -44z"/>
<path d="M4116 5718 c-8 -31 -8 -38 3 -38 12 0 22 43 12 53 -5 5 -11 -2 -15
-15z"/>
<path d="M4092 5664 c10 -10 20 -15 24 -12 3 4 -5 12 -18 18 -22 12 -22 12 -6
-6z"/>
<path d="M4484 5636 c-7 -18 3 -36 19 -36 7 0 6 4 -3 10 -12 8 -13 11 -1 19 9
6 10 11 2 15 -6 4 -14 0 -17 -8z"/>
<path d="M4105 5549 c-17 -53 -14 -109 6 -109 6 0 6 7 -1 19 -12 24 -13 34 -2
27 5 -3 8 15 8 40 1 49 -2 54 -11 23z"/>
<path d="M5054 5456 c-3 -8 -13 -12 -25 -9 -10 3 -19 0 -19 -6 0 -6 -7 -11
-15 -11 -8 0 -15 -5 -15 -11 0 -5 5 -7 11 -3 15 9 30 -17 23 -40 -4 -13 -2
-16 6 -11 7 4 9 18 6 34 -5 19 -4 22 4 11 5 -8 10 -22 10 -31 0 -13 9 -14 58
-8 64 8 112 28 112 47 0 6 -9 12 -21 12 -13 0 -18 4 -13 13 5 8 3 8 -9 -2 -14
-11 -18 -11 -23 4 -5 13 -9 14 -15 3 -7 -10 -9 -10 -9 2 -1 11 -4 10 -16 -5
-16 -19 -16 -19 -9 5 6 20 5 23 -6 13 -16 -15 -33 -17 -24 -3 3 6 4 10 0 10
-3 0 -8 -6 -11 -14z"/>
<path d="M6615 5434 c-86 -21 -363 -72 -437 -80 -35 -4 -67 -9 -73 -13 -5 -3
-19 -6 -30 -7 -11 -1 -60 -7 -110 -13 -49 -7 -112 -14 -140 -17 -75 -6 -235
-24 -279 -30 -31 -5 -37 -3 -30 7 5 9 -1 7 -16 -4 -99 -70 -116 -78 -250 -122
-73 -23 -161 -30 -190 -15 -18 9 -21 9 -15 0 6 -9 -12 -11 -78 -7 -93 7 -108
9 -212 39 -85 24 -235 96 -235 113 0 7 -11 11 -25 10 -14 -2 -25 2 -25 8 0 7
-4 6 -9 -2 -7 -11 -12 -6 -19 20 l-10 34 -1 -42 c-1 -37 -4 -43 -23 -44 -19
-1 -20 -2 -4 -6 10 -3 23 0 29 6 6 6 20 11 31 11 23 -1 138 -58 121 -60 -5 -1
-32 -3 -60 -4 -27 -1 -61 -6 -75 -10 -18 -5 -21 -4 -10 3 9 7 -23 9 -103 8
-64 -1 -117 -4 -117 -7 0 -3 -33 -6 -73 -7 -50 -1 -65 1 -47 7 18 6 9 7 -30 4
-30 -2 -102 -5 -160 -8 -96 -4 -102 -4 -70 9 47 18 28 18 -40 0 -65 -17 -70
-18 -50 -5 10 7 -11 10 -70 10 -61 0 -81 3 -70 10 11 8 8 9 -13 4 -15 -3 -33
-2 -40 4 -11 8 -176 24 -282 26 -38 1 -40 0 -37 -26 6 -50 -14 -58 -99 -42
-41 8 -103 14 -139 14 -57 0 -63 -2 -49 -15 16 -17 76 -28 244 -45 77 -8 120
-18 145 -33 32 -18 49 -20 185 -18 82 1 152 6 155 11 8 13 230 12 230 -1 0 -6
8 -5 21 1 16 9 26 8 45 -5 13 -8 24 -19 24 -24 0 -5 44 -11 98 -14 53 -3 198
-15 322 -26 256 -23 508 -26 655 -6 122 16 345 52 440 70 39 8 99 19 135 25
36 6 103 18 150 26 47 8 117 19 155 24 39 5 93 14 120 20 28 6 94 17 148 25
55 8 115 19 135 24 21 6 60 15 87 21 98 22 127 34 152 64 14 17 40 37 57 44
34 14 46 28 46 55 0 20 -6 20 -85 1z"/>
<path d="M4100 5396 c0 -22 4 -35 10 -31 6 3 8 18 6 32 -8 40 -16 40 -16 -1z"/>
<path d="M5555 5344 c-9 -15 -12 -23 -6 -20 11 7 35 46 28 46 -3 0 -12 -12
-22 -26z"/>
<path d="M9597 1583 c-12 -112 -36 -284 -41 -291 -3 -5 -10 -51 -15 -103 -6
-52 -16 -128 -21 -169 -6 -41 -14 -111 -19 -155 -6 -44 -19 -141 -30 -215 -12
-74 -23 -155 -26 -180 -3 -25 -10 -65 -15 -90 -18 -87 -50 -305 -50 -342 l0
-38 115 0 115 0 0 820 c0 451 -2 820 -4 820 -2 0 -6 -26 -9 -57z"/>
</g>
</svg>
