<?xml version="1.0" standalone="no"?>
<!DOCTYPE svg PUBLIC "-//W3C//DTD SVG 20010904//EN"
 "http://www.w3.org/TR/2001/REC-SVG-20010904/DTD/svg10.dtd">
<svg version="1.0" xmlns="http://www.w3.org/2000/svg"
 width="1280.000000pt" height="1280.000000pt" viewBox="0 0 1280.000000 1280.000000"
 preserveAspectRatio="xMidYMid meet">

<g transform="translate(0.000000,1280.000000) scale(0.100000,-0.100000)"
fill="#000000" stroke="none">
<path d="M4594 10156 c-6 -27 6 -55 40 -89 13 -13 25 -30 28 -37 4 -12 9 -13
31 -3 36 17 37 53 2 53 -16 0 -23 4 -19 13 6 17 -13 69 -29 79 -24 15 -47 8
-53 -16z"/>
<path d="M4325 10138 c-11 -15 -19 -19 -22 -10 -6 16 -33 15 -33 -2 0 -23 49
-26 61 -4 9 16 17 19 41 14 21 -4 28 -2 26 7 -8 23 -55 20 -73 -5z"/>
<path d="M4498 10149 c-2 -6 -26 -15 -53 -20 -28 -5 -54 -15 -60 -22 -5 -8
-15 -12 -22 -10 -6 2 -14 -1 -18 -6 -3 -6 -19 -11 -35 -11 -45 0 -45 -17 -1
-65 23 -25 41 -54 41 -65 0 -19 2 -19 23 -6 20 14 26 16 42 16 3 0 -4 10 -15
22 -23 25 -34 57 -28 85 3 14 9 8 25 -23 12 -22 29 -46 37 -53 16 -13 47 -9
45 6 -1 4 -1 27 0 51 1 58 27 56 77 -5 42 -52 53 -44 31 21 -8 24 -13 55 -10
70 5 25 3 26 -35 26 -22 0 -42 -5 -44 -11z"/>
<path d="M4045 10050 c-3 -5 -15 -10 -26 -10 -10 0 -19 -5 -19 -10 0 -6 16 -8
42 -3 41 6 42 5 25 -11 -9 -10 -17 -20 -17 -24 0 -4 -20 -7 -43 -7 -24 0 -55
-5 -68 -12 -13 -6 -36 -14 -51 -17 -36 -8 -35 -20 5 -81 35 -54 67 -71 67 -36
0 18 3 19 24 9 14 -6 33 -7 43 -3 10 5 26 7 36 6 12 -2 17 5 17 23 0 31 15 34
32 6 16 -25 30 -25 51 -2 25 28 22 45 -7 38 -19 -5 -26 -1 -31 15 -8 25 21 62
33 43 4 -6 22 -28 40 -48 27 -31 35 -35 52 -26 25 13 28 43 5 46 -5 1 -14 2
-19 3 -5 0 -3 7 3 15 9 11 8 22 -7 47 -23 41 -66 52 -77 20 -7 -22 -30 -27
-54 -12 -7 5 -11 13 -7 19 3 5 -1 13 -10 16 -22 8 -32 8 -39 -4z"/>
<path d="M3785 9925 c-5 -2 -22 -6 -37 -9 -35 -8 -35 -18 -1 -83 29 -57 60
-76 75 -49 6 11 16 15 29 11 27 -9 25 24 -6 85 -23 46 -34 54 -60 45z"/>
<path d="M3580 9909 c0 -4 9 -9 21 -12 16 -4 19 -11 14 -26 -4 -14 0 -24 13
-32 11 -7 17 -20 15 -33 -2 -12 7 -34 21 -51 24 -28 25 -29 26 -8 0 27 16 38
24 18 3 -8 10 -15 16 -15 18 0 11 47 -16 94 -19 35 -32 46 -50 46 -14 0 -24 6
-24 15 0 10 -9 14 -30 12 -16 -1 -30 -5 -30 -8z"/>
<path d="M3547 9852 c-37 -5 -43 -25 -18 -61 12 -16 21 -32 21 -36 0 -3 7 -13
15 -21 19 -19 20 -4 3 44 -11 30 -11 35 7 48 24 18 10 31 -28 26z"/>
<path d="M4673 9820 c-5 -17 -7 -17 -20 -5 -40 40 -53 -2 -18 -60 31 -53 49
-64 73 -43 9 9 23 13 30 11 16 -6 16 -4 -13 61 -26 58 -43 70 -52 36z"/>
<path d="M4530 9791 c0 -13 50 -100 61 -107 21 -13 19 5 -6 60 -14 31 -32 56
-40 56 -8 0 -15 -4 -15 -9z"/>
<path d="M4403 9760 c-30 -12 -29 -25 2 -52 14 -12 25 -32 25 -44 0 -30 14
-37 56 -29 43 8 53 29 26 58 -11 12 -22 33 -24 47 -2 20 -9 25 -33 27 -16 1
-40 -2 -52 -7z"/>
<path d="M3380 9749 c0 -6 7 -8 16 -5 8 3 30 -1 49 -8 33 -14 34 -14 22 5 -13
21 -87 28 -87 8z"/>
<path d="M4255 9710 c-8 -12 35 -90 61 -111 13 -11 18 -11 21 -1 3 6 11 12 19
12 24 0 16 19 -16 35 -16 8 -37 29 -45 45 -16 31 -29 37 -40 20z"/>
<path d="M4081 9652 c-12 -23 21 -97 49 -112 17 -9 18 -6 17 28 -1 20 -8 42
-16 48 -11 8 -11 13 -2 18 9 6 9 11 0 22 -16 19 -36 18 -48 -4z"/>
<path d="M3554 9625 c-3 -8 -4 -18 -1 -22 6 -9 -86 -9 -100 0 -5 3 -10 -3 -10
-14 -1 -11 1 -18 5 -15 4 2 7 -11 8 -30 0 -19 8 -43 18 -52 15 -15 19 -15 29
-2 14 18 57 26 57 11 0 -6 5 -11 10 -11 6 0 10 7 10 14 0 8 12 21 27 28 37 18
37 28 2 71 -33 40 -46 45 -55 22z"/>
<path d="M3987 9633 c-4 -3 -7 -15 -7 -26 0 -20 -1 -20 -20 -2 -30 27 -47 7
-30 -35 29 -70 72 -101 85 -60 5 15 12 19 26 15 24 -8 24 -7 -5 60 -24 52 -35
63 -49 48z"/>
<path d="M3816 9583 c-14 -14 -4 -61 20 -96 34 -51 42 -40 15 19 -16 33 -19
49 -11 59 8 9 7 14 -4 18 -8 3 -17 3 -20 0z"/>
<path d="M4804 9535 c6 -18 -15 -20 -31 -4 -6 6 -16 8 -22 5 -12 -8 -1 -42 35
-104 21 -36 28 -41 40 -31 8 7 13 18 10 25 -8 21 6 25 26 7 17 -15 18 -15 18
1 0 29 -50 116 -66 116 -10 0 -14 -6 -10 -15z"/>
<path d="M4630 9492 c0 -12 34 -42 48 -42 17 0 15 15 -6 33 -20 18 -42 22 -42
9z"/>
<path d="M4533 9480 c-28 -12 -29 -26 -3 -40 15 -8 19 -17 14 -35 -5 -21 8
-49 43 -94 2 -3 10 4 18 15 12 16 16 17 24 4 9 -12 11 -12 16 2 7 16 -49 137
-69 150 -13 9 -15 9 -43 -2z"/>
<path d="M4440 9425 c0 -28 -12 -32 -30 -10 -14 17 -40 20 -40 5 0 -15 68
-147 79 -154 9 -6 24 30 22 52 -3 21 15 13 29 -13 20 -38 32 -15 16 31 -17 50
-55 114 -67 114 -5 0 -9 -11 -9 -25z"/>
<path d="M4290 9383 c0 -13 -3 -14 -12 -5 -15 15 -64 16 -73 1 -7 -11 19 -74
35 -84 6 -3 10 -17 10 -29 0 -13 7 -29 15 -36 13 -11 15 -8 15 14 0 32 11 33
29 4 12 -19 14 -20 23 -5 10 18 38 23 38 7 0 -5 4 -10 9 -10 13 0 -1 44 -33
108 -26 50 -56 70 -56 35z"/>
<path d="M4105 9339 c-12 -19 6 -83 33 -118 15 -19 30 -40 34 -45 9 -14 31 7
35 34 3 22 -17 67 -50 113 -22 28 -41 35 -52 16z m85 -108 c0 -10 -10 -5 -30
14 -16 16 -30 30 -30 32 0 2 14 -4 30 -14 17 -9 30 -24 30 -32z"/>
<path d="M3987 9313 c-26 -4 -28 -8 -22 -31 13 -51 66 -152 81 -152 17 0 16
-3 4 40 l-9 35 22 -27 c25 -30 37 -35 37 -15 0 19 -68 157 -77 156 -4 -1 -21
-4 -36 -6z m53 -87 c0 -5 -7 -1 -15 10 -8 10 -14 24 -14 29 0 6 6 1 14 -9 8
-11 15 -24 15 -30z"/>
<path d="M4616 9144 c-11 -29 -6 -110 10 -157 14 -40 18 -45 34 -37 10 6 26 7
35 4 11 -5 18 0 22 14 4 18 8 19 24 9 14 -9 21 -9 31 1 17 17 -9 66 -68 131
-48 52 -77 64 -88 35z"/>
<path d="M4457 9114 c-65 -17 -80 -30 -65 -58 7 -11 13 -27 14 -35 2 -8 10
-18 18 -23 11 -6 14 -17 10 -31 -3 -15 2 -33 16 -50 24 -30 40 -35 40 -12 0
13 4 14 20 5 24 -13 41 -5 33 15 -6 18 8 20 24 4 18 -18 34 -1 27 28 -9 33
-70 160 -81 166 -4 2 -30 -2 -56 -9z"/>
<path d="M5132 8938 c-26 -26 0 -122 48 -179 24 -28 31 -32 47 -23 42 25 20
121 -42 187 -29 30 -36 32 -53 15z"/>
<path d="M5050 8923 c0 -5 -12 -9 -27 -10 -14 0 -30 -7 -34 -15 -5 -8 -27 -15
-55 -17 -30 -1 -52 -8 -59 -18 -8 -10 -21 -14 -38 -11 -15 3 -27 2 -27 -1 0
-3 -12 -7 -26 -7 -14 -1 -33 -9 -42 -18 -10 -8 -27 -13 -39 -10 -11 3 -40 -3
-64 -14 -24 -10 -52 -22 -61 -25 -22 -8 -23 -42 -3 -77 8 -14 14 -33 15 -43 0
-24 -29 -19 -44 8 -5 11 -18 32 -28 47 -10 15 -18 34 -18 43 0 19 -2 19 -47
-6 -23 -13 -47 -19 -63 -15 -15 2 -46 -1 -69 -8 -39 -11 -47 -10 -88 10 -31
15 -54 36 -74 68 -38 60 -52 60 -46 -1 7 -77 37 -212 57 -258 21 -50 105 -142
114 -126 4 6 2 19 -4 30 -20 38 -13 54 20 48 19 -4 34 -2 42 7 10 11 15 9 30
-8 14 -18 20 -19 35 -8 10 6 28 16 41 22 29 12 28 38 -3 84 -28 42 -31 56 -12
56 20 0 42 -29 58 -73 18 -50 38 -61 89 -47 31 8 40 16 41 33 0 12 3 16 6 10
2 -7 14 -13 26 -12 40 1 132 36 135 51 2 10 12 13 32 10 25 -4 30 -1 30 17 0
20 1 21 25 5 26 -17 45 -12 45 11 0 10 8 13 28 9 15 -2 41 -1 57 4 24 7 30 14
30 35 -1 32 5 34 28 6 10 -11 23 -18 30 -16 17 6 9 74 -14 119 -19 37 -19 37
1 48 25 14 26 46 1 60 -23 12 -31 13 -31 3z m-165 -113 c3 -5 1 -10 -4 -10 -6
0 -11 5 -11 10 0 6 2 10 4 10 3 0 8 -4 11 -10z m35 -60 c0 -14 -14 -12 -28 2
-19 19 -14 30 8 18 11 -6 20 -15 20 -20z m-150 -40 c0 -5 -2 -10 -4 -10 -3 0
-8 5 -11 10 -3 6 -1 10 4 10 6 0 11 -4 11 -10z m-456 -103 c-1 -9 2 -15 6 -12
4 3 10 -7 13 -21 l4 -25 -23 22 c-25 24 -33 64 -11 56 6 -2 11 -11 11 -20z"/>
<path d="M5196 8507 c6 -15 3 -17 -20 -11 -20 5 -26 2 -26 -10 0 -9 -6 -13
-13 -10 -19 7 -62 -30 -53 -45 6 -9 12 -9 24 3 10 8 29 17 44 21 38 10 65 42
49 58 -10 9 -11 8 -5 -6z"/>
<path d="M5040 8435 c0 -8 -12 -18 -26 -21 -14 -4 -22 -10 -17 -15 16 -16 68
6 71 29 2 15 -2 22 -12 22 -9 0 -16 -7 -16 -15z"/>
<path d="M5200 8394 c-47 -12 -86 -23 -88 -23 -6 -2 31 -51 39 -51 5 0 9 9 9
20 0 20 53 50 89 50 18 0 48 17 41 23 -3 2 -43 -6 -90 -19z"/>
<path d="M4089 8398 c0 -7 -2 -31 -5 -53 -4 -32 -1 -42 15 -52 18 -11 22 -10
31 8 12 22 6 54 -9 45 -5 -3 -9 0 -8 7 1 34 -4 57 -13 57 -5 0 -10 -6 -11 -12z"/>
<path d="M4195 8396 c-3 -10 -8 -47 -17 -135 -2 -20 5 -30 37 -48 37 -21 48
-22 141 -17 71 5 103 3 108 -5 4 -6 0 -14 -11 -17 -10 -3 -42 -16 -71 -30 -29
-13 -59 -24 -68 -24 -24 0 -68 -46 -61 -64 6 -14 11 -14 44 -3 21 8 63 22 93
31 30 10 69 24 85 31 70 30 95 36 112 31 19 -6 140 -241 135 -260 -2 -5 6 -15
18 -23 23 -16 26 -43 8 -61 -10 -10 -10 -17 1 -34 7 -11 15 -32 18 -47 6 -36
10 -37 34 -8 11 15 28 27 37 28 10 1 6 4 -8 8 -20 5 -26 14 -28 43 -3 34 -1
38 30 47 18 5 69 23 113 40 44 17 86 29 93 26 7 -3 10 0 7 5 -3 6 2 10 11 10
10 0 47 12 83 26 76 31 98 25 93 -25 -4 -36 21 -53 44 -30 12 12 11 24 -6 79
-11 36 -20 77 -20 91 0 40 -35 139 -49 139 -3 0 -6 -28 -6 -62 l0 -62 -35 -11
c-19 -6 -50 -18 -68 -28 -19 -10 -42 -20 -51 -22 -10 -2 -66 -20 -125 -40 -59
-20 -118 -39 -131 -41 -30 -5 -50 21 -71 93 -8 29 -20 55 -25 58 -5 4 -9 15
-9 26 0 11 -11 30 -25 42 -28 24 -42 101 -21 115 34 21 126 55 154 57 19 1 37
7 40 12 4 6 23 14 42 18 48 10 70 23 70 40 0 17 -26 21 -32 5 -3 -10 -245 -78
-348 -98 -45 -8 -57 -8 -66 4 -8 10 -34 14 -88 14 -42 0 -76 3 -76 8 0 4 -14
22 -31 40 -21 23 -40 34 -65 36 -20 1 -37 -2 -39 -8z"/>
<path d="M5435 8310 c4 -6 11 -8 16 -5 14 9 11 15 -7 15 -8 0 -12 -5 -9 -10z"/>
<path d="M4500 8009 c0 -5 5 -7 10 -4 6 3 10 8 10 11 0 2 -4 4 -10 4 -5 0 -10
-5 -10 -11z"/>
<path d="M6200 7993 c-290 -21 -490 -51 -716 -107 -135 -33 -443 -131 -507
-161 -18 -8 -57 -24 -87 -35 -73 -28 -273 -134 -429 -227 -114 -68 -161 -99
-300 -197 -23 -17 -50 -35 -60 -41 -9 -5 -32 -23 -52 -40 -20 -16 -56 -46 -80
-65 -124 -97 -337 -316 -436 -447 -20 -27 -39 -50 -43 -53 -16 -11 -50 -76
-50 -95 0 -10 15 -53 34 -95 19 -41 71 -155 116 -253 119 -262 149 -327 270
-582 29 -60 56 -119 60 -130 4 -11 49 -110 100 -220 51 -110 130 -283 175
-385 94 -211 75 -169 321 -690 205 -435 260 -555 357 -770 56 -124 140 -308
301 -653 20 -43 36 -80 36 -82 0 -2 18 -42 40 -89 22 -47 49 -109 62 -138 38
-91 73 -143 94 -141 10 0 64 20 119 43 55 23 161 67 235 97 74 31 149 61 165
69 17 7 86 36 155 64 69 29 179 74 244 102 66 28 205 85 310 128 105 43 225
92 266 110 41 17 103 42 137 55 34 14 115 46 180 73 65 27 188 77 273 112 194
79 594 248 765 325 17 7 57 24 90 38 33 13 164 68 290 121 337 142 479 200
585 242 293 116 385 159 388 181 3 20 -261 483 -435 765 -54 87 -62 105 -42
92 20 -12 -35 77 -67 110 -27 28 -88 123 -162 256 -14 25 -66 110 -115 190
-50 80 -90 151 -90 158 0 6 -4 12 -9 12 -4 0 -8 6 -8 13 0 7 -20 40 -44 73
-24 33 -52 76 -61 95 -10 19 -21 36 -24 39 -3 3 -13 19 -22 35 -60 111 -262
454 -507 860 -113 187 -248 412 -300 500 -91 153 -170 282 -326 533 -39 63
-78 118 -88 123 -31 17 -298 57 -483 73 -246 21 -429 24 -625 9z m-310 -243
c0 -5 -2 -10 -4 -10 -3 0 -8 5 -11 10 -3 6 -1 10 4 10 6 0 11 -4 11 -10z
m1220 -24 c0 -15 -18 -31 -26 -23 -7 7 7 37 17 37 5 0 9 -6 9 -14z m-417 -31
c15 -1 34 -3 42 -4 25 -2 17 -31 -12 -42 -16 -6 -55 -13 -88 -16 -33 -2 -76
-8 -95 -13 -127 -32 -162 -39 -280 -60 -134 -23 -263 -61 -289 -84 -9 -7 -26
-17 -39 -21 -16 -4 -21 -12 -18 -22 5 -12 1 -14 -19 -9 -18 5 -27 2 -31 -9 -3
-8 -10 -13 -14 -10 -5 3 -15 -3 -22 -14 -13 -19 -31 -22 -178 -37 -36 -3 -99
-19 -140 -35 -41 -16 -80 -29 -87 -29 -23 0 -108 -32 -134 -51 -14 -10 -48
-24 -74 -31 -26 -7 -62 -26 -79 -43 -18 -16 -48 -37 -67 -46 -19 -9 -77 -37
-129 -62 -52 -25 -120 -55 -150 -67 -95 -37 -222 -100 -306 -152 -92 -56 -215
-109 -227 -99 -12 12 3 40 24 46 11 4 17 10 14 15 -7 12 105 100 243 191 67
44 122 85 122 90 0 19 -42 7 -137 -41 -106 -53 -171 -99 -141 -100 9 0 20 5
23 10 3 6 13 10 21 10 28 0 -6 -24 -106 -75 -52 -27 -96 -53 -98 -57 -2 -4
-10 -8 -17 -8 -7 0 -27 -13 -44 -29 -18 -17 -42 -33 -54 -37 -12 -4 -24 -10
-27 -13 -12 -15 -60 -41 -60 -32 0 31 240 240 384 334 285 188 406 263 501
311 153 76 577 227 705 251 147 28 358 58 570 81 200 22 353 25 513 9z m227
-9 c25 -8 63 -22 85 -32 22 -9 57 -18 79 -21 86 -8 305 -78 333 -106 9 -8 13
-22 10 -29 -7 -20 -98 -14 -113 7 -8 11 -20 14 -38 9 -16 -4 -26 -2 -26 5 0 6
-8 11 -17 11 -19 0 -139 40 -161 54 -8 5 -18 4 -25 -3 -7 -7 -14 -5 -23 7 -11
14 -15 14 -22 4 -7 -11 -16 -9 -46 7 -20 12 -44 21 -52 21 -8 0 -22 7 -30 15
-8 8 -21 12 -29 9 -10 -4 -12 0 -8 18 6 21 20 38 33 38 3 0 25 -7 50 -14z
m390 5 c0 -11 -26 -22 -34 -14 -12 12 -5 23 14 23 11 0 20 -4 20 -9z m-873
-125 c-7 -18 13 -26 63 -26 22 0 47 -8 60 -18 19 -16 21 -22 11 -40 -6 -12
-25 -29 -41 -37 -36 -19 -40 -19 -40 -1 0 12 -10 12 -62 -3 -35 -10 -80 -26
-102 -35 -21 -9 -54 -16 -74 -16 -53 0 -153 23 -149 34 2 5 23 15 48 22 24 7
53 17 64 22 11 5 34 15 50 23 l30 13 -29 4 c-15 2 -41 -2 -57 -9 -16 -6 -32
-9 -36 -6 -7 7 -12 6 127 47 58 17 110 33 115 35 21 7 27 5 22 -9z m491 2 c7
-7 12 -18 12 -25 0 -18 -29 -16 -36 2 -7 18 -34 20 -34 3 0 -21 65 -131 80
-136 9 -3 11 2 8 16 -6 23 15 48 32 37 34 -21 -7 -72 -83 -99 -44 -17 -50 -17
-66 -2 -26 24 -39 20 -55 -19 -8 -19 -22 -35 -30 -35 -18 0 -21 16 -6 25 6 3
10 22 10 40 0 31 -5 37 -37 50 -44 19 -75 44 -67 56 8 13 41 11 64 -3 26 -17
40 2 40 55 0 29 4 37 18 37 19 0 29 -44 12 -55 -6 -3 -10 -21 -10 -40 0 -29 7
-39 46 -65 44 -31 74 -34 74 -8 0 7 -16 35 -35 62 -44 62 -47 103 -7 109 50 8
58 7 70 -5z m-783 -88 c-28 -12 -37 -12 -30 0 3 6 16 10 28 9 21 0 21 -1 2 -9z
m1237 -53 c61 -61 181 -283 176 -325 -3 -26 -4 -26 -22 11 -10 20 -22 37 -27
37 -15 0 -10 -14 24 -71 18 -30 40 -70 49 -89 41 -88 58 -130 58 -139 0 -5 23
-46 50 -91 28 -45 50 -85 50 -89 0 -4 13 -22 30 -41 16 -19 29 -40 30 -46 0
-10 84 -124 99 -134 10 -6 25 -43 22 -53 -1 -5 8 -21 19 -37 11 -15 20 -32 20
-37 0 -5 9 -16 20 -26 13 -11 20 -29 20 -53 0 -36 61 -154 80 -154 20 0 17 46
-6 89 -24 46 -32 101 -15 101 16 0 116 -161 161 -260 47 -100 88 -175 114
-205 21 -25 26 -40 26 -86 0 -57 20 -97 83 -166 19 -21 21 -22 34 -5 14 16 14
16 9 -1 -3 -11 -2 -15 4 -12 5 3 15 -5 22 -19 6 -14 15 -26 21 -26 5 0 6 -7 3
-16 -11 -28 3 -52 36 -63 22 -8 29 -15 24 -27 -3 -8 -6 -25 -6 -37 0 -16 -3
-18 -12 -9 -16 16 -47 15 -54 -2 -3 -8 2 -28 11 -46 22 -43 98 -120 118 -120
9 0 28 -17 42 -37 14 -21 45 -51 69 -67 24 -16 48 -38 55 -48 10 -16 8 -20
-10 -27 -19 -6 -20 -9 -6 -14 18 -7 24 -37 8 -37 -15 0 -42 31 -36 41 7 10
-63 41 -79 36 -6 -2 6 -10 27 -17 20 -8 37 -17 37 -20 0 -16 -14 -18 -44 -6
-40 17 -223 74 -258 81 -26 5 -41 35 -18 35 6 0 5 12 -3 32 -9 21 -20 32 -36
33 -18 1 -21 -2 -17 -17 3 -12 -4 -28 -17 -41 -12 -12 -22 -26 -22 -31 0 -5
-25 -22 -55 -38 -45 -23 -63 -27 -100 -22 -74 10 -185 50 -239 87 -54 37 -60
58 -8 26 42 -25 51 -24 32 5 -20 30 -43 40 -60 26 -12 -10 -62 4 -75 21 -3 3
-16 6 -29 5 -13 0 -26 5 -29 13 -4 11 3 13 29 7 32 -6 33 -6 13 8 -11 8 -34
18 -50 22 -16 4 -39 16 -51 26 -12 11 -28 18 -35 15 -7 -2 -27 4 -45 15 -18
10 -38 18 -45 16 -27 -5 -67 13 -73 32 -15 47 -165 157 -165 122 0 -5 17 -17
38 -28 20 -10 39 -21 42 -24 3 -3 14 -10 25 -16 11 -6 29 -28 40 -51 24 -48
68 -101 104 -126 l26 -18 -42 6 c-29 5 -43 3 -43 -4 0 -7 7 -14 15 -17 8 -4
15 -10 15 -15 0 -4 -7 -6 -15 -3 -18 7 -20 -7 -2 -25 7 -8 -1 -7 -22 4 -66 33
-26 -9 55 -58 43 -27 89 -58 100 -68 12 -11 34 -24 50 -28 16 -5 28 -14 26
-20 -4 -18 106 -118 142 -130 30 -11 30 -10 -13 29 -24 23 -42 43 -39 45 2 3
14 -4 25 -15 12 -10 36 -25 54 -33 19 -8 73 -53 121 -99 100 -96 137 -162 137
-243 0 -27 5 -66 11 -85 18 -63 11 -64 -47 -7 -32 31 -61 57 -66 57 -4 0 -18
11 -31 25 -28 30 -36 31 -36 7 0 -10 16 -32 35 -48 45 -38 46 -53 0 -18 -31
23 -36 24 -41 9 -4 -9 -16 -21 -28 -25 -17 -7 -18 -9 -3 -9 9 -1 17 -8 17 -17
0 -23 31 -58 55 -62 11 -2 46 -5 77 -5 56 -2 58 -3 58 -29 0 -15 4 -29 9 -32
11 -7 22 19 15 37 -3 8 5 13 23 14 16 1 23 -1 17 -3 -16 -7 6 -54 25 -54 11 0
11 3 1 15 -7 8 -9 15 -4 16 5 0 21 2 36 3 47 3 62 27 60 98 -1 40 3 65 10 70
10 5 9 14 -5 37 -9 16 -17 38 -17 48 0 10 -9 43 -19 73 -31 88 -5 109 49 40
18 -23 47 -47 65 -55 25 -10 34 -21 37 -41 4 -34 53 -59 67 -35 10 16 31 6 31
-15 0 -8 5 -14 10 -14 6 0 10 -5 10 -11 0 -6 -7 -8 -16 -5 -11 4 -15 2 -11 -8
3 -8 -5 -19 -19 -26 -15 -9 -26 -26 -30 -48 -4 -19 -15 -43 -25 -53 -11 -11
-19 -23 -19 -28 0 -15 29 -21 56 -11 49 19 60 3 23 -36 -11 -12 -26 -44 -33
-71 -13 -47 -12 -49 13 -68 15 -11 45 -20 71 -22 25 -1 48 -2 53 -2 4 -1 7 -5
7 -11 0 -6 -32 -10 -76 -10 -79 0 -117 -12 -108 -33 3 -8 -22 -39 -56 -70 -33
-31 -60 -61 -60 -67 0 -20 -31 -9 -66 23 -20 17 -42 36 -51 40 -24 14 -26 0
-3 -23 11 -11 20 -26 19 -33 -3 -26 2 -36 20 -42 31 -9 21 -45 -19 -71 -36
-24 -107 -44 -150 -43 -22 1 -22 2 8 11 39 13 44 33 5 23 -16 -4 -47 -9 -70
-12 -23 -3 -48 -12 -55 -20 -11 -14 -7 -15 31 -8 31 5 42 4 37 -4 -4 -6 -16
-11 -26 -11 -10 0 -22 -4 -25 -10 -3 -5 -1 -10 5 -10 7 0 10 -7 6 -15 -4 -10
1 -15 16 -15 17 0 18 -2 8 -15 -9 -10 -9 -15 -1 -15 6 0 11 5 11 10 0 6 8 10
18 10 14 0 15 2 2 10 -12 7 -8 11 17 16 18 3 38 13 44 20 6 8 16 14 22 14 5 0
2 -9 -7 -19 -17 -19 -17 -19 6 -14 22 5 22 5 3 -9 -28 -21 -112 -57 -119 -51
-2 3 -3 -3 0 -14 4 -17 -31 -39 -167 -104 -9 -4 -52 -25 -95 -48 -43 -22 -101
-45 -128 -51 -27 -6 -58 -17 -69 -25 -19 -13 -17 -14 19 -8 41 6 40 2 -9 -34
-16 -12 -36 -19 -47 -16 -19 5 -56 -5 -108 -30 -18 -9 -25 -8 -32 3 -6 8 -10
11 -10 7 0 -13 22 -51 34 -59 7 -5 4 -8 -6 -8 -10 0 -18 7 -18 16 0 9 -9 18
-20 21 -11 3 -17 10 -14 15 9 14 -46 1 -95 -23 -22 -10 -46 -19 -54 -19 -7 0
-34 -14 -60 -30 -60 -38 -143 -73 -227 -95 -36 -10 -78 -25 -94 -33 -31 -15
-129 -45 -206 -63 -24 -5 -62 -7 -84 -3 -35 6 -38 8 -23 19 24 18 21 28 -8 23
l-24 -5 22 24 c27 29 94 66 101 55 3 -5 42 -5 87 0 87 8 104 5 95 -19 -7 -16
-2 -16 59 6 17 6 43 13 59 16 23 5 27 8 15 16 -9 6 -3 7 18 3 19 -4 39 -2 46
5 8 6 16 8 20 5 11 -11 147 64 147 81 0 5 36 27 81 49 44 21 78 40 76 42 -8 8
-114 11 -134 3 -12 -4 -24 -5 -27 0 -3 4 12 13 32 20 73 26 142 61 142 72 0 6
7 9 15 5 18 -7 20 15 3 33 -9 10 -9 12 -1 7 6 -3 15 -2 18 4 8 12 103 60 120
60 5 0 26 8 45 18 19 11 48 22 65 26 49 12 80 50 33 39 -16 -3 -2 15 47 62
l70 67 -50 -31 c-49 -29 -90 -32 -46 -2 13 8 34 32 48 54 35 56 74 97 108 114
36 19 56 39 47 47 -3 4 3 9 15 12 19 5 35 25 37 47 1 4 7 11 14 16 8 5 14 12
15 17 1 5 5 8 10 7 4 -2 7 4 7 12 0 7 7 18 16 23 14 8 14 10 -1 25 -13 14 -20
14 -35 4 -11 -6 -20 -17 -20 -24 0 -15 -24 -45 -64 -82 -57 -52 -86 -81 -86
-86 0 -2 -19 -23 -42 -45 -100 -96 -138 -136 -143 -150 -6 -17 -78 -73 -124
-96 -34 -17 -43 -39 -11 -29 11 3 20 2 20 -3 0 -15 -54 -22 -63 -9 -4 7 -5 0
-3 -15 4 -25 3 -26 -27 -17 -24 7 -44 4 -84 -11 -37 -14 -71 -19 -111 -17 -68
4 -152 -12 -159 -30 -3 -7 -14 -13 -24 -13 -11 0 -22 -7 -26 -16 -3 -9 -13
-14 -24 -11 -11 3 -19 1 -19 -4 0 -14 -88 -11 -93 4 -3 9 -7 9 -17 0 -7 -6
-19 -9 -28 -6 -10 4 -13 2 -8 -5 4 -7 2 -12 -3 -12 -18 0 -26 5 -24 13 2 4 -2
7 -7 7 -6 0 -10 -5 -10 -11 0 -6 -8 -8 -19 -4 -10 3 -31 1 -47 -5 -16 -6 -30
-8 -31 -3 -5 13 -113 3 -113 -10 0 -8 -3 -8 -8 1 -8 11 -35 15 -217 26 -27 2
-55 5 -62 7 -6 2 -12 0 -13 -6 -4 -13 56 -23 158 -26 47 -2 82 -7 82 -13 0 -6
5 -5 12 2 7 7 17 8 29 1 18 -9 304 -12 447 -4 l73 4 -36 -19 c-44 -22 -155
-45 -294 -60 -97 -11 -344 -1 -436 16 -64 12 -165 45 -165 54 0 11 35 31 42
25 3 -3 18 0 35 5 38 14 40 54 2 56 -46 2 -51 4 -46 18 4 10 -2 13 -24 12 -17
-1 -28 2 -26 8 2 6 -11 25 -30 43 -18 18 -33 37 -33 42 0 14 33 23 40 11 4 -6
11 -10 16 -9 25 4 65 -2 60 -10 -4 -5 3 -7 14 -4 11 3 20 1 20 -5 0 -5 53 -17
118 -26 64 -9 148 -22 187 -28 38 -6 131 -11 206 -12 76 0 135 -4 133 -8 -3
-4 1 -6 8 -4 125 39 249 77 273 82 27 7 28 8 7 12 -13 2 -37 -1 -53 -7 -17 -6
-69 -13 -117 -16 -48 -4 -119 -10 -157 -15 -39 -5 -80 -7 -90 -5 -11 2 -56 7
-100 10 -44 3 -98 7 -120 10 -293 37 -295 38 -296 54 0 10 -2 12 -6 4 -5 -15
-33 -18 -33 -4 0 5 6 11 13 14 8 3 5 8 -8 13 -21 10 -32 49 -11 41 7 -3 13 1
13 8 0 7 -6 11 -13 8 -8 -3 -11 2 -7 16 3 11 10 18 17 15 6 -3 3 1 -7 9 -16
14 -16 15 10 25 16 6 50 10 77 9 31 -1 51 2 53 10 3 8 -6 12 -24 11 -35 -1
-103 9 -111 17 -3 3 0 11 8 18 10 9 11 9 6 0 -4 -8 -1 -13 7 -13 8 0 30 -3 48
-6 l34 -6 -39 34 c-42 37 -42 63 0 55 12 -2 29 0 36 4 10 7 9 9 -4 9 -9 0 -20
4 -23 10 -4 6 1 7 11 3 10 -4 21 0 28 9 10 14 75 24 191 28 l30 2 -30 9 c-16
5 -55 9 -85 10 -30 1 -66 6 -79 11 -17 6 -37 2 -78 -18 -60 -28 -71 -27 -53 6
8 15 17 19 33 15 20 -5 19 -3 -6 19 -35 32 -67 34 -67 5 0 -57 -31 -68 -77
-26 -40 36 -50 9 -64 -173 -5 -63 -12 -141 -15 -173 -4 -34 -1 -82 6 -118 14
-66 9 -82 -17 -53 -10 11 -41 39 -70 62 -39 32 -60 61 -86 115 -56 118 -56
143 -1 65 25 -37 50 -65 55 -62 5 3 6 11 2 17 -4 7 -6 20 -5 30 2 9 -2 17 -7
17 -6 0 -11 21 -11 48 0 48 -13 82 -26 69 -4 -3 -2 -12 4 -20 11 -13 10 -62
-2 -74 -3 -3 -7 5 -8 18 -2 37 -3 43 -10 54 -3 6 -3 28 0 50 4 22 7 115 6 207
-1 141 1 165 12 150 7 -9 14 -23 14 -31 0 -25 13 -3 15 26 4 52 17 103 25 98
4 -3 13 -19 19 -36 9 -26 8 -30 -4 -25 -12 4 -13 2 -2 -14 13 -23 27 -26 27
-7 0 20 -29 178 -40 218 -6 21 -16 41 -22 45 -11 7 -10 -1 10 -93 8 -37 6 -50
-15 -90 -46 -91 -55 -77 -27 43 15 64 17 137 5 159 -3 6 -6 31 -6 57 0 37 4
48 18 52 16 4 16 7 5 25 -9 15 -10 23 -1 32 8 8 11 6 10 -7 -1 -13 4 -18 17
-17 26 2 53 -34 61 -79 6 -35 10 -38 39 -38 18 0 37 5 43 11 7 7 15 3 26 -14
9 -14 33 -41 54 -61 25 -24 31 -34 18 -30 -11 4 -24 12 -30 18 -5 6 -18 17
-27 24 -31 24 -15 -14 20 -46 29 -28 46 -72 21 -57 -18 12 -51 -27 -44 -52 7
-29 -9 -30 -29 -2 -8 12 -19 18 -26 14 -6 -4 -17 -2 -25 5 -20 16 -27 -3 -14
-40 9 -23 9 -38 0 -56 -14 -31 -15 -181 -1 -189 6 -3 10 -15 10 -26 0 -10 7
-19 15 -19 16 0 28 34 24 71 -6 52 12 97 44 112 l31 16 71 -73 c63 -65 76 -73
125 -83 104 -22 130 -24 130 -13 0 5 -8 10 -17 10 -10 1 -36 12 -58 25 -22 14
-50 29 -63 35 -24 11 -132 118 -132 132 0 17 24 6 69 -31 34 -28 59 -40 94
-45 43 -6 47 -5 47 14 0 11 3 19 8 19 21 -4 32 3 32 19 0 22 -27 79 -41 87 -5
4 -9 17 -9 31 0 13 -4 24 -10 24 -5 0 -10 6 -10 13 0 8 -11 24 -25 37 -14 13
-25 34 -25 47 0 13 -4 23 -8 23 -4 0 -9 16 -10 35 -2 31 0 35 20 33 13 0 28 1
33 3 16 5 105 -11 105 -20 0 -4 11 -13 25 -19 14 -6 25 -18 25 -27 0 -8 5 -15
11 -15 5 0 8 4 4 9 -10 17 13 21 29 5 9 -8 16 -12 16 -8 0 5 5 3 12 -4 9 -9
14 -7 24 6 12 15 13 14 9 -9 -6 -34 26 -51 91 -49 17 0 40 -8 54 -20 13 -11
30 -20 39 -19 10 0 8 3 -6 9 -13 5 -23 14 -23 20 0 12 17 13 22 1 2 -5 10 -2
18 7 13 14 12 15 -3 9 -23 -9 -22 10 2 23 11 5 27 17 35 26 20 19 36 10 36
-20 0 -29 88 -74 97 -50 4 11 21 14 75 10 38 -2 83 1 100 8 27 10 29 15 25 43
-3 18 -1 35 4 38 5 4 9 11 9 18 0 8 -3 8 -12 -1 -20 -20 -31 -14 -24 13 4 14
2 25 -4 25 -5 0 -10 -8 -10 -19 0 -10 -6 -24 -14 -30 -11 -9 -15 -7 -19 11 -4
12 -1 29 6 37 10 12 9 14 -4 9 -13 -5 -16 4 -17 52 -1 32 4 73 12 92 7 18 16
42 20 52 7 19 7 19 21 -1 12 -17 22 -20 59 -16 42 4 46 2 72 -34 61 -83 114
-126 114 -93 0 6 10 8 24 4 16 -4 27 -1 33 10 5 10 25 18 46 19 20 2 39 6 43
9 8 9 -6 68 -16 68 -16 0 -19 30 -5 57 l14 27 11 -28 c5 -15 10 -36 10 -47 0
-26 19 -61 29 -55 10 7 7 42 -8 79 -10 26 -10 27 10 16 17 -9 23 -8 30 2 6 10
11 5 19 -16 17 -49 29 -71 29 -57 1 7 6 10 12 7 18 -12 61 4 55 20 -3 8 -9 22
-13 31 -5 14 -1 15 25 9 21 -4 32 -3 32 4 0 6 -5 11 -10 11 -6 0 -35 16 -65
34 -36 23 -55 31 -59 23 -3 -8 -7 -9 -13 -2 -16 20 -58 42 -72 37 -11 -4 -11
-6 0 -13 10 -6 10 -9 2 -9 -7 0 -20 11 -29 26 -9 14 -22 23 -29 20 -6 -2 -18
0 -26 5 -11 7 -11 9 4 9 23 0 22 16 -3 23 -13 3 -20 0 -20 -10 0 -23 20 -54
31 -48 5 4 9 1 9 -4 0 -16 -32 -13 -54 4 -11 8 -32 15 -47 15 -24 0 -27 4 -34
47 -4 30 -3 49 4 51 12 4 -71 92 -88 92 -6 0 -11 4 -11 10 0 16 33 -1 72 -38
23 -22 42 -32 52 -29 23 9 20 19 -19 56 -19 18 -35 37 -35 42 0 5 -7 9 -15 9
-18 0 -36 62 -21 72 15 10 56 10 56 0 0 -5 25 -35 55 -67 30 -33 55 -62 55
-66 0 -5 19 -28 43 -52 23 -24 55 -59 71 -77 17 -20 31 -29 34 -22 2 7 -16 32
-40 56 -23 24 -54 56 -67 72 -75 90 -111 137 -111 144 0 4 -14 22 -32 39 -22
22 -38 29 -51 25 -17 -5 -19 -3 -13 20 5 19 1 29 -14 38 -11 7 -20 16 -20 20
0 12 64 3 90 -13 14 -9 46 -28 71 -42 48 -27 80 -57 61 -57 -6 0 -14 5 -17 10
-3 6 -14 10 -23 10 -9 0 1 -13 26 -31 23 -17 42 -35 42 -40 0 -5 4 -9 10 -9 5
0 7 7 4 15 -8 20 3 19 33 -5 27 -21 63 -27 63 -10 0 6 -7 13 -15 16 -9 4 -39
29 -68 57 -29 27 -79 63 -112 78 -63 29 -95 51 -95 64 0 4 -8 14 -17 22 -16
13 -16 14 10 8 35 -7 34 4 -4 33 -19 16 -29 19 -29 10 -1 -7 -13 1 -28 18 -15
17 -41 38 -58 47 -17 9 -36 23 -43 31 -11 13 -10 17 4 22 10 4 21 1 25 -7 12
-19 20 -7 13 19 -3 12 -13 22 -22 22 -10 0 -24 11 -31 25 -7 14 -18 25 -23 25
-5 0 -5 6 2 13 6 8 8 24 5 38 -3 13 -5 36 -5 51 1 14 -4 39 -11 55 -6 15 -11
31 -10 35 1 5 -3 7 -9 5 -6 -1 -12 13 -14 31 -3 33 -15 57 -15 31 -1 -18 -29
32 -29 51 0 9 5 5 13 -9 l13 -24 -1 31 c-1 17 -5 27 -11 24 -5 -3 -4 2 4 11
12 15 11 17 -10 18 l-24 0 24 10 c13 5 26 7 28 5 5 -4 19 -55 30 -106 3 -14
10 -29 17 -35 21 -19 47 -66 41 -75 -3 -6 5 -10 19 -10 18 0 24 -4 20 -15 -4
-8 -2 -15 3 -15 6 0 15 -12 22 -27 10 -21 9 -28 -1 -35 -9 -6 -8 -8 6 -6 13 2
26 -11 44 -44 34 -63 133 -166 207 -216 33 -22 103 -57 155 -77 129 -51 262
-122 336 -178 89 -68 188 -114 257 -120 32 -3 74 -15 93 -26 29 -17 38 -19 54
-8 33 20 18 29 -68 47 -44 8 -85 20 -89 24 -9 9 57 1 130 -17 47 -11 50 -10
67 13 18 24 18 25 1 32 -10 3 -21 13 -24 22 -4 9 -18 16 -33 16 -24 0 -25 2
-13 17 15 18 18 18 -53 -4 -17 -5 -20 -3 -15 9 3 9 -3 25 -14 37 -11 12 -17
26 -14 31 3 6 -1 10 -10 10 -9 0 -15 6 -14 13 4 33 -2 47 -21 47 -19 0 -24 10
-21 38 1 6 -4 12 -11 13 -7 0 -4 4 7 9 17 7 17 9 3 9 -19 1 -46 41 -28 41 5 0
10 -4 10 -10 0 -5 5 -10 10 -10 14 0 13 16 -3 32 -7 7 -13 24 -14 38 -4 47 -9
75 -20 95 -6 11 -16 38 -22 60 -7 22 -16 49 -20 60 -5 11 -18 54 -30 95 -36
132 -49 173 -79 255 -53 146 -84 219 -118 276 -19 31 -34 61 -34 66 0 6 -9 18
-20 28 -11 10 -20 22 -20 27 0 5 -11 24 -25 42 -14 18 -25 40 -25 49 0 10 -4
17 -9 17 -5 0 -14 14 -22 31 -7 18 -22 43 -35 58 -24 29 -52 74 -87 141 -13
25 -31 59 -40 75 -9 17 -24 48 -34 70 -10 22 -28 55 -40 74 -13 19 -23 47 -23
63 0 22 -10 38 -36 61 -42 37 -62 73 -80 142 -23 85 -20 95 26 95 31 0 46 -7
72 -33z m-1412 13 c0 -13 -28 -25 -38 -16 -3 4 0 11 8 16 20 13 30 12 30 0z
m650 -25 c0 -9 -22 -26 -52 -40 -101 -47 -154 -19 -56 29 59 30 108 34 108 11z
m-1700 -5 c0 -5 -2 -10 -4 -10 -3 0 -8 5 -11 10 -3 6 -1 10 4 10 6 0 11 -4 11
-10z m1490 -90 c124 -20 300 -66 365 -94 86 -38 147 -58 160 -52 8 3 14 0 12
-6 -1 -5 14 -19 33 -30 108 -62 223 -135 280 -179 62 -48 169 -147 200 -184
14 -17 14 -17 -7 -7 -12 7 -24 12 -27 12 -25 0 18 -83 190 -372 52 -86 94
-166 94 -177 0 -12 -9 -22 -22 -27 -13 -3 -66 -30 -118 -59 -81 -44 -180 -90
-240 -111 -8 -3 -3 3 13 12 25 17 36 34 21 34 -16 0 -63 -35 -67 -50 -6 -22
-142 -71 -157 -56 -14 14 -13 63 3 70 8 3 6 9 -7 20 -20 16 -11 21 18 10 8 -3
14 -11 12 -17 -1 -7 -1 -9 1 -4 3 4 13 7 24 7 23 0 14 30 -10 30 -13 1 -12 3
4 13 11 6 23 12 28 12 4 0 6 5 5 10 -2 6 -6 9 -10 8 -3 -1 -8 4 -11 11 -8 21
34 28 60 10 14 -9 23 -10 23 -4 0 7 8 9 20 5 15 -5 18 -3 14 9 -3 9 -1 16 5
16 6 0 11 7 11 15 0 18 16 20 23 3 3 -7 6 -2 6 11 1 23 2 24 21 6 21 -19 42
-13 23 6 -16 16 3 66 28 72 10 3 19 1 19 -4 0 -5 7 -9 15 -9 8 0 15 9 15 20 0
11 7 20 15 20 20 0 30 47 17 82 -5 15 -7 30 -2 33 10 6 0 55 -11 55 -5 0 -9 5
-9 10 0 6 -11 28 -25 51 -14 22 -23 44 -20 49 4 6 1 10 -5 10 -6 0 -8 5 -5 10
3 6 1 10 -6 10 -7 0 -10 3 -6 6 13 14 -34 41 -81 47 -44 5 -60 2 -114 -24 -35
-17 -82 -40 -105 -51 -34 -16 -45 -29 -57 -64 -8 -25 -12 -52 -9 -61 5 -12 1
-14 -14 -9 -13 4 -23 2 -26 -7 -7 -18 -65 -28 -75 -13 -4 6 -19 11 -34 12 -16
0 -54 1 -85 2 l-58 2 25 25 c14 13 115 61 234 110 297 122 386 164 379 181 -3
8 -14 14 -24 14 -12 0 -23 10 -29 25 -9 25 -30 35 -30 14 0 -13 -39 -2 -61 17
-23 21 -49 17 -49 -6 0 -12 -7 -20 -17 -20 -10 0 -28 -6 -40 -13 -67 -38 -87
-47 -95 -39 -4 4 -12 30 -17 57 -5 27 -16 54 -25 61 -9 6 -16 21 -16 33 0 15
-6 21 -22 21 -13 0 -36 14 -52 30 -16 17 -25 30 -19 30 6 0 9 8 6 19 -3 10 0
22 6 25 8 5 6 17 -6 39 -15 29 -17 30 -24 12 -4 -11 -8 -15 -9 -10 0 6 -5 2
-11 -8 -8 -13 -7 -22 1 -33 10 -11 9 -14 -9 -14 -11 0 -21 6 -21 14 0 7 -15
17 -32 21 -29 6 -31 8 -13 15 11 5 28 11 38 14 20 6 23 36 4 36 -7 0 -18 -5
-24 -11 -8 -8 -22 -3 -52 15 -22 14 -47 26 -56 26 -8 0 -22 11 -30 24 -17 25
-16 25 -215 52 -142 20 -160 22 -285 30 -55 3 -118 9 -140 12 -47 8 -151 0
-147 -10 7 -23 -1 -27 -23 -12 -32 21 -45 11 -41 -34 4 -38 25 -85 120 -262
64 -122 70 -145 29 -136 -16 4 -33 14 -39 22 -6 7 -15 14 -20 14 -5 0 -22 7
-38 15 -24 13 -31 13 -38 3 -4 -7 -8 -9 -8 -4 0 5 7 18 17 28 15 17 15 18 -5
18 -21 0 -48 35 -44 56 1 7 -4 14 -13 18 -8 3 -15 12 -15 21 0 8 -4 15 -10 15
-5 0 -7 7 -4 15 4 10 0 15 -11 15 -21 0 -48 27 -40 40 3 5 -2 10 -12 10 -17 1
-16 2 2 17 19 15 18 15 -17 10 -21 -3 -40 -1 -43 4 -6 9 14 13 53 10 23 -2 31
14 10 22 -7 3 -3 6 9 6 12 1 25 5 28 11 9 14 -40 23 -62 12 -10 -6 -45 -13
-78 -17 -32 -3 -63 -9 -69 -12 -7 -4 -8 -3 -1 3 6 6 39 23 75 39 36 17 67 33
70 36 3 3 12 9 20 12 8 3 -12 6 -45 7 -47 1 -55 3 -38 10 36 15 190 42 283 51
126 11 390 1 520 -21z m875 -112 c4 -51 9 -113 9 -138 1 -25 5 -51 9 -57 5 -8
3 -13 -3 -13 -7 0 -14 9 -17 20 -3 11 -9 17 -14 14 -5 -3 -18 10 -29 28 -16
27 -20 50 -20 130 0 53 5 109 11 125 l11 28 17 -22 c13 -15 20 -50 26 -115z
m-249 63 c-9 -10 -16 -25 -16 -34 0 -9 -7 -17 -15 -17 -12 0 -13 5 -3 28 17
39 29 53 40 46 5 -3 3 -13 -6 -23z m-1459 3 c-3 -3 -12 -4 -19 -1 -8 3 -5 6 6
6 11 1 17 -2 13 -5z m-82 -24 c-3 -5 -11 -10 -17 -10 -6 0 -56 -18 -110 -40
-92 -37 -129 -48 -116 -35 9 9 222 95 236 95 7 0 10 -4 7 -10z m515 -55 c-7
-8 -18 -15 -24 -15 -6 0 -2 7 8 15 25 19 32 19 16 0z m198 -7 c18 -18 14 -38
-8 -38 -22 0 -27 -16 -7 -23 6 -2 0 -8 -15 -12 -45 -12 -61 0 -53 37 4 18 9
36 12 41 7 11 58 8 71 -5z m-594 -80 c20 -25 19 -77 -3 -132 -11 -29 -12 -29
-82 -24 -90 7 -103 19 -104 96 0 44 5 64 23 89 l22 31 63 -19 c35 -10 70 -28
81 -41z m-233 17 c-29 -19 -58 -35 -64 -35 -6 0 -2 -7 10 -15 20 -14 25 -37
11 -50 -11 -11 4 -46 17 -41 7 2 23 -7 36 -20 13 -14 29 -22 36 -20 7 3 25 -2
40 -10 26 -15 27 -16 4 -10 -14 3 -30 1 -36 -4 -5 -4 -26 -10 -45 -12 -25 -2
-36 -9 -38 -22 -3 -12 0 -16 7 -11 16 9 41 -13 35 -30 -10 -24 17 -27 61 -6
25 12 51 21 59 21 20 0 27 -27 11 -40 -8 -7 -13 -16 -10 -19 6 -10 65 -1 65
10 0 5 4 9 9 9 6 0 9 -9 8 -20 -1 -11 -6 -20 -12 -20 -7 0 -22 -12 -36 -26
-54 -59 -131 -70 -172 -24 -16 18 -33 27 -42 24 -23 -9 -18 6 10 28 36 28 31
44 -16 52 -38 6 -69 -1 -43 -11 6 -2 9 -16 6 -32 -2 -16 1 -38 7 -50 7 -11 9
-21 6 -21 -7 0 -155 302 -155 317 0 19 -18 25 -39 14 -20 -11 -63 -85 -54 -94
5 -6 -62 -27 -86 -27 -7 0 -30 -12 -50 -27 -20 -16 -52 -36 -72 -46 -43 -22
-113 -88 -148 -141 -14 -22 -34 -51 -43 -65 -10 -14 -21 -33 -25 -41 -4 -8
-15 -24 -25 -35 -11 -11 -17 -28 -16 -39 4 -23 28 -34 28 -12 0 8 5 18 11 22
14 8 1 -38 -13 -47 -6 -4 -6 -9 -1 -12 15 -10 30 7 38 41 4 18 14 36 23 40 10
3 23 14 30 24 18 25 42 23 42 -4 0 -17 3 -19 12 -10 18 18 38 14 38 -8 0 -11
4 -20 10 -20 18 0 42 -68 39 -112 -4 -51 -43 -114 -78 -123 -25 -6 -60 -43
-57 -59 1 -13 -58 -28 -62 -16 -2 5 -10 4 -18 -4 -7 -8 -19 -17 -26 -19 -10
-4 -9 -8 2 -16 13 -9 13 -11 -2 -11 -27 0 -31 -17 -17 -73 7 -29 12 -55 11
-59 -1 -5 3 -8 8 -8 6 0 26 -15 45 -34 25 -26 33 -42 31 -63 -1 -15 1 -33 6
-40 6 -7 2 -14 -11 -18 -17 -5 -19 -10 -11 -26 10 -17 8 -18 -13 -10 -20 8
-24 6 -23 -6 0 -9 -5 -18 -13 -21 -9 -3 -11 0 -7 9 4 8 1 6 -7 -3 -8 -10 -21
-18 -29 -18 -9 0 -15 -8 -14 -17 1 -14 -7 -18 -34 -18 -19 -1 -41 -4 -48 -8
-7 -5 -12 -3 -12 3 0 7 -5 6 -14 -2 -8 -7 -10 -14 -5 -16 5 -2 9 -11 9 -19 0
-11 -7 -14 -25 -9 -24 6 -25 4 -25 -40 0 -159 149 -485 300 -656 38 -43 100
-79 100 -57 0 16 18 10 23 -8 4 -14 5 -13 6 4 1 16 6 21 16 17 11 -5 14 -2 9
12 -6 15 -2 14 14 -5 19 -20 22 -21 22 -6 0 11 5 15 15 11 8 -3 15 -1 15 5 0
6 9 8 20 4 11 -3 20 -2 20 3 0 6 7 13 16 16 8 3 12 2 9 -4 -10 -16 12 -12 29
6 15 14 20 11 17 -8 0 -5 6 -8 14 -8 8 0 15 4 15 10 0 5 7 7 15 4 8 -4 15 -13
15 -21 0 -13 3 -13 15 -3 12 10 16 8 25 -15 5 -14 10 -36 10 -47 0 -24 27
-124 41 -151 6 -10 7 -22 4 -27 -4 -6 -1 -10 4 -10 6 0 11 -7 11 -15 0 -9 11
-20 25 -27 23 -10 23 -12 11 -43 -12 -29 -12 -36 4 -61 9 -16 34 -42 54 -58
23 -18 33 -33 28 -38 -12 -12 -209 103 -301 176 -36 28 -78 57 -92 63 -24 10
-26 10 -23 -13 3 -26 2 -27 -20 -18 -17 7 -22 34 -6 34 29 0 3 45 -55 97 -71
63 -194 215 -251 308 -71 118 -164 319 -164 356 0 11 -4 27 -10 37 -14 26 -38
139 -45 212 -9 89 -11 93 -35 80 -16 -9 -19 -8 -13 6 3 9 13 14 23 11 15 -4
18 7 24 87 8 113 40 269 74 361 14 39 52 121 83 183 42 81 54 112 43 112 -8 0
-12 5 -9 11 4 6 13 8 20 5 16 -6 119 122 118 146 -1 11 4 17 11 16 15 -3 146
115 146 131 0 6 5 11 12 11 19 0 159 110 153 120 -4 6 3 10 15 10 11 0 43 11
69 25 47 23 49 23 44 4 -5 -18 -2 -19 23 -13 16 4 41 13 55 20 15 7 37 15 50
18 13 3 51 14 84 25 84 27 87 26 26 -14z m1054 6 c17 -5 26 -10 22 -10 -5 -1
-5 -6 -1 -12 4 -8 9 -7 15 2 7 11 14 10 41 -5 21 -13 33 -16 36 -8 4 12 32 5
32 -9 0 -4 -7 -6 -16 -2 -12 4 -15 2 -12 -8 3 -8 14 -13 26 -11 11 2 40 -2 64
-9 24 -7 62 -13 85 -13 23 -1 45 -4 49 -8 4 -5 19 -8 33 -8 24 0 24 -1 -9 -25
-35 -26 -74 -33 -85 -15 -8 12 -77 13 -90 1 -6 -5 -27 -14 -47 -21 -37 -11
-40 -10 -97 32 -33 24 -60 51 -60 61 -1 10 -11 21 -23 26 -13 5 -38 21 -57 35
l-34 26 49 -5 c27 -2 63 -8 79 -14z m151 -3 c3 -5 -9 -6 -27 -3 -44 8 -49 14
-10 13 18 -1 34 -5 37 -10z m-493 -54 c32 -31 81 -34 139 -8 38 17 41 17 72 0
40 -21 158 -132 174 -163 22 -41 14 -96 -19 -141 -20 -27 -29 -50 -26 -62 3
-13 0 -20 -10 -20 -8 0 -12 -4 -8 -10 3 -5 12 -7 20 -4 17 7 115 -36 153 -67
l27 -22 -30 7 c-16 4 -43 10 -60 12 -16 3 -46 13 -65 22 -53 26 -250 20 -250
-7 0 -16 24 -19 99 -12 101 10 222 -21 311 -78 79 -50 328 -295 306 -299 -9
-2 -16 -10 -16 -18 0 -8 -4 -14 -10 -14 -5 0 -10 7 -10 15 0 8 -6 15 -12 15
-7 1 -29 26 -48 56 -34 54 -145 152 -157 140 -4 -4 18 -32 48 -63 87 -90 89
-92 89 -106 0 -7 18 -30 41 -51 44 -40 45 -52 4 -42 -16 4 -25 13 -25 26 0 11
-4 20 -10 20 -10 0 -40 28 -80 76 -30 35 -110 89 -157 106 -18 7 -33 16 -33
20 0 4 -9 8 -20 8 -11 0 -20 5 -20 11 0 8 11 9 33 5 17 -4 50 -9 72 -12 l40
-5 -24 18 c-30 22 -127 55 -158 54 -17 -1 -21 3 -16 17 5 13 3 14 -7 5 -8 -7
-32 -9 -65 -6 -54 6 -115 -8 -134 -31 -8 -10 -4 -13 19 -13 28 0 70 -26 70
-45 0 -4 -10 -8 -21 -8 -21 0 -20 -1 5 -21 14 -11 26 -26 26 -32 0 -13 20 -23
111 -56 30 -12 70 -36 88 -55 l32 -33 -34 -22 c-40 -25 -62 -27 -53 -6 7 18
-10 20 -18 3 -5 -10 -7 -10 -12 -1 -4 10 -9 9 -21 -3 -12 -11 -18 -12 -23 -4
-5 9 -9 9 -14 1 -4 -6 -20 -11 -35 -11 -15 0 -32 -5 -38 -11 -8 -8 -17 -8 -32
1 -16 8 -21 8 -19 -1 2 -6 -2 -13 -9 -16 -7 -3 -10 5 -9 21 2 14 -1 26 -5 26
-5 0 -9 -6 -9 -12 0 -7 -16 -24 -35 -37 -19 -13 -32 -27 -29 -32 3 -5 2 -8 -3
-7 -8 3 -57 -41 -51 -46 1 -2 13 -9 26 -15 12 -6 22 -18 22 -26 0 -9 24 -41
53 -73 63 -71 78 -89 124 -153 24 -34 45 -52 64 -56 16 -3 34 -12 41 -21 11
-13 9 -14 -14 -8 -24 5 -28 3 -28 -14 0 -12 -7 -20 -17 -21 -12 0 -13 -2 -5
-6 9 -3 7 -10 -9 -24 -28 -24 -35 -24 -42 1 -3 12 -14 20 -27 20 -11 0 -18 -4
-15 -10 3 -5 13 -10 21 -10 8 0 13 -4 10 -8 -3 -5 -19 -7 -36 -4 -18 2 -30 0
-30 -7 0 -6 -5 -11 -11 -11 -5 0 -8 4 -5 9 4 5 1 20 -4 33 -10 22 -10 22 -7
-4 3 -16 -1 -28 -7 -29 -7 0 -6 -3 1 -6 17 -6 -2 -43 -21 -43 -20 0 -26 35
-11 63 26 51 26 74 0 105 -14 17 -25 34 -25 38 0 5 -11 30 -24 56 -13 27 -20
50 -15 54 5 3 9 13 8 22 0 11 -3 12 -6 5 -10 -26 -19 -12 -15 22 3 28 1 35
-12 35 -10 0 -14 5 -10 11 4 6 -1 9 -13 7 -10 -1 -41 12 -69 30 -52 33 -95 46
-58 17 18 -15 18 -15 -8 -9 -17 4 -35 0 -49 -9 -12 -9 -27 -13 -35 -10 -7 3
-21 -2 -30 -11 -12 -13 -19 -14 -30 -5 -11 9 -14 8 -14 -3 0 -19 -35 -60 -44
-51 -3 3 -6 -4 -6 -17 0 -12 -8 -29 -17 -36 -14 -10 -15 -15 -6 -25 10 -10 15
-9 28 1 8 7 15 19 15 26 0 8 4 14 8 14 14 0 7 -35 -11 -63 -9 -15 -17 -31 -17
-36 0 -17 -22 -24 -31 -10 -5 8 -9 10 -9 4 0 -17 19 -40 26 -32 4 4 16 -5 26
-20 13 -20 18 -23 18 -11 0 16 24 36 45 36 22 1 15 23 -12 33 -26 10 -26 12
-8 19 11 4 44 5 73 3 39 -3 62 1 79 13 18 11 28 13 34 5 5 -6 6 -9 3 -6 -4 2
-12 -1 -18 -8 -19 -19 -26 -45 -13 -51 7 -2 -2 -2 -19 1 -24 4 -35 0 -46 -16
-8 -11 -17 -20 -19 -18 -2 1 1 -3 8 -9 18 -16 16 -27 -3 -20 -22 9 -13 -14 14
-32 20 -13 22 -12 32 12 10 27 26 34 32 15 2 -7 12 -7 32 2 22 10 31 10 48 0
11 -7 22 -10 26 -7 3 3 17 -8 32 -24 20 -23 27 -41 28 -74 0 -63 9 -86 30 -80
16 5 16 5 0 -9 -16 -12 -16 -16 -2 -35 15 -22 12 -42 -7 -42 -5 0 -9 9 -9 20
0 11 -5 20 -11 20 -7 0 -9 -8 -4 -22 4 -13 7 -31 8 -41 1 -16 3 -17 13 -3 6 9
14 13 17 9 12 -12 7 -20 -20 -32 -21 -10 -28 -9 -34 1 -7 10 -9 9 -9 -3 0 -17
-50 -34 -60 -21 -10 14 -72 44 -77 38 -4 -3 0 -6 8 -6 10 -1 9 -3 -3 -11 -22
-12 -24 -33 -2 -25 8 3 13 2 9 -3 -3 -5 1 -12 7 -15 7 -4 4 -5 -7 -3 -26 5
-28 -26 -3 -42 11 -7 18 -7 18 -1 0 5 -5 10 -11 10 -5 0 -7 5 -4 10 10 16 25
12 26 -7 1 -17 2 -17 6 0 2 9 13 17 24 17 16 0 19 -6 15 -35 -4 -33 -3 -35 22
-30 l27 5 -25 -11 c-14 -7 -28 -11 -32 -11 -4 1 -5 -5 -2 -13 5 -13 8 -12 21
1 20 19 22 16 16 -23 l-5 -32 -28 31 c-20 22 -29 26 -34 16 -3 -7 -5 -4 -3 7
1 11 -3 20 -8 21 -16 1 -75 -37 -75 -48 0 -6 6 -5 15 2 13 11 15 8 13 -14 -3
-32 -8 -32 -37 -2 -14 15 -20 30 -15 38 4 7 3 10 -1 5 -5 -4 -19 3 -32 15 -13
12 -23 16 -23 10 0 -7 5 -12 11 -12 6 0 9 -7 5 -15 -5 -13 59 -85 76 -85 4 0
16 10 28 22 16 18 23 19 33 9 10 -10 8 -11 -8 -5 -17 7 -18 6 -7 -8 7 -8 10
-23 6 -32 -5 -13 -2 -15 12 -10 11 4 16 4 12 -1 -4 -4 -3 -14 3 -22 9 -10 8
-13 -5 -13 -12 0 -15 -6 -10 -24 4 -17 2 -24 -8 -22 -32 7 -46 20 -64 56 -11
21 -27 41 -38 44 -13 3 -17 11 -13 25 5 19 -3 26 -26 22 -5 -1 -5 4 -1 11 4 8
3 10 -2 5 -5 -5 -9 -27 -10 -48 0 -37 2 -40 22 -35 14 4 24 1 28 -9 3 -8 0
-15 -7 -15 -7 0 -12 -11 -12 -24 0 -13 4 -22 9 -19 9 6 26 -15 26 -33 0 -25
-31 -24 -42 1 -6 14 -17 25 -23 25 -27 0 -119 120 -97 128 11 3 4 44 -11 53
-5 4 -5 14 2 27 9 17 8 19 -9 15 -14 -4 -20 0 -20 11 0 9 5 16 10 16 6 0 10 7
10 15 0 9 6 12 16 8 14 -5 16 -2 11 19 -5 18 -3 25 9 25 8 0 13 -6 10 -14 -6
-14 10 -18 18 -4 4 6 -25 74 -51 120 -2 2 -10 -2 -18 -9 -13 -11 -16 -11 -13
1 2 8 8 18 13 22 6 5 0 5 -12 2 -34 -9 -28 7 10 29 l32 19 -30 11 c-33 12 -39
33 -15 54 13 12 13 13 -2 8 -10 -3 -18 -1 -18 5 0 6 -6 9 -12 6 -7 -2 -12 -12
-10 -22 2 -10 -1 -14 -7 -10 -6 3 -11 13 -11 22 0 13 -3 13 -15 3 -9 -7 -18
-10 -22 -6 -3 3 -1 6 5 6 7 0 12 5 12 10 0 6 -7 10 -15 10 -8 0 -15 5 -15 10
0 6 4 10 9 10 5 0 7 9 4 20 -3 10 -10 18 -17 17 -6 -1 -10 7 -9 18 1 11 3 37
4 57 1 22 6 35 12 31 6 -4 8 0 4 9 -3 9 -1 20 5 26 7 7 7 16 0 29 -9 14 -6 22
16 40 l27 23 -25 -3 c-20 -2 -24 2 -22 18 2 11 13 26 24 34 16 11 17 15 7 22
-11 7 -11 9 -1 9 9 0 11 7 7 21 -5 14 -4 19 4 15 7 -5 9 -1 5 8 -4 9 -1 16 6
16 9 0 7 7 -5 20 -14 16 -16 23 -7 32 14 14 16 48 3 48 -14 0 -6 53 8 58 9 3
9 8 -1 19 -10 12 -9 17 4 27 16 12 16 14 0 37 -9 13 -15 26 -13 29 2 3 12 16
22 29 24 31 24 40 -2 34 -11 -3 -18 -11 -15 -18 5 -13 -8 -25 -64 -65 -19 -13
-46 -35 -60 -49 l-25 -24 35 20 c20 11 49 23 65 27 l29 7 -19 -22 c-37 -44
-43 -48 -49 -42 -3 4 -6 1 -6 -5 0 -7 -7 -12 -15 -12 -8 0 -15 -7 -15 -16 0
-8 -4 -13 -9 -10 -5 3 -11 -3 -14 -14 -3 -14 -14 -20 -31 -20 -14 0 -26 1 -26
3 0 2 11 18 25 37 27 37 31 50 14 50 -12 0 -47 -35 -89 -89 -14 -18 -37 -47
-53 -66 -19 -23 -24 -35 -15 -38 9 -4 8 -6 -3 -6 -13 -1 -16 -12 -15 -56 0
-30 3 -55 6 -55 3 0 28 44 55 98 50 98 60 112 82 112 8 0 8 -6 0 -25 -7 -14
-15 -25 -19 -25 -12 0 -70 -127 -66 -145 6 -29 21 -18 50 36 31 58 45 75 35
44 -6 -17 -4 -16 14 4 13 16 18 33 15 47 -4 14 -1 24 9 28 23 8 11 -34 -36
-128 -21 -43 -39 -89 -39 -101 0 -13 -7 -30 -15 -38 -8 -8 -12 -16 -10 -18 2
-2 6 -62 10 -134 4 -71 11 -141 16 -154 11 -29 6 -37 -10 -17 -7 8 -14 45 -16
83 -2 37 -8 99 -14 136 -7 38 -11 94 -10 126 1 32 -1 63 -5 69 -10 17 -46 -8
-46 -33 0 -17 -2 -17 -10 -5 -8 13 -10 13 -10 -2 0 -9 5 -18 11 -20 6 -2 12
-42 14 -93 2 -50 7 -107 10 -127 5 -30 3 -38 -15 -48 -11 -6 -29 -8 -39 -5
-20 6 -20 16 6 -116 9 -43 105 -214 115 -204 3 3 11 -6 18 -20 7 -14 17 -25
22 -25 4 0 8 -9 8 -19 0 -11 5 -23 11 -27 6 -4 10 1 8 12 -1 11 3 30 8 44 6
14 8 29 5 34 -3 5 -9 0 -13 -12 -12 -31 -19 -27 -19 8 0 20 5 30 15 30 11 0 7
12 -15 49 -31 50 -36 76 -20 101 7 11 14 5 30 -30 23 -49 32 -65 72 -123 15
-21 26 -44 24 -50 -1 -7 -1 -9 1 -4 9 15 23 6 23 -14 0 -15 5 -19 15 -15 20 7
42 -28 51 -82 l7 -43 16 33 16 33 5 -55 c3 -30 2 -71 -2 -90 -18 -93 -32 -186
-30 -192 1 -5 -2 -8 -7 -8 -5 0 -12 -18 -16 -40 -4 -22 -10 -42 -15 -45 -11
-7 -5 -54 8 -67 8 -8 13 -7 17 5 4 9 13 13 22 10 14 -5 15 2 11 48 -5 52 16
149 32 149 9 0 3 -73 -11 -143 -5 -26 -6 -87 -2 -134 l6 -86 22 27 c18 23 23
25 28 12 15 -39 25 -9 24 77 -1 84 4 111 39 225 5 17 2 22 -10 22 -10 0 -14
-4 -11 -10 3 -5 1 -10 -5 -10 -6 0 -9 -4 -6 -9 3 -5 -3 -29 -14 -53 -15 -32
-19 -36 -13 -13 3 17 7 49 7 72 1 31 5 43 16 44 12 0 12 2 1 6 -11 5 -11 7 0
14 12 8 11 11 -1 19 -12 8 -11 10 8 10 13 0 22 -5 20 -13 -2 -6 8 -23 20 -35
13 -13 21 -30 18 -38 -3 -8 -2 -12 4 -9 5 3 14 -5 21 -17 9 -19 9 -21 -2 -10
-17 16 -50 16 -48 0 1 -7 -5 -30 -14 -50 -23 -50 -23 -156 -1 -165 12 -4 14
-14 10 -39 -4 -18 -2 -35 4 -39 16 -10 12 -23 -19 -56 -29 -30 -30 -30 -49
-11 -20 20 -20 19 -51 -11 -29 -29 -31 -30 -31 -10 0 12 4 33 10 47 6 17 6 26
0 26 -6 0 -10 9 -10 19 0 27 -11 52 -20 46 -4 -3 -5 -24 -3 -47 4 -38 1 -48
-31 -88 -20 -25 -36 -51 -36 -57 0 -19 20 -16 37 5 13 15 14 15 8 -10 -7 -37
8 -35 32 2 19 30 20 30 37 11 18 -20 17 -22 -13 -68 -18 -26 -34 -58 -37 -70
-4 -13 -12 -23 -20 -23 -7 0 -27 -20 -44 -45 -24 -35 -33 -61 -39 -114 -5 -52
-14 -80 -35 -110 -16 -23 -32 -41 -35 -41 -9 0 -81 -70 -81 -79 0 -3 28 -38
63 -77 80 -91 99 -114 120 -144 19 -27 23 -86 6 -92 -13 -4 -23 -68 -10 -68 5
0 1 -23 -10 -52 -10 -29 -18 -57 -17 -63 3 -24 -18 -50 -42 -50 -21 0 -26 -5
-28 -30 -3 -27 1 -32 31 -43 45 -16 82 -15 164 4 37 9 88 17 113 19 25 2 63 8
85 13 39 9 39 10 8 11 -17 0 -33 6 -35 12 -2 6 -37 12 -78 15 -88 6 -104 10
-94 25 5 9 -1 10 -21 5 -25 -6 -26 -6 -11 9 24 25 38 55 32 71 -3 8 1 14 9 14
20 0 19 10 -2 26 -16 12 -15 14 17 28 35 14 96 8 142 -15 9 -4 29 -3 46 3 27
11 34 9 74 -22 35 -27 107 -111 185 -217 12 -15 14 -15 34 3 20 18 20 18 13
-11 -7 -28 -7 -29 10 -12 22 22 25 21 19 -3 -3 -12 0 -20 7 -20 9 0 11 11 7
35 -4 26 -2 35 8 35 8 0 20 8 27 18 15 19 85 61 74 43 -4 -6 -1 -11 8 -11 9 0
16 4 16 9 0 4 12 6 26 3 19 -3 25 -1 20 7 -4 6 -14 11 -22 11 -8 0 -32 9 -54
20 -22 11 -48 20 -58 20 -11 0 -25 6 -31 14 -14 16 -25 17 234 -15 149 -18
291 -26 323 -17 6 2 18 -6 27 -17 13 -16 16 -17 11 -3 -9 29 13 31 24 3 6 -14
10 -29 10 -33 0 -7 -93 -32 -119 -32 -15 0 -41 24 -41 38 0 14 -62 24 -107 16
-32 -5 -39 -10 -39 -27 1 -19 -4 -22 -37 -20 -23 2 -55 -6 -78 -18 -22 -11
-48 -19 -57 -17 -9 1 -23 -1 -29 -5 -9 -5 -13 -2 -13 9 0 16 -1 16 -14 -2 -13
-16 -13 -20 0 -24 9 -3 15 -10 14 -15 0 -6 11 -11 25 -13 15 -2 29 -10 31 -17
8 -21 -15 -57 -34 -53 -9 2 -29 -9 -44 -26 -16 -16 -28 -24 -28 -18 0 16 -32
52 -46 52 -7 0 -14 5 -16 12 -2 6 -20 11 -39 11 -18 0 -39 3 -44 8 -7 5 -45
-25 -99 -76 -104 -100 -120 -104 -167 -42 l-33 42 30 -27 c17 -16 38 -28 49
-28 10 0 39 20 64 43 26 24 52 46 58 48 6 2 14 23 18 47 6 34 4 42 -9 43 -82
4 -196 -1 -219 -10 -35 -14 -50 -14 -64 0 -7 7 -22 7 -50 0 -52 -14 -231 -20
-265 -8 -27 9 -28 9 -24 92 1 48 8 90 15 99 10 12 10 21 -1 43 -10 21 -11 43
-5 87 12 81 -1 93 -80 79 -32 -6 -61 -9 -65 -7 -4 3 4 23 18 47 27 47 29 69
12 96 -8 13 -8 35 -1 81 8 53 8 63 -5 68 -9 3 -18 0 -20 -6 -2 -7 -11 -12 -21
-12 -13 0 -19 -15 -29 -73 -21 -133 -24 -199 -11 -208 10 -6 7 -11 -11 -19
-39 -17 -69 -35 -93 -57 -31 -27 -83 -17 -80 15 2 12 -1 22 -6 22 -24 0 -20
42 8 92 16 29 32 68 34 86 5 29 3 32 -21 32 -34 0 -57 14 -48 29 4 6 2 11 -5
11 -8 0 -8 4 1 15 10 12 10 15 0 15 -8 0 -11 13 -8 40 3 32 0 41 -14 46 -10 3
-18 10 -18 15 0 6 5 7 10 4 6 -3 10 -1 10 4 0 6 -9 11 -20 11 -25 0 -27 20 -2
21 16 1 16 2 -1 6 -9 2 -15 9 -12 13 5 8 -33 110 -40 110 -15 0 -35 -15 -35
-25 0 -7 -7 -18 -16 -25 -13 -11 -16 -10 -21 8 -7 27 -12 27 -29 5 -20 -26
-17 -77 6 -118 24 -42 24 -45 6 -45 -7 0 -16 8 -19 18 -3 9 -21 60 -40 112
-40 109 -36 131 21 124 30 -3 32 -2 26 21 -7 29 3 33 22 8 10 -15 10 -11 1 21
-7 22 -31 59 -54 82 -27 27 -38 46 -32 50 8 5 6 10 -5 16 -9 5 -16 20 -16 33
0 14 -5 25 -11 25 -6 0 -8 8 -4 20 4 12 -3 33 -19 57 -14 21 -26 48 -26 60 0
13 -4 23 -9 23 -5 0 -14 14 -20 32 -13 36 -101 181 -113 186 -4 2 -8 15 -8 28
0 22 10 29 33 25 5 -1 6 6 3 16 -3 10 -8 30 -11 45 -4 15 -13 29 -21 32 -8 3
-14 10 -14 17 0 16 -64 73 -68 60 -2 -6 -12 -1 -24 11 l-20 23 6 -24 c5 -23 4
-23 -13 -5 -25 27 -35 58 -17 51 12 -5 12 -2 0 21 -8 15 -14 35 -14 44 0 9 -4
20 -10 23 -5 3 -10 13 -10 21 0 20 30 17 31 -3 0 -12 2 -13 6 -5 4 10 8 10 19
1 27 -23 24 -2 -11 62 -20 35 -43 81 -53 101 -9 21 -22 38 -29 38 -6 0 -15 5
-19 12 -4 7 -3 8 4 4 7 -4 12 -2 12 4 0 6 -7 13 -15 16 -8 4 -15 11 -15 18 0
6 -14 27 -31 45 -16 19 -23 31 -14 28 27 -11 -1 30 -35 49 -17 10 -36 35 -45
57 -9 23 -24 41 -36 44 -16 4 -19 11 -15 29 4 14 2 24 -4 24 -5 0 -10 -5 -10
-11 0 -5 -5 -7 -11 -4 -6 4 -8 13 -5 21 3 8 1 14 -5 14 -6 0 -8 7 -5 15 21 52
21 51 -1 32 -20 -18 -33 -14 -33 10 0 8 5 11 10 8 6 -3 10 1 10 9 0 19 -21 21
-38 4 -16 -16 -34 2 -22 22 7 11 10 12 10 2 0 -10 3 -10 15 2 8 8 15 20 15 26
0 6 5 8 10 5 6 -3 10 1 10 9 0 9 -6 16 -13 16 -8 0 -19 11 -27 24 -7 14 -18
22 -26 19 -10 -4 -12 0 -8 11 4 11 1 16 -11 16 -10 0 -13 -5 -9 -12 5 -8 2 -9
-9 -5 -30 11 -18 -10 16 -27 32 -17 32 -17 3 -11 -36 8 -67 43 -63 72 2 12 0
20 -4 17 -11 -7 -24 21 -44 96 -9 36 -21 73 -26 83 -28 52 36 80 68 30 9 -16
21 -33 27 -38 16 -15 56 -73 56 -81 0 -4 12 -17 26 -30 14 -13 22 -29 19 -34
-4 -6 1 -7 11 -3 13 5 16 3 11 -9 -3 -9 0 -18 6 -21 7 -3 24 -27 37 -53 14
-27 28 -50 33 -52 4 -2 7 -9 7 -16 0 -6 11 -27 24 -46 13 -19 47 -80 76 -135
96 -179 108 -200 124 -203 9 -2 16 -13 16 -24 0 -21 62 -139 87 -163 8 -8 10
-15 4 -15 -6 0 -11 -9 -11 -20 0 -11 4 -20 8 -20 8 0 102 -152 102 -165 0 -4
16 -34 35 -66 19 -33 35 -67 35 -75 0 -7 5 -14 10 -14 6 0 10 -6 10 -13 0 -7
8 -22 18 -33 10 -10 19 -22 20 -27 8 -38 29 -95 39 -105 7 -7 13 -23 13 -34 0
-18 -2 -19 -17 -7 -15 13 -15 12 -3 -11 13 -25 47 -71 74 -100 8 -8 30 -42 51
-75 20 -33 56 -87 80 -120 25 -33 48 -67 51 -75 7 -15 112 -146 209 -260 72
-84 90 -91 126 -48 50 58 62 96 70 218 5 71 18 149 33 205 14 50 26 107 26
127 0 21 10 61 22 90 31 76 32 235 2 293 -12 22 -26 72 -33 110 -12 72 -39
166 -50 175 -12 10 -45 65 -43 72 1 4 -9 10 -23 14 -18 4 -30 1 -43 -15 -17
-21 -256 -105 -440 -154 l-93 -25 -19 42 c-18 43 -31 71 -176 375 -41 85 -74
159 -74 165 0 6 59 29 130 50 72 21 133 43 136 47 3 5 15 9 27 9 12 0 81 20
152 44 145 48 215 64 215 47 0 -6 -9 -16 -20 -23 -30 -19 -73 -85 -66 -103 3
-8 1 -15 -4 -15 -5 0 -7 -15 -5 -32 3 -24 2 -29 -5 -18 -5 8 -10 11 -10 6 0
-5 -7 -3 -15 4 -20 17 -19 7 5 -40 20 -38 38 -56 26 -25 -9 25 8 17 20 -10 9
-18 9 -28 0 -41 -11 -15 -16 -11 -42 32 -16 27 -35 61 -42 77 -7 16 -19 27
-32 27 -11 0 -20 5 -20 10 0 6 -9 10 -21 10 -11 0 -18 4 -15 8 2 4 -3 8 -12 9
-10 1 -22 3 -27 4 -6 2 -26 -4 -46 -13 -20 -9 -51 -19 -69 -23 -45 -10 -127
-61 -132 -83 -7 -24 25 -118 51 -153 12 -16 19 -34 16 -39 -3 -6 1 -7 9 -4 12
5 16 0 16 -20 0 -16 6 -26 14 -26 8 0 18 -9 21 -20 4 -11 10 -18 14 -16 4 3
18 0 32 -7 13 -7 35 -12 49 -11 62 3 71 5 65 13 -3 5 -1 12 5 16 5 3 10 2 10
-3 0 -6 9 -8 20 -5 15 4 20 0 21 -13 0 -12 6 -5 14 16 7 19 14 28 14 20 1 -10
6 -7 17 8 8 12 13 31 9 41 -3 11 -1 22 5 26 12 8 14 45 1 45 -5 0 -12 11 -15
24 -3 13 -9 32 -12 43 -3 10 5 1 17 -19 13 -21 27 -38 33 -38 5 0 18 -7 28
-17 17 -15 18 -15 18 5 0 12 -4 22 -9 22 -5 0 -7 10 -4 21 6 20 8 19 24 -12
10 -19 19 -27 19 -19 1 20 39 -26 52 -62 6 -16 15 -28 22 -28 14 0 86 -91 86
-109 0 -6 11 -11 25 -11 14 0 25 2 25 4 0 2 -11 23 -24 47 -21 38 -46 110 -61
175 -2 11 -16 60 -30 109 -15 53 -27 122 -29 170 -3 81 14 193 32 204 15 9 25
51 13 51 -6 0 -11 8 -11 18 0 28 43 142 52 136 4 -3 13 6 20 20 7 17 19 26 34
26 13 0 29 9 36 19 8 11 36 35 63 53 50 34 65 53 43 53 -14 1 -107 -65 -152
-107 -33 -32 -48 -35 -67 -12 -12 15 -11 16 6 11 15 -5 26 1 42 26 56 81 125
137 168 137 15 0 17 2 6 9 -11 7 -10 11 5 20 31 17 6 12 -36 -8 -26 -13 -37
-14 -33 -5 4 11 62 44 78 44 8 0 35 26 35 34 0 3 -9 6 -19 6 -10 0 -21 7 -25
15 -3 9 0 15 8 15 7 0 19 6 26 14 6 8 17 13 25 10 7 -3 16 -1 20 5 3 6 33 11
65 11 32 0 62 5 65 10 4 7 -3 9 -22 5 -26 -6 -27 -5 -10 8 14 11 15 16 5 20
-7 3 23 6 67 7 53 1 73 4 60 10 -17 7 -18 9 -4 14 9 4 21 6 27 4 7 -2 27 15
46 37 37 43 59 45 25 2 -23 -30 -15 -35 19 -11 13 9 26 13 29 10 3 -3 -2 -8
-11 -12 -9 -3 -16 -10 -16 -15 0 -18 20 -8 60 31 23 23 57 44 81 50 53 14 58
8 14 -16 -19 -10 -35 -22 -35 -25 0 -11 38 2 51 17 15 18 30 18 23 0 -3 -8
-19 -18 -35 -21 -16 -4 -29 -12 -29 -18 0 -8 -3 -8 -8 1 -7 10 -23 4 -67 -23
-33 -19 -64 -40 -69 -45 -17 -17 -24 -11 -18 13 5 19 4 20 -11 8 -9 -7 -14
-18 -10 -24 4 -6 -4 -8 -21 -3 -24 6 -27 4 -21 -14 7 -22 -4 -27 -22 -9 -6 6
-21 9 -34 6 -22 -4 -22 -4 3 -6 18 -1 26 -5 22 -14 -3 -9 -29 -14 -76 -15 -85
-3 -121 -18 -46 -19 71 -1 148 -5 148 -9 0 -2 -28 -13 -62 -26 -71 -25 -55
-38 17 -14 57 20 61 20 45 1 -9 -11 0 -10 36 5 27 12 57 26 68 31 14 8 21 7
27 -3 7 -10 12 -11 29 0 11 6 27 12 37 12 15 0 15 -2 -3 -16 -19 -15 -19 -16
1 -9 11 4 36 9 55 12 l35 5 -25 -21 c-19 -16 -20 -20 -6 -14 15 5 18 3 13 -10
-9 -23 5 -28 36 -12 21 11 34 11 58 3 25 -9 34 -8 47 6 14 13 14 16 2 16 -20
1 37 32 75 41 28 6 27 7 -15 10 -25 1 -54 1 -65 0 -16 -1 -14 5 15 32 36 35
101 57 164 57 47 0 46 16 0 24 -58 11 -138 -14 -173 -55 -9 -10 -38 -30 -65
-44 -41 -23 -55 -26 -94 -20 l-46 7 24 19 25 20 -27 -7 c-30 -7 -39 9 -12 20
26 10 44 7 44 -8 0 -24 14 -25 55 -5 22 11 31 16 20 13 -11 -4 -31 -9 -45 -11
-22 -4 -23 -3 -8 9 9 7 24 18 34 24 14 8 10 10 -22 11 -55 0 -83 6 -78 15 3 4
11 5 18 2 8 -3 16 2 19 13 4 14 5 13 6 -5 0 -13 5 -20 11 -17 5 3 20 8 31 10
52 10 160 55 132 55 -6 0 -39 -7 -73 -16 -68 -17 -118 -14 -56 4 21 6 44 19
51 29 12 15 17 16 34 6 12 -7 30 -13 41 -13 11 0 20 -4 20 -8 0 -4 11 -9 25
-10 14 -1 25 2 25 6 0 16 -18 33 -31 32 -26 -4 -74 2 -61 7 22 9 12 25 -13 21
-31 -6 -43 8 -15 17 24 7 63 -3 55 -15 -3 -4 2 -11 11 -14 10 -4 13 -2 8 6 -7
11 -6 11 62 -10 30 -9 31 -9 26 17 -2 14 -21 43 -41 65 -23 25 -32 40 -23 43
6 3 12 11 12 19 0 8 8 14 18 14 28 0 34 11 14 27 -15 13 -15 14 10 10 l27 -4
-26 34 c-29 38 -32 39 -75 15 -29 -16 -56 -19 -123 -13 -11 0 -29 15 -40 31
-23 34 -36 37 -69 14 -34 -21 -48 2 -16 28 32 26 72 23 103 -8z m617 16 c0 -5
-4 -10 -10 -10 -5 0 -10 5 -10 10 0 6 5 10 10 10 6 0 10 -4 10 -10z m894 -43
c28 -40 30 -47 19 -47 -8 0 -53 73 -53 86 0 10 5 5 34 -39z m-702 -100 c12
-18 9 -27 -6 -27 -7 0 -16 -9 -19 -20 -7 -28 -41 -25 -61 5 -15 23 -15 26 5
46 22 22 66 20 81 -4z m-174 -15 c7 -5 10 -16 7 -24 -4 -10 7 -29 31 -52 33
-32 43 -36 90 -36 29 0 56 -5 60 -11 3 -6 10 -41 15 -78 4 -36 11 -76 15 -88
4 -14 2 -23 -5 -23 -19 0 -41 46 -48 99 -9 81 -29 64 -28 -24 1 -41 -2 -75 -6
-75 -4 0 -16 -3 -26 -7 -16 -6 -16 -5 -4 10 13 17 7 22 -21 18 -11 -1 -48 55
-41 63 3 3 1 6 -5 6 -16 0 -15 30 1 30 8 1 7 5 -3 13 -9 7 -14 20 -12 29 2 10
-6 27 -17 40 -12 12 -21 25 -21 29 0 11 -43 -3 -69 -23 -23 -17 -17 -23 18
-19 7 2 10 -2 7 -8 -5 -7 4 -9 26 -6 l33 5 -31 -11 c-26 -9 -36 -8 -58 6 -24
16 -39 65 -16 50 6 -3 10 -1 10 5 0 6 5 8 10 5 6 -3 10 -2 10 4 0 6 7 8 15 5
23 -9 45 3 39 21 -9 22 -61 19 -76 -4 -9 -15 -15 -17 -25 -9 -7 6 -13 7 -13 3
0 -4 -7 -2 -15 5 -13 11 -15 8 -15 -14 0 -60 -22 -115 -61 -150 -21 -20 -41
-36 -44 -36 -13 0 -3 25 24 59 34 43 40 61 43 124 1 48 2 49 31 44 16 -2 44 4
65 15 38 19 88 23 110 10z m-1240 -22 c13 0 12 -3 -4 -15 -10 -8 -23 -14 -29
-15 -5 0 -3 5 5 10 13 8 12 10 -2 10 -10 0 -18 5 -18 11 0 6 7 8 16 5 9 -3 23
-6 32 -6z m-828 -14 c0 -2 -7 -7 -16 -10 -8 -3 -12 -2 -9 4 6 10 25 14 25 6z
m-172 -128 c-3 -13 -48 -41 -55 -34 -4 3 45 46 53 46 2 0 3 -5 2 -12z m702
-19 c-19 -5 -43 -6 -52 -3 -20 6 -27 -19 -17 -58 4 -16 4 -28 -1 -28 -5 0 -7
-7 -4 -15 5 -11 11 -12 25 -5 15 9 17 7 13 -5 -4 -9 -19 -19 -35 -22 -16 -3
-29 -10 -29 -15 0 -6 9 -8 19 -5 14 3 18 1 14 -9 -3 -8 -9 -14 -14 -14 -5 0
-9 -7 -9 -16 0 -13 3 -14 14 -5 11 9 14 6 14 -14 0 -13 -4 -22 -9 -19 -5 3 -9
-6 -9 -20 0 -13 -6 -27 -12 -30 -7 -4 -3 -4 10 -2 25 5 28 -4 10 -23 -11 -10
-9 -11 5 -5 16 6 17 1 11 -52 -4 -33 -10 -63 -15 -68 -12 -13 -59 2 -59 20 0
8 -5 12 -11 9 -6 -4 -21 3 -35 16 -13 12 -24 18 -24 12 0 -23 70 -71 119 -83
53 -12 60 -30 13 -30 -54 0 -124 33 -152 72 -52 72 -48 267 5 276 71 11 107
50 109 116 l1 41 42 1 c24 0 46 3 49 7 4 3 16 1 28 -5 20 -11 19 -12 -14 -19z
m2603 -8 c15 -22 27 -50 27 -63 l-1 -23 -19 24 c-11 13 -20 31 -20 40 0 9 -7
27 -16 39 -8 12 -12 22 -7 22 4 0 20 -18 36 -39z m-3146 14 c7 -23 -26 -46
-106 -75 -46 -16 -104 -32 -130 -36 -42 -6 -45 -6 -32 9 12 16 62 46 156 96
41 22 105 25 112 6z m974 -6 c-13 -11 -26 -17 -29 -14 -8 8 20 35 37 35 12 -1
11 -5 -8 -21z m-633 -1 c7 -7 12 -21 12 -32 0 -19 -1 -19 -20 2 -23 25 -40 28
-40 9 0 -8 11 -20 25 -27 31 -16 19 -33 -20 -28 -37 4 -49 26 -36 61 8 21 17
27 39 27 15 0 33 -5 40 -12z m-818 -32 c0 -3 -4 -8 -10 -11 -5 -3 -10 -1 -10
4 0 6 5 11 10 11 6 0 10 -2 10 -4z m1810 -21 c-6 -8 -9 -19 -5 -25 3 -6 -3
-10 -14 -10 -26 0 -26 5 -3 29 20 22 40 28 22 6z m-1762 -53 c9 -5 30 -15 47
-23 36 -18 44 -44 15 -52 -14 -3 -26 3 -40 21 -14 17 -24 22 -31 15 -14 -14
56 -163 77 -163 13 0 15 6 11 30 -6 27 -4 30 18 30 29 0 31 -10 10 -50 -11
-20 -27 -32 -54 -40 -22 -6 -52 -17 -68 -25 -34 -18 -43 -19 -43 -2 0 6 -21
58 -47 115 -51 112 -51 115 13 137 46 17 68 18 92 7z m3396 -3 c-3 -5 -10 -6
-16 -3 -17 11 -5 -16 44 -92 137 -214 190 -409 189 -700 0 -152 -22 -310 -55
-400 -13 -35 -15 -36 -15 -12 -1 15 3 38 9 52 6 17 6 26 -1 26 -6 0 -6 7 1 20
8 16 8 20 -4 20 -8 0 -18 9 -21 20 -3 11 -10 20 -15 20 -5 0 -16 3 -26 7 -12
4 -15 3 -10 -5 4 -7 3 -12 -2 -12 -11 0 -47 41 -55 63 -4 9 -11 17 -17 17 -5
0 -10 11 -10 25 0 14 -5 25 -10 25 -6 0 -10 8 -8 18 2 13 -3 16 -22 14 -19 -1
-22 0 -10 8 19 12 24 61 5 54 -7 -3 -16 0 -21 7 -4 7 -3 10 4 5 6 -3 19 5 30
19 11 13 22 22 24 19 3 -2 11 2 18 11 10 12 10 15 -3 15 -8 0 -17 8 -20 19 -3
15 0 17 16 13 14 -4 18 -2 13 7 -5 7 0 18 10 26 17 12 20 11 26 -8 4 -17 6
-13 7 14 1 31 6 39 33 52 28 13 30 17 15 23 -17 6 -17 8 3 26 21 20 21 20 2
34 -17 12 -26 12 -62 -1 -24 -8 -49 -15 -57 -15 -8 0 -31 -11 -51 -25 -43 -30
-62 -32 -62 -7 0 47 158 127 180 91 9 -14 59 -19 66 -7 3 4 13 8 22 8 23 0 25
32 8 90 -28 94 -154 361 -194 411 -11 14 -8 16 18 17 17 0 28 -4 24 -9z
m-1679 -9 c-3 -5 -14 -10 -23 -9 -14 0 -13 2 3 9 27 11 27 11 20 0z m-1985 -4
c0 -9 -30 -14 -35 -6 -4 6 3 10 14 10 12 0 21 -2 21 -4z m3417 -10 c-3 -8 2
-25 11 -38 10 -13 27 -40 37 -62 11 -21 32 -51 47 -67 27 -30 22 -45 -12 -34
-13 4 -19 2 -18 -5 2 -6 -7 -19 -20 -27 -22 -16 -23 -15 -17 8 3 13 0 31 -7
41 -16 20 -116 59 -123 48 -8 -12 25 -83 49 -105 l22 -20 -43 -32 c-50 -38
-71 -43 -49 -12 13 20 13 25 -1 53 -45 90 -89 156 -100 152 -7 -3 -13 -1 -13
4 0 5 21 18 46 30 53 23 74 26 56 8 -20 -20 -14 -28 31 -48 44 -20 87 -26 87
-12 0 18 -33 74 -46 79 -23 9 -16 23 19 38 41 18 50 18 44 1z m544 -73 c102
-153 126 -203 99 -203 -5 0 -10 7 -10 15 0 8 -9 20 -20 27 -11 7 -20 18 -20
25 0 7 -4 13 -9 13 -5 0 -7 8 -4 18 2 10 -7 29 -21 45 -14 16 -26 32 -26 37 0
5 -7 16 -16 24 -14 15 -38 76 -28 76 2 0 27 -35 55 -77z m-3977 40 c20 -17 21
-19 4 -35 -19 -19 -22 -16 -32 25 -7 32 -2 33 28 10z m2196 -23 c0 -5 -5 -10
-11 -10 -5 0 -7 5 -4 10 3 6 8 10 11 10 2 0 4 -4 4 -10z m516 -11 c19 -22 19
-22 -1 -11 -11 6 -27 16 -35 22 -13 8 -13 10 1 10 9 0 24 -10 35 -21z m-2842
-39 c13 -13 -2 -13 -43 1 -17 6 -31 15 -31 19 0 11 60 -6 74 -20z m76 -1 c0
-6 8 -8 19 -4 11 3 26 -1 35 -10 18 -19 21 -35 5 -35 -16 0 -36 -24 -31 -38 2
-6 -3 -12 -12 -12 -10 0 -16 -9 -16 -25 0 -14 -4 -25 -10 -25 -5 0 -10 -9 -10
-20 0 -11 -4 -20 -10 -20 -5 0 -10 -11 -10 -25 0 -15 -5 -24 -12 -22 -9 1 -13
-10 -12 -35 1 -27 -2 -35 -12 -31 -10 3 -14 -3 -14 -21 0 -23 -4 -26 -34 -26
-25 0 -35 5 -39 20 -5 20 22 90 35 90 4 0 8 8 8 19 0 10 7 24 15 31 8 7 15 21
15 32 0 10 7 21 15 24 8 4 15 13 15 22 0 8 12 31 26 49 19 26 23 38 15 46 -15
15 -14 27 4 27 8 0 15 -5 15 -11z m1480 -35 c0 -9 -32 -33 -44 -34 -5 0 -1 9
9 20 18 20 35 26 35 14z m-900 -44 c0 -5 -5 -10 -11 -10 -5 0 -7 5 -4 10 3 6
8 10 11 10 2 0 4 -4 4 -10z m2005 -10 c3 -6 -1 -7 -9 -4 -18 7 -21 14 -7 14 6
0 13 -4 16 -10z m-55 -14 c0 -11 -19 -15 -25 -6 -3 5 1 10 9 10 9 0 16 -2 16
-4z m-2744 -53 c41 -34 43 -46 7 -37 -37 9 -53 23 -53 45 0 25 5 24 46 -8z
m704 -8 c10 -12 10 -15 -1 -15 -26 0 -59 12 -59 21 0 15 47 10 60 -6z m571
-31 c23 -28 115 -84 140 -85 13 -1 35 -5 49 -10 18 -6 9 -7 -30 -4 -30 2 -47
2 -37 -1 9 -3 17 -10 17 -15 0 -17 -51 -9 -81 12 -16 11 -34 17 -40 14 -6 -5
-4 -12 8 -20 15 -11 15 -17 5 -39 -7 -15 -8 -26 -2 -26 6 0 10 7 10 16 0 8 4
13 10 9 5 -3 7 -12 3 -20 -3 -8 0 -15 6 -15 14 0 2 -25 -27 -55 -11 -13 -17
-31 -15 -45 2 -15 -3 -30 -14 -39 -13 -10 -14 -12 -3 -8 11 3 16 -2 16 -14 0
-12 -5 -18 -13 -15 -7 3 -13 -1 -13 -9 0 -19 -39 -20 -46 -1 -3 8 -15 16 -26
19 -11 3 -17 10 -13 16 3 6 2 11 -2 11 -5 0 -10 12 -11 27 -1 14 -4 29 -7 31
-6 7 -45 -28 -45 -41 0 -5 23 -30 50 -56 72 -68 67 -94 -7 -39 -32 24 -63 50
-70 58 -16 19 -17 70 -2 70 15 0 49 39 49 56 0 7 2 19 6 27 3 8 -6 28 -20 45
-15 16 -26 37 -26 46 0 19 71 66 100 66 11 0 27 11 36 25 19 29 27 31 45 9z
m-781 -74 c0 -5 -9 -6 -20 -3 -11 3 -20 9 -20 13 0 5 9 6 20 3 11 -3 20 -9 20
-13z m240 16 c0 -2 -7 -9 -15 -16 -12 -10 -15 -10 -15 4 0 9 7 16 15 16 8 0
15 -2 15 -4z m2563 -67 c24 -28 16 -34 -20 -15 -24 13 -25 15 -8 16 l20 1 -20
9 c-14 6 -15 9 -5 9 9 1 24 -8 33 -20z m-1836 5 c-3 -3 -12 -4 -19 -1 -8 3 -5
6 6 6 11 1 17 -2 13 -5z m1497 -31 c6 -12 24 -26 40 -31 26 -9 27 -10 6 -8
-39 5 -62 17 -56 32 3 8 1 14 -4 14 -6 0 -10 -7 -10 -15 0 -8 -4 -15 -10 -15
-5 0 -10 5 -10 11 0 5 -5 7 -10 4 -6 -4 -8 -11 -4 -16 3 -6 -3 -13 -15 -16
-11 -3 -18 -9 -15 -15 6 -9 -26 -4 -77 12 -17 5 -31 4 -38 -3 -6 -6 -11 -7
-11 -3 0 5 -6 3 -14 -3 -10 -8 -16 -9 -21 -1 -3 5 2 13 12 16 10 3 25 9 34 14
8 4 37 4 64 -1 46 -9 49 -8 73 21 29 34 52 36 66 3z m-1902 -13 c6 -9 6 -25
-1 -42 -9 -25 -16 -28 -57 -28 l-46 0 7 33 c4 17 12 38 18 45 13 17 67 11 79
-8z m2098 -12 c0 -4 6 -8 13 -8 7 0 21 -16 30 -35 20 -41 21 -55 6 -55 -5 0
-8 4 -4 9 3 5 -16 30 -42 55 -41 38 -45 45 -25 43 12 -1 22 -5 22 -9z m177 6
c-3 -3 -12 -4 -19 -1 -8 3 -5 6 6 6 11 1 17 -2 13 -5z m-72 -14 c-3 -5 -12
-10 -20 -10 -8 0 -17 5 -20 10 -4 6 5 10 20 10 15 0 24 -4 20 -10z m-305 -10
c8 -5 11 -12 7 -17 -5 -4 -12 -1 -17 6 -4 8 -15 11 -25 8 -9 -4 -14 -3 -10 3
8 12 25 13 45 0z m-2501 -45 c63 -39 139 -111 128 -121 -12 -12 -88 16 -133
49 -36 27 -74 78 -74 101 0 13 25 4 79 -29z m2578 29 c-3 -3 -12 -4 -19 -1 -8
3 -5 6 6 6 11 1 17 -2 13 -5z m58 -4 c3 -5 1 -10 -4 -10 -6 0 -11 5 -11 10 0
6 2 10 4 10 3 0 8 -4 11 -10z m195 -5 c0 -2 -7 -5 -15 -9 -9 -3 -15 0 -15 9 0
9 6 12 15 9 8 -4 15 -7 15 -9z m-580 -5 c0 -5 -4 -10 -10 -10 -5 0 -10 5 -10
10 0 6 5 10 10 10 6 0 10 -4 10 -10z m212 -65 c0 -19 1 -41 2 -47 1 -7 -8 -12
-19 -11 -10 1 -27 -3 -37 -8 -12 -6 -18 -6 -18 0 0 6 -17 8 -40 5 -25 -3 -50
1 -67 10 l-28 15 28 1 c29 0 72 35 62 50 -3 6 1 7 10 4 10 -4 12 -10 6 -18 -6
-8 -1 -12 20 -13 16 -1 29 2 29 7 0 6 7 10 15 10 8 0 15 7 15 15 0 32 20 13
22 -20z m145 -45 c-3 -11 -1 -20 5 -20 5 0 6 -4 3 -10 -6 -10 6 -14 38 -11 9
1 17 -3 17 -9 0 -6 -4 -8 -10 -5 -5 3 -10 -1 -10 -9 0 -9 4 -16 9 -16 5 0 13
-15 16 -32 4 -18 14 -46 22 -61 14 -27 13 -28 -8 -25 -12 2 -24 -3 -26 -10 -3
-7 1 -10 10 -6 8 3 18 1 22 -5 3 -6 -1 -11 -10 -11 -11 0 -15 -5 -11 -15 3 -8
1 -15 -4 -15 -6 0 -10 6 -10 14 0 23 -17 28 -34 10 -9 -8 -16 -13 -16 -10 0 3
-11 -4 -25 -16 -13 -11 -22 -25 -18 -31 3 -5 8 -6 12 0 12 18 39 22 45 6 7
-17 -10 -43 -27 -43 -5 0 -2 9 8 20 22 24 8 26 -23 4 -13 -9 -26 -13 -29 -10
-4 3 0 6 7 6 11 0 11 3 2 12 -9 9 -15 9 -20 2 -4 -5 -21 -16 -38 -23 -39 -16
-74 2 -74 37 0 13 -4 21 -9 18 -5 -3 -12 1 -15 10 -3 8 -10 13 -15 10 -4 -3
-19 3 -31 14 -13 11 -29 20 -36 20 -8 0 -19 9 -26 20 -7 11 -21 20 -31 20 -10
0 -15 5 -12 10 4 6 10 8 15 5 4 -3 24 -7 44 -9 33 -5 41 0 37 26 0 4 12 0 27
-8 30 -15 42 -3 21 22 -18 21 4 42 26 24 10 -8 15 -9 15 -1 0 6 -5 11 -11 11
-5 0 -7 5 -3 12 4 6 -10 1 -32 -12 -24 -15 -34 -18 -26 -8 7 9 9 18 5 20 -4 3
-2 3 5 1 8 -2 28 8 44 22 22 18 34 23 43 15 6 -5 15 -6 20 -2 4 4 4 -3 1 -15
-4 -12 -2 -24 4 -28 6 -4 10 5 10 21 0 22 3 25 12 16 20 -20 38 -14 38 15 0
14 3 23 7 19 15 -14 10 -37 -10 -51 -16 -11 -17 -15 -6 -15 28 0 56 36 54 69
-1 17 3 31 8 31 5 0 7 -9 4 -20z m243 -21 c6 -10 7 -19 2 -19 -5 0 -14 12 -20
26 -14 29 2 24 18 -7z m-350 1 c0 -5 -5 -10 -11 -10 -5 0 -7 5 -4 10 3 6 8 10
11 10 2 0 4 -4 4 -10z m-65 -10 c-3 -5 -11 -10 -16 -10 -6 0 -7 5 -4 10 3 6
11 10 16 10 6 0 7 -4 4 -10z m355 8 c0 -2 11 -33 24 -70 13 -38 20 -68 15 -68
-4 0 -11 9 -14 20 -3 11 -11 20 -16 20 -6 0 -7 4 -4 10 3 5 -4 23 -16 39 -20
27 -19 51 2 51 5 0 9 -1 9 -2z m-523 -44 c-3 -3 -12 -4 -19 -1 -8 3 -5 6 6 6
11 1 17 -2 13 -5z m571 -19 c-3 -3 -9 2 -12 12 -6 14 -5 15 5 6 7 -7 10 -15 7
-18z m-528 -21 c0 -2 -9 0 -20 6 -11 6 -20 13 -20 16 0 2 9 0 20 -6 11 -6 20
-13 20 -16z m990 -19 c53 -34 63 -70 26 -102 -15 -13 -24 -23 -20 -23 3 0 2
-6 -4 -13 -6 -7 -9 -27 -6 -45 6 -35 -11 -44 -21 -12 -3 11 -12 20 -18 20 -7
0 -6 4 3 10 13 8 13 10 -1 10 -20 0 -31 24 -18 37 5 5 -5 7 -27 5 -26 -3 -35
-1 -30 7 4 6 14 11 22 11 8 0 12 5 9 10 -3 6 2 10 12 10 15 0 14 4 -7 20 -14
11 -20 20 -13 20 6 0 15 -5 19 -11 3 -6 15 -9 25 -6 12 3 19 0 19 -9 0 -17 36
-19 46 -3 4 6 -12 28 -37 50 -50 44 -38 52 21 14z m-3405 -15 c-5 -8 -11 -8
-17 -2 -6 6 -7 16 -3 22 5 8 11 8 17 2 6 -6 7 -16 3 -22z m2985 9 c0 -5 -4 -8
-10 -4 -5 3 -3 -7 5 -21 8 -15 11 -32 7 -38 -4 -7 -8 -3 -10 8 -2 11 -11 26
-19 34 -12 12 -12 16 -1 23 18 12 28 11 28 -2z m570 -9 c0 -5 -5 -10 -11 -10
-5 0 -7 5 -4 10 3 6 8 10 11 10 2 0 4 -4 4 -10z m-596 -46 c4 -9 1 -23 -5 -30
-10 -12 -9 -13 5 -8 14 5 15 3 6 -21 -8 -20 -7 -30 5 -41 18 -18 19 -29 4 -56
-9 -17 -8 -24 5 -33 17 -13 22 -70 7 -80 -5 -3 -12 3 -15 12 -5 19 -2 -6 14
-91 11 -57 45 -101 56 -73 3 9 1 30 -5 47 -5 17 -7 29 -2 26 11 -7 64 -146 57
-153 -3 -3 -1 -14 4 -23 7 -13 5 -21 -4 -29 -12 -10 -14 -7 -11 14 1 16 -3 29
-11 32 -9 3 -12 14 -8 32 5 25 5 26 -11 6 -16 -19 -16 -19 -13 -1 2 10 -3 21
-9 23 -9 3 -12 -5 -9 -26 2 -23 -1 -31 -13 -31 -14 0 -14 -2 -1 -9 8 -6 18 -8
22 -5 7 5 21 -34 17 -52 -1 -5 -1 -16 0 -24 1 -13 2 -13 11 0 7 11 10 7 10
-17 0 -18 -2 -33 -4 -33 -19 0 -36 16 -36 34 0 16 -2 18 -9 7 -7 -11 -11 -8
-16 10 -9 26 -53 90 -71 101 -6 4 -10 23 -7 43 2 19 0 35 -4 34 -21 -3 -31 3
-36 22 -4 17 -3 19 6 10 22 -22 30 -11 9 12 -12 13 -22 33 -22 45 0 12 -4 22
-8 22 -4 0 -8 20 -8 45 0 44 9 49 20 10 3 -11 4 -5 2 13 -1 17 1 32 6 32 5 0
12 -15 15 -32 l7 -33 6 35 c3 22 0 40 -7 48 -17 17 -17 72 0 73 9 0 9 2 0 6
-9 3 -10 10 -4 21 5 9 7 32 6 49 -2 30 -1 32 24 28 14 -3 20 -2 14 1 -15 7
-17 24 -4 24 5 0 12 -7 15 -16z m-2959 -44 c8 -13 -5 -13 -25 0 -13 8 -13 10
2 10 9 0 20 -4 23 -10z m3550 -32 c14 -6 25 -19 25 -29 0 -21 -5 -24 -47 -33
-26 -6 -34 -4 -44 15 -10 20 -9 25 11 41 26 21 23 21 55 6z m-782 -10 c16 -12
15 -13 -8 -14 -15 -1 -25 3 -25 12 0 17 11 18 33 2z m-2753 -13 c0 -8 -4 -15
-10 -15 -5 0 -7 7 -4 15 4 8 8 15 10 15 2 0 4 -7 4 -15z m860 -15 c0 -30 -8
-37 -25 -21 -16 15 -49 21 -63 12 -12 -7 -11 -14 2 -39 14 -27 14 -31 0 -36
-9 -3 -21 -3 -26 1 -7 3 -8 1 -4 -5 4 -7 3 -12 -1 -12 -5 0 -14 14 -20 31 -10
25 -16 30 -40 27 -19 -2 -29 -10 -31 -23 -6 -33 -19 -38 -41 -16 -12 12 -21
23 -21 26 0 6 66 34 110 45 19 5 58 16 85 24 71 21 75 20 75 -14z m2160 -102
c0 -36 -4 -48 -15 -48 -9 0 -14 9 -13 28 1 15 -1 52 -5 82 l-8 55 20 -35 c12
-21 20 -54 21 -82z m835 103 c3 -5 1 -12 -5 -16 -5 -3 -10 1 -10 9 0 18 6 21
15 7z m-3820 -21 c3 -5 1 -10 -4 -10 -6 0 -11 5 -11 10 0 6 2 10 4 10 3 0 8
-4 11 -10z m285 -4 c0 -3 -4 -8 -10 -11 -5 -3 -10 -1 -10 4 0 6 5 11 10 11 6
0 10 -2 10 -4z m624 -12 c9 -24 7 -28 -9 -14 -17 14 -20 30 -6 30 5 0 12 -7
15 -16z m2486 -56 c0 -18 -17 -7 -29 19 -13 28 -13 28 8 9 12 -11 21 -23 21
-28z m-2519 10 c18 -33 16 -178 -3 -178 -4 0 -23 8 -43 17 -31 15 -37 15 -45
3 -6 -8 -10 -23 -10 -32 0 -9 -4 -19 -10 -23 -11 -7 -102 39 -123 63 -20 22
-47 89 -39 96 14 15 39 2 64 -34 32 -46 72 -75 93 -66 21 8 19 40 -5 61 -27
24 -25 35 5 35 15 0 31 -9 40 -23 16 -25 59 -50 69 -40 13 13 5 52 -19 87 -14
20 -25 41 -25 46 0 19 39 10 51 -12z m2564 -6 c-3 -3 -11 0 -18 7 -9 10 -8 11
6 5 10 -3 15 -9 12 -12z m-2029 -19 c-10 -10 -19 5 -10 18 6 11 8 11 12 0 2
-7 1 -15 -2 -18z m8 -29 c9 -22 -3 -32 -14 -14 -12 19 -12 30 -1 30 5 0 12 -7
15 -16z m1066 5 c-12 -8 -9 -9 13 -5 30 7 71 -9 62 -25 -4 -5 -13 -9 -22 -9
-8 0 -32 -13 -53 -30 -41 -32 -50 -36 -50 -19 0 5 4 8 9 4 5 -3 13 0 16 6 11
17 -1 22 -24 9 -16 -8 -21 -8 -21 1 0 6 -7 8 -16 5 -25 -10 -37 4 -17 20 17
13 17 14 -1 7 -25 -8 -13 13 16 28 17 9 20 9 16 -2 -4 -10 4 -14 26 -15 17 -1
25 1 18 3 -18 7 4 33 27 33 14 0 14 -2 1 -11z m-880 -14 c10 -12 10 -15 -4
-15 -9 0 -16 7 -16 15 0 8 2 15 4 15 2 0 9 -7 16 -15z m1200 -15 c0 -5 -5 -12
-12 -16 -8 -5 -7 -10 3 -18 17 -13 23 -36 9 -36 -5 0 -10 7 -10 15 0 9 -7 18
-15 21 -8 4 -13 10 -10 14 3 5 -3 13 -12 19 -17 10 -17 10 0 11 11 0 15 5 11
11 -4 8 0 8 15 0 11 -7 21 -16 21 -21z m-1160 0 c0 -5 -5 -10 -11 -10 -5 0 -7
5 -4 10 3 6 8 10 11 10 2 0 4 -4 4 -10z m658 -12 c-2 -7 7 -14 19 -16 23 -3
50 -29 40 -38 -3 -3 -19 -6 -36 -6 -19 -1 -31 -6 -31 -15 0 -17 30 -17 30 0 0
6 12 -1 25 -16 19 -21 31 -27 46 -22 17 6 19 9 8 16 -10 6 -4 9 18 9 17 0 35
-5 39 -11 4 -8 0 -9 -15 -4 -15 5 -21 2 -21 -9 0 -11 -9 -16 -26 -16 -19 0
-25 -4 -21 -15 4 -8 1 -17 -5 -21 -7 -4 -8 -3 -4 4 8 13 -3 16 -20 4 -19 -12
-13 -44 8 -39 13 4 18 -1 19 -16 1 -17 2 -18 6 -4 5 21 30 23 30 2 0 -8 -4
-12 -9 -9 -4 3 -8 3 -8 0 0 -2 -3 -12 -7 -21 -5 -15 -1 -16 28 -10 40 8 62 25
34 25 -17 0 -18 2 -5 10 13 8 12 10 -2 10 -20 0 -25 19 -5 21 6 1 1 5 -13 9
l-25 8 28 1 c15 1 27 5 27 11 0 10 102 6 121 -5 7 -5 10 -4 6 2 -3 5 1 10 9
10 8 0 13 -6 10 -13 -3 -7 3 -15 12 -17 12 -3 11 -5 -5 -6 -14 -1 -23 -7 -23
-17 0 -11 -6 -14 -22 -9 -48 14 -53 14 -66 6 -9 -5 -3 -8 17 -9 17 0 38 -6 48
-12 14 -9 9 -10 -27 -6 -25 3 -37 3 -27 0 9 -3 17 -9 17 -13 0 -8 -134 -38
-205 -45 -44 -4 -47 -4 -22 6 28 12 39 32 12 22 -9 -4 -15 0 -15 10 0 10 6 13
15 10 10 -4 15 0 15 11 0 11 -5 15 -15 11 -8 -3 -18 1 -22 8 -5 7 -16 15 -26
19 -10 4 -16 3 -12 -2 3 -5 -7 -11 -22 -13 -26 -3 -28 -6 -25 -48 2 -34 0 -41
-8 -30 -8 11 -10 -1 -6 -47 2 -34 7 -66 10 -72 4 -5 -2 -12 -11 -14 -12 -3 -9
-5 8 -6 22 -1 28 -7 31 -31 3 -20 0 -30 -9 -30 -7 0 -13 8 -13 18 -1 12 -6 8
-16 -12 -13 -23 -13 -30 -3 -37 7 -4 17 -5 21 -3 7 4 13 -53 9 -78 0 -5 12 -8
29 -8 23 0 30 -4 30 -20 0 -11 5 -20 11 -20 5 0 8 4 5 9 -8 12 3 41 15 41 5 0
8 -5 7 -12 -2 -7 7 -13 20 -14 12 -1 22 3 22 7 0 5 -6 9 -14 9 -8 0 -18 9 -21
21 -5 15 -10 18 -18 10 -6 -6 -14 -11 -17 -11 -11 0 3 96 16 111 11 12 11 18
1 28 -18 18 10 32 56 27 39 -3 48 9 20 29 -15 11 -12 15 27 35 24 12 62 23 84
24 29 2 42 7 44 19 2 11 14 17 35 18 30 1 31 1 7 8 -14 4 -37 4 -52 0 -21 -6
-28 -4 -28 6 0 10 12 13 50 9 30 -3 50 0 50 6 0 21 20 9 26 -15 5 -19 9 -23
19 -15 7 6 11 19 8 29 -6 24 37 57 49 38 4 -6 8 -21 8 -32 -1 -20 -1 -20 -15
-1 -15 19 -15 19 -15 -2 0 -18 6 -22 33 -23 69 -2 104 -15 112 -40 4 -10 10
-19 15 -19 4 0 4 -17 -1 -37 -9 -40 -11 -87 -3 -66 3 7 11 10 18 7 7 -3 18 7
24 22 10 21 15 24 27 14 18 -15 20 -34 3 -24 -7 4 -8 3 -4 -4 4 -6 13 -9 22
-5 18 7 9 42 -15 60 -22 17 -31 16 -32 -4 0 -10 -8 0 -18 22 -10 22 -17 59
-15 83 1 32 -3 46 -17 56 -10 7 -16 16 -11 21 4 4 -2 5 -13 0 -11 -4 -29 -9
-40 -11 -16 -4 -16 -3 3 5 25 12 30 31 7 31 -17 0 -20 16 -5 25 8 5 62 -25 80
-45 3 -3 13 -9 23 -15 10 -5 28 -32 40 -60 21 -50 64 -98 79 -89 4 3 11 -2 15
-11 3 -10 1 -20 -4 -24 -6 -3 -14 -30 -18 -60 -5 -36 -10 -49 -16 -40 -6 10
-9 4 -9 -17 0 -18 -6 -34 -12 -37 -9 -3 -13 9 -13 45 0 41 -2 46 -12 33 -6
-10 -9 -23 -7 -30 6 -16 -12 -29 -21 -15 -3 5 -12 10 -18 10 -8 0 -9 -2 -1 -8
20 -13 32 -47 27 -77 -8 -52 -12 -58 -27 -46 -16 13 -26 5 -26 -23 -1 -21 -1
-21 -12 -1 -12 19 -12 19 -18 -5 -4 -18 -1 -29 12 -38 21 -15 38 -8 39 16 0
11 3 12 6 5 2 -7 10 -13 18 -13 23 0 27 -59 6 -87 l-20 -24 -20 20 c-12 12
-21 25 -21 30 0 5 -12 23 -26 40 -14 17 -27 38 -28 48 -2 9 -12 20 -24 24 -26
10 -28 1 -4 -18 9 -8 11 -12 5 -8 -7 3 -13 2 -13 -3 0 -6 7 -12 15 -16 8 -3
15 -13 15 -23 0 -14 -6 -11 -25 12 -13 17 -24 36 -25 43 0 6 -9 12 -20 12 -14
0 -18 -5 -13 -17 4 -10 11 -21 16 -24 5 -4 -7 -22 -27 -41 -23 -23 -36 -44
-36 -62 0 -14 -5 -26 -11 -26 -6 0 -4 -7 4 -15 16 -15 12 -59 -4 -49 -5 3 -9
-2 -9 -11 0 -11 -5 -15 -15 -11 -8 3 -26 1 -39 -5 -21 -10 -28 -7 -55 22 -17
19 -33 48 -37 66 l-6 32 -24 -27 c-13 -15 -24 -22 -24 -15 0 6 5 15 10 18 12
7 14 55 2 55 -4 0 -13 -5 -20 -12 -9 -9 -12 -4 -12 23 0 18 -5 41 -10 49 -8
12 -10 11 -10 -7 0 -12 -4 -25 -10 -28 -5 -3 -10 1 -10 9 0 10 -9 16 -25 16
-16 0 -25 -6 -25 -15 0 -8 -7 -15 -15 -15 -8 0 -15 5 -15 10 0 6 -5 10 -11 10
-6 0 -8 -9 -4 -20 6 -18 3 -19 -27 -13 -18 4 -43 7 -55 8 -11 0 -19 3 -16 8 2
4 -8 7 -24 7 -15 0 -37 7 -47 15 -27 20 -36 19 -36 -6 0 -20 0 -20 -32 2 -55
38 -116 103 -123 129 -6 23 -5 22 13 -5 21 -34 63 -65 86 -65 9 0 13 -6 10
-14 -3 -8 3 -19 15 -26 16 -8 22 -8 26 2 9 29 9 44 -4 66 -20 36 -8 35 33 -3
21 -19 42 -35 46 -35 5 0 10 -6 13 -12 3 -10 7 -10 20 1 18 15 23 56 7 66 -6
3 -6 15 0 29 7 21 6 23 -11 19 -10 -3 -19 0 -19 6 0 6 -9 11 -20 11 -15 0 -20
7 -20 28 0 16 7 37 15 48 8 10 14 26 15 34 0 12 -2 12 -9 2 -6 -10 -10 -6 -14
15 -5 29 2 48 10 26 7 -21 22 -15 16 6 -3 10 0 22 6 25 7 5 7 13 -1 26 -9 14
-9 42 -1 114 14 118 41 172 98 201 22 11 42 23 43 28 6 12 22 8 20 -5z m308
-10 c43 -34 54 -45 55 -60 0 -11 2 -11 6 0 8 20 73 -47 72 -72 -1 -21 -1 -21
-6 -1 -6 25 -22 45 -35 45 -6 0 -5 -8 2 -17 7 -10 -13 8 -44 40 -47 49 -60 56
-72 46 -12 -10 -13 -9 -8 6 6 15 3 16 -17 10 -21 -7 -22 -6 -10 9 18 21 23 20
57 -6z m1374 -100 c0 -23 -4 -23 -40 4 -29 21 -38 47 -23 61 10 11 63 -44 63
-65z m-2419 -9 c14 -27 58 -153 55 -157 -4 -3 -53 82 -85 145 -9 18 -22 32
-28 33 -7 0 -13 7 -13 16 0 13 4 13 31 -3 17 -10 35 -25 40 -34z m1516 15 c-9
-10 -38 16 -31 28 4 6 13 4 22 -6 9 -8 13 -19 9 -22z m1013 -26 c0 -19 -2 -20
-10 -8 -13 19 -13 30 0 30 6 0 10 -10 10 -22z m-2746 -46 c12 -23 12 -29 -1
-41 -13 -12 -14 -11 -9 6 3 10 0 28 -9 39 -8 10 -15 23 -15 27 0 15 20 -4 34
-31z m616 18 c0 -5 -2 -10 -4 -10 -3 0 -8 5 -11 10 -3 6 -1 10 4 10 6 0 11 -4
11 -10z m743 1 c14 -2 7 -39 -9 -45 -31 -12 -56 -7 -50 10 3 9 6 21 6 28 0 11
16 14 53 7z m1892 -44 c10 -17 22 -44 26 -60 5 -23 4 -25 -7 -16 -8 6 -14 18
-14 25 0 8 -5 14 -11 14 -5 0 -7 5 -4 10 3 6 1 10 -5 10 -7 0 -10 7 -6 15 3 8
1 15 -4 15 -6 0 -10 -5 -10 -12 0 -6 -2 -9 -5 -6 -7 6 5 38 14 38 3 0 15 -15
26 -33z m-1850 13 c3 -6 -1 -7 -9 -4 -18 7 -21 14 -7 14 6 0 13 -4 16 -10z
m-117 -71 c-3 -8 -7 -3 -11 10 -4 17 -3 21 5 13 5 -5 8 -16 6 -23z m180 13 c2
-7 -2 -10 -12 -6 -9 3 -16 11 -16 16 0 13 23 5 28 -10z m-358 -47 c0 -10 -71
-37 -85 -31 -10 3 -15 -1 -15 -12 0 -10 -3 -13 -8 -6 -4 6 -16 14 -26 17 -27
10 -19 14 44 22 30 4 57 9 59 11 6 5 31 5 31 -1z m1568 -2 c-10 -2 -26 -2 -35
0 -10 3 -2 5 17 5 19 0 27 -2 18 -5z m-1763 -23 c4 -6 -5 -10 -20 -10 -15 0
-24 4 -20 10 3 6 12 10 20 10 8 0 17 -4 20 -10z m1361 -1 c3 -6 20 -20 38 -31
l31 -20 -30 7 c-31 7 -65 31 -65 47 0 12 18 10 26 -3z m-1826 -59 c0 -5 -2
-10 -4 -10 -3 0 -8 5 -11 10 -3 6 -1 10 4 10 6 0 11 -4 11 -10z m522 -2 c6 6
19 12 28 11 8 0 4 -5 -10 -11 l-25 -11 25 -7 c18 -6 20 -8 7 -9 -25 -1 -57 17
-57 32 0 7 4 6 10 -3 7 -12 12 -12 22 -2z m1285 -14 c2 -7 -6 -11 -20 -10 -16
0 -23 6 -19 14 5 15 34 12 39 -4z m-3077 -40 c0 -8 -5 -12 -10 -9 -6 4 -8 11
-5 16 9 14 15 11 15 -7z m649 -58 c-9 -8 -10 -7 -5 7 3 10 7 31 8 45 1 22 2
21 5 -7 3 -19 -1 -38 -8 -45z m2032 46 c-7 -2 -18 1 -23 6 -8 8 -4 9 13 5 13
-4 18 -8 10 -11z m-1173 -28 c12 -8 22 -12 23 -7 1 4 4 -3 8 -17 5 -14 3 -31
-2 -38 -7 -9 -6 -17 1 -24 17 -17 16 -44 0 -30 -26 21 -98 18 -98 -3 0 -8 -4
-15 -9 -15 -16 0 -18 24 -4 39 8 8 11 17 6 20 -5 3 -10 23 -11 45 -2 31 0 37
13 32 20 -8 42 -14 32 -9 -8 5 0 23 11 23 4 0 18 -7 30 -16z m-372 -8 c11 -11
11 -16 1 -19 -6 -3 -3 -6 7 -6 11 -1 17 -4 13 -7 -3 -4 0 -13 8 -21 20 -19 20
-39 0 -23 -15 13 -39 5 -30 -11 4 -5 2 -9 -4 -9 -5 0 -13 5 -16 10 -3 6 -2 10
4 10 9 0 7 33 -5 73 -6 21 2 22 22 3z m-1390 -22 c-3 -9 -6 -21 -6 -27 -1 -12
-30 21 -30 33 0 3 9 6 21 7 15 1 19 -2 15 -13z m4148 -38 c21 -20 42 -36 46
-36 4 0 13 -6 19 -14 10 -11 9 -21 -3 -45 -24 -46 -20 -57 37 -91 52 -32 147
-117 147 -132 0 -14 -26 -8 -46 10 -84 78 -178 109 -244 82 -17 -7 -33 -10
-36 -7 -11 11 -7 134 6 169 10 28 11 45 3 72 -18 58 1 56 71 -8z m-3224 13 c0
-5 15 -13 33 -18 l32 -9 -41 -1 c-30 -1 -44 4 -48 15 -10 25 -7 34 9 28 8 -4
15 -10 15 -15z m3834 -5 c5 -14 4 -15 -9 -4 -17 14 -19 20 -6 20 5 0 12 -7 15
-16z m-1647 -46 c-3 -7 -5 -2 -5 12 0 14 2 19 5 13 2 -7 2 -19 0 -25z m-1117
-8 c0 -5 -8 -10 -17 -10 -15 0 -16 2 -3 10 19 12 20 12 20 0z m690 0 c0 -5 -4
-10 -10 -10 -5 0 -10 5 -10 10 0 6 5 10 10 10 6 0 10 -4 10 -10z m510 -6 c0
-2 -7 -4 -15 -4 -8 0 -15 4 -15 10 0 5 7 7 15 4 8 -4 15 -8 15 -10z m-2795
-14 c3 -5 1 -10 -4 -10 -6 0 -11 5 -11 10 0 6 2 10 4 10 3 0 8 -4 11 -10z
m985 6 c0 -3 -4 -8 -10 -11 -5 -3 -10 -1 -10 4 0 6 5 11 10 11 6 0 10 -2 10
-4z m3113 -48 c-13 -26 -18 -29 -21 -15 -5 26 5 47 23 47 14 0 13 -4 -2 -32z
m-3533 2 c0 -6 -7 -13 -15 -16 -12 -5 -12 -9 2 -30 15 -24 9 -29 -21 -18 -20
8 -21 38 0 58 18 18 34 21 34 6z m-811 -92 c6 -1 13 -18 17 -35 5 -26 3 -33
-10 -33 -10 0 -16 -9 -16 -22 -1 -34 -59 80 -60 115 l0 29 30 -25 c16 -14 34
-27 39 -29z m4346 2 c3 -5 1 -10 -4 -10 -6 0 -11 5 -11 10 0 6 2 10 4 10 3 0
8 -4 11 -10z m106 -58 c51 -33 99 -91 99 -121 0 -12 5 -21 11 -21 5 0 7 -4 4
-10 -3 -5 -2 -10 3 -10 5 0 10 -23 11 -51 1 -28 6 -59 11 -69 13 -24 13 -70 0
-70 -5 0 -11 8 -11 18 -7 100 -15 119 -64 148 -41 23 -89 84 -67 84 4 0 8 16
8 36 0 31 -6 41 -40 65 -51 37 -24 38 35 1z m-2481 -10 c0 -13 -12 -22 -22
-16 -10 6 -1 24 13 24 5 0 9 -4 9 -8z m-1600 -42 c0 -5 -2 -10 -4 -10 -3 0 -8
5 -11 10 -3 6 -1 10 4 10 6 0 11 -4 11 -10z m64 -31 c-3 -5 9 -12 26 -16 18
-3 34 -12 37 -19 3 -8 8 -12 13 -9 4 2 13 -7 20 -20 7 -14 21 -25 31 -25 34 0
155 -65 192 -103 39 -42 46 -64 23 -73 -15 -6 -10 -43 8 -59 24 -21 54 -71 61
-102 6 -31 5 -33 -22 -33 -60 1 -115 39 -242 169 -69 71 -133 132 -141 137 -8
5 -27 27 -41 49 -14 22 -34 53 -45 70 -17 26 -17 28 -2 22 13 -5 19 0 24 18 5
21 9 22 35 13 16 -5 26 -14 23 -19z m1126 21 c0 -5 -4 -10 -10 -10 -5 0 -10 5
-10 10 0 6 5 10 10 10 6 0 10 -4 10 -10z m2635 -30 c3 -5 1 -10 -4 -10 -6 0
-11 5 -11 10 0 6 2 10 4 10 3 0 8 -4 11 -10z m-3581 -16 c19 -19 21 -34 4 -34
-23 0 -41 18 -35 34 8 20 12 20 31 0z m3477 -6 l34 -12 -30 -7 c-28 -8 -55 3
-55 22 0 12 10 11 51 -3z m209 -8 c0 -5 -7 -10 -16 -10 -8 0 -12 5 -9 10 3 6
10 10 16 10 5 0 9 -4 9 -10z m-76 -55 c-4 -8 -18 -15 -33 -15 -25 1 -25 1 -7
15 26 19 47 19 40 0z m96 -31 c0 -3 -6 -12 -14 -19 -17 -17 -30 -7 -15 12 12
13 29 18 29 7z m184 -77 c15 -21 30 -36 32 -34 3 3 17 -8 32 -22 19 -20 27
-38 27 -64 l0 -36 -36 37 c-47 47 -99 130 -99 156 0 22 2 20 44 -37z m-2841
-7 l6 -35 -14 30 c-7 17 -11 34 -8 38 7 12 9 7 16 -33z m-1443 -160 c0 -11 -4
-20 -9 -20 -5 0 -7 9 -4 20 3 11 7 20 9 20 2 0 4 -9 4 -20z m4276 -22 c4 -6 3
-8 -4 -4 -6 3 -18 -1 -26 -10 -14 -13 -16 -13 -16 0 0 8 8 17 18 19 9 3 18 5
19 6 1 0 5 -4 9 -11z m-3386 -239 c0 -5 5 -9 10 -9 25 0 73 -53 77 -84 3 -24
2 -25 -27 -15 -16 6 -50 31 -75 57 -46 46 -57 66 -30 56 8 -4 15 -1 15 5 0 6
7 8 15 5 8 -4 15 -10 15 -15z m2714 -75 c5 -14 4 -15 -9 -4 -17 14 -19 20 -6
20 5 0 12 -7 15 -16z m-24 -133 c-28 -24 -48 -35 -52 -28 -9 15 -1 25 36 48
53 33 63 21 16 -20z m-2070 -271 c0 -5 -2 -10 -4 -10 -3 0 -8 5 -11 10 -3 6
-1 10 4 10 6 0 11 -4 11 -10z m58 -201 c3 -8 1 -11 -3 -7 -4 4 -23 1 -41 -7
-25 -10 -34 -11 -34 -2 0 7 -5 4 -11 -5 -5 -10 -18 -18 -27 -18 -16 1 -16 1 1
11 9 6 15 15 11 21 -4 6 -10 5 -15 -3 -7 -12 -9 -12 -9 0 0 8 7 22 15 31 13
15 21 15 62 5 26 -7 49 -18 51 -26z m635 -16 c-45 -23 -56 -13 -26 23 15 19
18 20 34 6 17 -15 16 -16 -8 -29z m115 33 c-20 -6 -39 -14 -43 -18 -4 -4 -14
-4 -22 -1 -21 8 32 31 72 31 30 0 29 0 -7 -12z m-348 -55 c0 -5 8 -12 18 -14
13 -4 11 -5 -5 -6 -13 0 -23 -5 -23 -11 0 -5 -7 -10 -16 -10 -8 0 -12 5 -9 10
3 6 1 10 -4 10 -6 0 -11 7 -11 15 0 9 9 15 25 15 14 0 25 -4 25 -9z m575 -20
c-3 -6 -20 -17 -38 -25 l-32 -16 28 25 c28 24 54 34 42 16z m-697 -87 c-16
-15 -91 -44 -133 -50 -20 -3 -11 4 30 22 33 14 69 32 79 40 24 16 43 7 24 -12z
m-63 -74 c-3 -5 -11 -10 -16 -10 -6 0 -7 5 -4 10 3 6 11 10 16 10 6 0 7 -4 4
-10z m-1231 -70 c-7 -6 -24 22 -23 40 0 9 6 5 14 -10 7 -14 11 -27 9 -30z"/>
<path d="M8297 5460 c3 -19 1 -30 -5 -30 -21 0 0 -35 57 -99 13 -14 37 -45 54
-68 17 -24 34 -43 39 -43 5 0 6 -10 3 -21 -6 -19 -4 -21 14 -16 11 3 21 1 21
-4 0 -5 12 -9 28 -9 24 1 25 2 10 14 -10 7 -18 21 -18 30 0 9 -6 16 -12 16
-15 0 -58 60 -58 79 0 6 -16 29 -36 49 -19 20 -47 58 -62 84 -31 55 -44 62
-35 18z"/>
<path d="M7328 5473 c7 -3 16 -2 19 1 4 3 -2 6 -13 5 -11 0 -14 -3 -6 -6z"/>
<path d="M8470 5410 c0 -5 5 -10 11 -10 5 0 7 5 4 10 -3 6 -8 10 -11 10 -2 0
-4 -4 -4 -10z"/>
<path d="M7270 5251 c0 -6 5 -13 10 -16 6 -3 10 1 10 9 0 9 -4 16 -10 16 -5 0
-10 -4 -10 -9z"/>
<path d="M7508 5203 c7 -3 16 -2 19 1 4 3 -2 6 -13 5 -11 0 -14 -3 -6 -6z"/>
<path d="M7855 5190 c3 -5 11 -10 16 -10 6 0 7 5 4 10 -3 6 -11 10 -16 10 -6
0 -7 -4 -4 -10z"/>
<path d="M8048 5103 c7 -3 16 -2 19 1 4 3 -2 6 -13 5 -11 0 -14 -3 -6 -6z"/>
<path d="M8113 5093 c32 -4 36 -7 26 -19 -16 -19 -10 -23 48 -33 73 -11 95 0
44 22 -23 10 -45 16 -50 13 -5 -3 -14 1 -21 9 -7 9 -27 14 -49 13 l-36 -1 38
-4z"/>
<path d="M7375 5059 c-9 -14 -7 -15 48 -22 56 -8 63 8 10 22 -47 13 -50 13
-58 0z"/>
<path d="M7550 5061 c0 -5 14 -14 30 -20 17 -5 44 -20 60 -31 32 -23 42 -13
13 11 -17 14 -88 49 -98 49 -3 0 -5 -4 -5 -9z"/>
<path d="M8550 5061 c25 -14 70 -22 70 -12 0 12 -26 21 -58 21 -20 -1 -23 -3
-12 -9z"/>
<path d="M7350 5000 c0 -5 5 -10 10 -10 6 0 10 5 10 10 0 6 -4 10 -10 10 -5 0
-10 -4 -10 -10z"/>
<path d="M7470 4980 c0 -5 7 -10 15 -10 8 0 15 5 15 10 0 6 -7 10 -15 10 -8 0
-15 -4 -15 -10z"/>
<path d="M7603 4964 c-13 -13 12 -41 54 -63 33 -17 49 -13 26 7 -11 9 -18 22
-16 29 2 6 -9 17 -25 25 -22 11 -31 12 -39 2z"/>
<path d="M7760 4904 c0 -8 32 -33 43 -34 5 0 5 4 2 10 -8 13 -45 33 -45 24z"/>
<path d="M7830 4816 c0 -3 9 -10 20 -16 11 -6 20 -8 20 -6 0 3 -9 10 -20 16
-11 6 -20 8 -20 6z"/>
<path d="M7950 4810 c0 -5 5 -10 11 -10 5 0 7 5 4 10 -3 6 -8 10 -11 10 -2 0
-4 -4 -4 -10z"/>
<path d="M7667 4763 c-10 -10 -8 -43 2 -43 9 0 21 24 21 41 0 11 -14 12 -23 2z"/>
<path d="M7900 4765 c0 -7 73 -55 84 -55 5 0 -8 13 -30 30 -37 28 -54 36 -54
25z"/>
<path d="M7780 4681 c0 -10 66 -41 88 -41 15 0 15 -2 2 -11 -12 -8 -12 -10 5
-8 11 1 32 -4 48 -11 21 -10 30 -11 39 -2 8 8 7 13 -8 18 -10 4 -41 16 -69 27
-71 28 -105 37 -105 28z"/>
<path d="M7720 4656 c0 -9 5 -16 10 -16 6 0 10 4 10 9 0 6 -4 13 -10 16 -5 3
-10 -1 -10 -9z"/>
<path d="M7760 4640 c8 -5 20 -10 25 -10 6 0 3 5 -5 10 -8 5 -19 10 -25 10 -5
0 -3 -5 5 -10z"/>
<path d="M8087 4580 c36 -48 53 -61 53 -40 0 13 -70 90 -81 90 -5 0 7 -22 28
-50z"/>
<path d="M6780 4530 c0 -5 5 -10 10 -10 6 0 10 5 10 10 0 6 -4 10 -10 10 -5 0
-10 -4 -10 -10z"/>
<path d="M8450 4404 c-17 -40 -20 -58 -12 -66 8 -8 12 -8 15 3 2 8 10 30 16
49 22 61 24 70 13 70 -5 0 -20 -25 -32 -56z"/>
<path d="M7888 4443 c7 -3 16 -2 19 1 4 3 -2 6 -13 5 -11 0 -14 -3 -6 -6z"/>
<path d="M6822 4409 c2 -7 10 -15 17 -17 8 -3 12 1 9 9 -2 7 -10 15 -17 17 -8
3 -12 -1 -9 -9z"/>
<path d="M6781 4391 c-8 -5 -9 -11 -3 -15 5 -3 12 1 16 9 6 17 6 18 -13 6z"/>
<path d="M6840 4380 c-13 -8 -13 -11 -1 -19 7 -5 10 -14 7 -20 -4 -6 -2 -11 4
-11 7 0 10 -6 7 -14 -7 -17 11 -36 33 -36 12 1 11 4 -5 16 l-20 15 20 15 c18
14 19 16 3 25 -10 5 -15 16 -12 24 7 17 -13 20 -36 5z"/>
<path d="M7868 4373 c-10 -2 -18 -9 -18 -14 0 -6 -5 -7 -12 -3 -6 4 -8 3 -4
-4 3 -6 -3 -27 -14 -48 -26 -45 -18 -57 15 -22 13 14 21 29 18 32 -4 3 -1 6 5
6 7 0 12 5 12 12 0 6 7 20 17 30 16 18 13 20 -19 11z"/>
<path d="M6816 4337 c3 -10 9 -15 12 -12 3 3 0 11 -7 18 -10 9 -11 8 -5 -6z"/>
<path d="M7798 4233 c6 -2 18 -2 25 0 6 3 1 5 -13 5 -14 0 -19 -2 -12 -5z"/>
<path d="M6096 4206 c3 -8 13 -17 22 -21 13 -5 13 -2 -3 15 -21 24 -26 25 -19
6z"/>
<path d="M6490 4199 c0 -5 5 -7 10 -4 6 3 10 8 10 11 0 2 -4 4 -10 4 -5 0 -10
-5 -10 -11z"/>
<path d="M6520 4191 c0 -5 38 -19 85 -32 84 -23 94 -38 25 -40 -19 0 -44 -5
-55 -10 -26 -12 151 -1 220 13 l50 11 -35 13 c-19 7 -58 13 -87 13 -28 1 -80
10 -115 21 -70 22 -88 24 -88 11z"/>
<path d="M5843 4130 c0 -16 4 -30 9 -30 4 0 8 14 8 30 0 17 -4 30 -8 30 -5 0
-9 -13 -9 -30z"/>
<path d="M8326 4145 c4 -8 8 -15 10 -15 2 0 4 7 4 15 0 8 -4 15 -10 15 -5 0
-7 -7 -4 -15z"/>
<path d="M8436 4104 c-8 -22 -4 -25 11 -9 7 8 9 16 4 19 -5 3 -12 -1 -15 -10z"/>
<path d="M6965 4070 c-4 -6 3 -10 14 -10 25 0 27 6 6 13 -8 4 -17 2 -20 -3z"/>
<path d="M6643 4063 c-13 -2 -23 -11 -23 -19 0 -12 13 -14 63 -12 47 2 62 7
62 18 0 16 -56 23 -102 13z"/>
<path d="M7135 4060 c-3 -5 1 -10 9 -10 9 0 16 5 16 10 0 6 -4 10 -9 10 -6 0
-13 -4 -16 -10z"/>
<path d="M6780 4050 c-13 -8 -12 -10 3 -10 9 0 17 5 17 10 0 12 -1 12 -20 0z"/>
<path d="M6530 4043 c0 -5 5 -15 10 -23 7 -12 12 -12 22 -2 6 6 20 12 30 12
10 0 18 5 18 10 0 18 -48 11 -53 -7 -4 -17 -5 -17 -6 0 -1 16 -21 26 -21 10z"/>
<path d="M7075 4034 c-20 -15 -20 -16 4 -12 14 2 26 9 29 16 5 16 -9 15 -33
-4z"/>
<path d="M8204 4035 c3 -9 6 -19 6 -21 0 -2 7 -4 15 -4 21 0 19 13 -6 29 -19
11 -21 11 -15 -4z"/>
<path d="M6438 4003 c7 -3 16 -2 19 1 4 3 -2 6 -13 5 -11 0 -14 -3 -6 -6z"/>
<path d="M6949 3995 c-8 -7 -153 -35 -209 -40 -94 -9 -134 -16 -145 -25 -7 -5
-33 -11 -58 -11 -28 -2 -47 -7 -47 -14 0 -7 28 -12 82 -14 44 -1 84 -2 87 -3
25 -2 51 4 47 11 -8 12 37 28 124 42 41 7 79 19 83 26 5 7 12 11 18 8 5 -3 16
-2 25 3 10 5 12 12 7 15 -6 4 -12 5 -14 2z"/>
<path d="M7065 3950 c-22 -4 -61 -16 -87 -26 -45 -18 -47 -21 -30 -35 10 -8
24 -13 31 -11 8 3 18 -3 23 -12 12 -22 77 -13 126 18 20 12 42 21 48 19 12 -4
26 35 18 49 -6 9 -72 9 -129 -2z"/>
<path d="M8230 3950 c0 -5 5 -10 10 -10 6 0 10 5 10 10 0 6 -4 10 -10 10 -5 0
-10 -4 -10 -10z"/>
<path d="M6375 3920 c3 -5 21 -10 38 -10 24 0 28 3 17 10 -20 13 -63 13 -55 0z"/>
<path d="M6450 3910 c0 -5 5 -10 11 -10 5 0 7 5 4 10 -3 6 -8 10 -11 10 -2 0
-4 -4 -4 -10z"/>
<path d="M5860 3898 c0 -39 32 -204 42 -213 8 -7 9 -5 5 7 -3 10 -11 57 -18
105 -11 83 -28 143 -29 101z"/>
<path d="M7160 3660 c0 -13 11 -13 30 0 12 8 11 10 -7 10 -13 0 -23 -4 -23
-10z"/>
<path d="M7646 3618 c3 -4 12 -8 20 -8 8 0 14 4 14 8 0 4 -9 8 -19 8 -11 0
-17 -4 -15 -8z"/>
<path d="M6595 7250 c3 -5 14 -10 23 -10 15 0 15 2 2 10 -20 13 -33 13 -25 0z"/>
<path d="M6950 7010 c0 -5 5 -10 11 -10 5 0 7 5 4 10 -3 6 -8 10 -11 10 -2 0
-4 -4 -4 -10z"/>
<path d="M5500 7132 c0 -4 28 -23 62 -40 35 -19 56 -26 48 -17 -17 20 -110 69
-110 57z"/>
<path d="M5450 7115 c-25 -30 0 -76 55 -104 27 -13 45 -26 38 -28 -6 -2 -26 3
-43 12 -23 12 -31 13 -28 4 10 -29 102 -32 120 -5 4 6 8 23 8 38 0 23 -7 31
-50 49 -27 12 -55 27 -61 35 -15 18 -24 18 -39 -1z"/>
<path d="M5190 7033 c0 -5 5 -15 10 -23 8 -12 10 -11 10 8 0 12 -4 22 -10 22
-5 0 -10 -3 -10 -7z"/>
<path d="M5265 6870 c3 -5 8 -10 11 -10 2 0 4 5 4 10 0 6 -5 10 -11 10 -5 0
-7 -4 -4 -10z"/>
<path d="M5308 6853 c7 -3 16 -2 19 1 4 3 -2 6 -13 5 -11 0 -14 -3 -6 -6z"/>
<path d="M5515 6749 c-11 -16 -1 -19 13 -3 7 8 8 14 3 14 -5 0 -13 -5 -16 -11z"/>
<path d="M4570 6507 c0 -15 27 -43 34 -36 3 2 -4 15 -15 28 -13 16 -19 18 -19
8z"/>
<path d="M4415 5771 c-3 -5 -1 -12 5 -16 5 -3 10 1 10 9 0 18 -6 21 -15 7z"/>
<path d="M6730 7010 c0 -5 5 -10 11 -10 5 0 7 5 4 10 -3 6 -8 10 -11 10 -2 0
-4 -4 -4 -10z"/>
<path d="M6350 6960 c0 -5 5 -10 11 -10 5 0 7 5 4 10 -3 6 -8 10 -11 10 -2 0
-4 -4 -4 -10z"/>
<path d="M6300 6554 c-75 -15 -110 -37 -110 -71 0 -9 7 -13 18 -11 9 2 16 10
14 16 -1 8 6 10 23 6 19 -5 25 -2 25 9 0 11 13 18 38 22 20 4 49 9 64 11 14 3
29 1 32 -5 4 -6 13 -8 21 -5 8 3 20 2 27 -2 32 -20 144 -52 152 -43 6 5 3 14
-10 23 -19 15 -95 39 -120 39 -8 0 -14 4 -14 8 0 4 -10 7 -22 7 -13 0 -32 2
-43 5 -11 3 -54 -1 -95 -9z"/>
<path d="M5646 6541 c-3 -4 6 -6 19 -3 14 2 25 6 25 8 0 8 -39 4 -44 -5z"/>
<path d="M5610 6500 c-13 -8 -13 -10 2 -10 9 0 20 5 23 10 8 13 -5 13 -25 0z"/>
<path d="M5674 6456 c-10 -8 -19 -20 -19 -28 0 -7 -11 -13 -25 -13 -14 0 -31
-6 -39 -13 -7 -7 -22 -10 -33 -6 -14 4 -18 2 -14 -5 4 -6 1 -11 -8 -11 -8 0
-16 5 -18 12 -5 14 -28 2 -28 -14 0 -6 3 -8 7 -5 3 4 12 2 19 -4 8 -7 19 -7
31 -1 10 5 27 6 38 1 29 -11 35 -11 35 4 0 7 13 21 30 30 28 17 56 54 48 63
-3 2 -13 -3 -24 -10z"/>
<path d="M5445 6315 c-33 -17 -65 -43 -72 -57 -7 -13 -23 -36 -35 -49 -13 -14
-24 -33 -26 -43 -2 -9 -12 -32 -23 -51 -14 -23 -17 -35 -9 -35 15 0 47 35 55
61 4 11 11 17 16 14 5 -4 9 3 9 13 0 11 7 25 15 32 8 7 15 19 15 27 0 9 6 13
14 10 9 -4 13 -1 11 6 -3 7 20 30 50 51 30 21 52 43 49 48 -3 4 -6 7 -7 7 -1
-1 -29 -16 -62 -34z"/>
<path d="M6321 6229 c-13 -10 -19 -19 -13 -19 6 0 19 -3 29 -7 15 -6 16 -4 5
9 -10 13 -10 17 0 21 7 2 11 7 8 10 -3 3 -16 -3 -29 -14z"/>
<path d="M6397 6227 c-3 -7 3 -13 14 -13 10 0 21 6 23 13 3 8 -2 13 -13 13
-10 0 -21 -6 -24 -13z"/>
<path d="M6452 6228 c3 -7 15 -14 29 -15 15 -1 17 0 6 3 -9 3 -15 10 -12 15 4
5 -1 9 -10 9 -9 0 -15 -6 -13 -12z"/>
<path d="M6878 6233 c7 -3 16 -2 19 1 4 3 -2 6 -13 5 -11 0 -14 -3 -6 -6z"/>
<path d="M6150 6220 c0 -5 5 -10 11 -10 5 0 7 5 4 10 -3 6 -8 10 -11 10 -2 0
-4 -4 -4 -10z"/>
<path d="M6520 6206 c0 -9 5 -16 10 -16 6 0 10 4 10 9 0 6 -4 13 -10 16 -5 3
-10 -1 -10 -9z"/>
<path d="M5758 6193 c7 -3 16 -2 19 1 4 3 -2 6 -13 5 -11 0 -14 -3 -6 -6z"/>
<path d="M6083 6099 c-2 -25 31 -43 55 -29 13 8 13 10 2 9 -8 -1 -22 -1 -30 0
-12 1 -13 3 -1 10 11 7 10 11 -6 19 -15 9 -19 7 -20 -9z"/>
<path d="M5235 6090 c-3 -5 -1 -10 4 -10 6 0 11 5 11 10 0 6 -2 10 -4 10 -3 0
-8 -4 -11 -10z"/>
<path d="M5940 6083 c-20 -4 -15 -8 29 -19 30 -8 65 -26 79 -39 14 -14 34 -25
45 -25 20 0 20 0 1 22 -56 65 -82 75 -154 61z"/>
<path d="M5845 6069 c-89 -30 -116 -42 -125 -59 -7 -14 -6 -18 5 -16 8 1 21 8
27 14 7 7 20 12 30 12 10 0 18 4 18 9 0 5 15 12 33 15 37 7 84 36 57 35 -8 0
-28 -5 -45 -10z"/>
<path d="M5275 6042 c-6 -4 -16 -19 -24 -34 -8 -16 -20 -28 -28 -28 -7 0 -13
-9 -13 -21 0 -13 -4 -18 -12 -13 -8 5 -9 2 -3 -12 5 -10 10 -48 12 -82 2 -35
10 -73 18 -85 8 -12 15 -17 16 -12 0 6 4 1 8 -10 5 -13 3 -24 -7 -31 -10 -7
-12 -18 -6 -35 l8 -24 7 25 c6 22 7 21 8 -10 1 -33 19 -77 22 -55 6 43 7 93 2
105 -11 26 -12 243 -2 284 11 40 9 49 -6 38z"/>
<path d="M5212 6009 c-7 -10 -8 -19 -3 -19 13 0 33 28 23 33 -4 3 -13 -3 -20
-14z"/>
<path d="M5610 5849 c0 -5 5 -7 10 -4 6 3 10 8 10 11 0 2 -4 4 -10 4 -5 0 -10
-5 -10 -11z"/>
<path d="M5786 5683 c-6 -14 -5 -15 5 -6 7 7 10 15 7 18 -3 3 -9 -2 -12 -12z"/>
<path d="M5717 5660 c-3 -13 0 -20 9 -20 8 0 14 9 14 20 0 11 -4 20 -9 20 -5
0 -11 -9 -14 -20z"/>
<path d="M5757 5663 c-10 -9 -8 -45 2 -62 6 -10 9 -1 8 27 -1 23 -2 42 -3 42
0 0 -4 -3 -7 -7z"/>
<path d="M5645 5650 c-3 -5 -1 -10 4 -10 6 0 11 5 11 10 0 6 -2 10 -4 10 -3 0
-8 -4 -11 -10z"/>
<path d="M5820 5630 c-12 -7 -10 -9 7 -7 12 0 19 5 17 9 -6 10 -6 10 -24 -2z"/>
<path d="M5725 5620 c-3 -5 -1 -10 4 -10 6 0 11 5 11 10 0 6 -2 10 -4 10 -3 0
-8 -4 -11 -10z"/>
<path d="M5770 5560 c0 -11 2 -20 4 -20 2 0 6 9 9 20 3 11 1 20 -4 20 -5 0 -9
-9 -9 -20z"/>
<path d="M5855 5500 c3 -5 8 -10 11 -10 2 0 4 5 4 10 0 6 -5 10 -11 10 -5 0
-7 -4 -4 -10z"/>
<path d="M5420 5413 c0 -19 11 -43 21 -43 13 0 11 14 -6 36 -8 10 -15 14 -15
7z"/>
<path d="M5170 5394 c0 -8 5 -12 10 -9 6 4 8 11 5 16 -9 14 -15 11 -15 -7z"/>
<path d="M5890 5365 c0 -8 4 -15 9 -15 5 0 14 7 21 15 10 13 9 15 -9 15 -12 0
-21 -6 -21 -15z"/>
<path d="M5909 5333 c-12 -15 -12 -16 3 -10 9 3 18 1 21 -6 2 -6 6 -1 9 11 7
27 -13 30 -33 5z"/>
<path d="M5790 5304 c0 -13 18 -39 24 -34 2 3 -2 14 -10 24 -8 11 -14 16 -14
10z"/>
<path d="M5825 5300 c-3 -5 -1 -10 4 -10 6 0 11 5 11 10 0 6 -2 10 -4 10 -3 0
-8 -4 -11 -10z"/>
<path d="M5936 5274 c-4 -11 -2 -15 8 -11 8 3 17 1 20 -6 3 -7 5 -3 3 7 -3 25
-23 32 -31 10z"/>
<path d="M5755 5220 c3 -5 8 -10 11 -10 2 0 4 5 4 10 0 6 -5 10 -11 10 -5 0
-7 -4 -4 -10z"/>
<path d="M5795 5210 c-3 -5 -1 -10 4 -10 6 0 11 5 11 10 0 6 -2 10 -4 10 -3 0
-8 -4 -11 -10z"/>
<path d="M5791 5154 c0 -11 3 -14 6 -6 3 7 2 16 -1 19 -3 4 -6 -2 -5 -13z"/>
<path d="M5757 5139 c4 -13 9 -17 15 -11 11 11 3 32 -12 32 -4 0 -6 -9 -3 -21z"/>
<path d="M5491 5134 c0 -11 3 -14 6 -6 3 7 2 16 -1 19 -3 4 -6 -2 -5 -13z"/>
<path d="M5940 5126 c0 -9 5 -16 10 -16 6 0 10 4 10 9 0 6 -4 13 -10 16 -5 3
-10 -1 -10 -9z"/>
<path d="M5516 5071 c-7 -11 11 -113 22 -120 4 -4 7 -15 6 -26 0 -25 15 -47
28 -39 5 4 5 10 -1 18 -6 6 -10 21 -10 31 1 32 -25 145 -33 145 -4 0 -9 -4
-12 -9z"/>
<path d="M5506 4883 c16 -51 24 -65 24 -39 0 18 -26 86 -34 86 -2 0 2 -21 10
-47z"/>
<path d="M5798 4873 c7 -3 16 -2 19 1 4 3 -2 6 -13 5 -11 0 -14 -3 -6 -6z"/>
<path d="M5565 4840 c-11 -5 -15 -9 -8 -9 8 -1 9 -10 3 -32 -11 -37 -6 -49 21
-49 15 0 19 8 21 35 0 19 1 40 2 47 1 15 -14 18 -39 8z"/>
<path d="M5550 4500 c-12 -23 -6 -40 15 -40 16 0 23 18 17 43 -6 23 -19 22
-32 -3z"/>
<path d="M5460 4480 c0 -5 5 -10 11 -10 5 0 7 5 4 10 -3 6 -8 10 -11 10 -2 0
-4 -4 -4 -10z"/>
<path d="M5476 4264 c-8 -22 -7 -34 3 -34 12 0 21 39 11 45 -4 3 -11 -2 -14
-11z"/>
<path d="M5521 4214 c0 -11 3 -14 6 -6 3 7 2 16 -1 19 -3 4 -6 -2 -5 -13z"/>
<path d="M5410 4190 c0 -5 5 -10 11 -10 5 0 7 5 4 10 -3 6 -8 10 -11 10 -2 0
-4 -4 -4 -10z"/>
<path d="M5005 4128 c4 -18 19 -62 35 -98 15 -36 35 -86 44 -111 9 -26 25 -54
36 -64 17 -16 20 -15 39 4 25 25 27 44 7 61 -8 6 -24 40 -36 75 -36 107 -143
221 -125 133z"/>
<path d="M5335 3960 c-16 -16 -26 -33 -22 -36 6 -6 56 45 57 59 0 12 -5 9 -35
-23z"/>
<path d="M5350 3910 c-13 -9 -13 -11 -1 -19 18 -12 41 -3 41 15 0 16 -18 18
-40 4z"/>
<path d="M5177 3751 c-7 -18 -21 -32 -35 -36 -35 -9 -19 -18 16 -10 17 3 32
14 35 23 3 9 8 25 12 35 4 10 3 17 -5 17 -6 0 -17 -13 -23 -29z"/>
<path d="M5110 3760 c0 -5 5 -10 11 -10 5 0 7 5 4 10 -3 6 -8 10 -11 10 -2 0
-4 -4 -4 -10z"/>
<path d="M5140 3670 c0 -24 15 -27 24 -4 9 22 8 24 -9 24 -8 0 -15 -9 -15 -20z"/>
<path d="M5455 3620 c13 -47 17 -147 6 -168 -8 -15 -7 -23 4 -32 33 -27 34
177 0 208 -17 16 -17 16 -10 -8z"/>
<path d="M6528 3283 c7 -3 16 -2 19 1 4 3 -2 6 -13 5 -11 0 -14 -3 -6 -6z"/>
<path d="M6017 3266 c-7 -17 26 -31 44 -20 9 5 6 11 -6 21 -24 17 -32 16 -38
-1z"/>
<path d="M5950 3256 c0 -10 28 -13 41 -5 10 6 7 9 -13 9 -16 0 -28 -2 -28 -4z"/>
<path d="M4974 6548 c-7 -22 3 -38 14 -22 4 6 15 13 25 17 25 9 21 22 -8 23
-16 1 -26 -5 -31 -18z"/>
<path d="M4117 6612 c-3 -4 17 -52 44 -106 42 -80 53 -95 65 -85 19 15 18 22
-7 50 -39 44 -50 67 -52 106 -2 30 -7 39 -24 41 -12 2 -24 -1 -26 -6z"/>
<path d="M7688 5923 c7 -3 16 -2 19 1 4 3 -2 6 -13 5 -11 0 -14 -3 -6 -6z"/>
<path d="M7670 5890 c-9 -6 -10 -10 -3 -10 6 0 15 5 18 10 8 12 4 12 -15 0z"/>
<path d="M7700 5870 c-13 -8 -12 -10 3 -10 9 0 17 5 17 10 0 12 -1 12 -20 0z"/>
<path d="M7775 5860 c-8 -13 -1 -24 14 -19 6 3 7 10 2 18 -6 10 -10 10 -16 1z"/>
<path d="M7608 5833 c7 -3 16 -2 19 1 4 3 -2 6 -13 5 -11 0 -14 -3 -6 -6z"/>
<path d="M7758 5573 c7 -3 16 -2 19 1 4 3 -2 6 -13 5 -11 0 -14 -3 -6 -6z"/>
<path d="M7280 6365 c0 -8 7 -15 16 -15 14 0 14 3 4 15 -7 8 -14 15 -16 15 -2
0 -4 -7 -4 -15z"/>
<path d="M4910 6282 c0 -11 107 -62 114 -55 4 4 -14 19 -39 35 -44 27 -75 36
-75 20z"/>
<path d="M4925 6240 c3 -5 8 -10 11 -10 2 0 4 5 4 10 0 6 -5 10 -11 10 -5 0
-7 -4 -4 -10z"/>
<path d="M4821 6231 c-12 -8 -11 -15 4 -48 l19 -38 8 35 c11 53 1 71 -31 51z"/>
<path d="M4660 6116 c0 -9 7 -16 16 -16 17 0 14 22 -4 28 -7 2 -12 -3 -12 -12z"/>
<path d="M6710 5890 c-8 -5 -11 -12 -7 -16 4 -4 15 0 24 9 18 18 8 23 -17 7z"/>
<path d="M6675 5860 c-3 -5 -1 -10 4 -10 6 0 11 5 11 10 0 6 -2 10 -4 10 -3 0
-8 -4 -11 -10z"/>
<path d="M6717 5850 c-11 -13 -13 -20 -4 -20 16 0 31 12 35 28 3 18 -11 15
-31 -8z"/>
<path d="M6739 5813 c-13 -16 -12 -17 4 -4 9 7 17 15 17 17 0 8 -8 3 -21 -13z"/>
<path d="M6744 5785 c-15 -13 -26 -26 -24 -29 3 -2 20 9 38 25 39 35 27 39
-14 4z"/>
<path d="M6690 5739 c0 -5 5 -7 10 -4 6 3 10 8 10 11 0 2 -4 4 -10 4 -5 0 -10
-5 -10 -11z"/>
<path d="M7367 5773 c-5 -11 20 -57 26 -46 5 8 -9 53 -17 53 -3 0 -7 -3 -9 -7z"/>
<path d="M6970 5669 c0 -5 5 -7 10 -4 6 3 10 8 10 11 0 2 -4 4 -10 4 -5 0 -10
-5 -10 -11z"/>
<path d="M6961 5428 c-1 -15 4 -30 10 -33 17 -11 18 -2 4 30 l-13 30 -1 -27z"/>
<path d="M7024 5246 c-12 -13 -8 -36 7 -36 4 0 5 7 2 17 -4 11 -3 14 5 9 7 -4
12 -3 12 3 0 16 -14 20 -26 7z"/>
<path d="M4855 5480 c-3 -5 -5 -10 -3 -11 33 -8 38 -7 27 7 -14 17 -16 17 -24
4z"/>
<path d="M6367 5314 c6 -15 23 -19 23 -5 0 5 -7 11 -14 14 -10 4 -13 1 -9 -9z"/>
<path d="M6558 5323 c7 -3 16 -2 19 1 4 3 -2 6 -13 5 -11 0 -14 -3 -6 -6z"/>
<path d="M6600 5321 c0 -5 9 -11 19 -14 14 -3 18 -1 14 9 -6 15 -33 19 -33 5z"/>
<path d="M6410 5274 c0 -8 5 -12 10 -9 6 3 10 10 10 16 0 5 -4 9 -10 9 -5 0
-10 -7 -10 -16z"/>
<path d="M6920 5246 c0 -2 7 -6 15 -10 8 -3 15 -1 15 4 0 6 -7 10 -15 10 -8 0
-15 -2 -15 -4z"/>
<path d="M6717 5203 c-13 -13 -7 -23 16 -23 21 -1 22 -1 3 -15 -19 -14 -18
-15 11 -15 25 0 33 5 42 30 10 30 10 30 -28 30 -21 0 -41 -3 -44 -7z m50 -25
c-3 -8 -6 -5 -6 6 -1 11 2 17 5 13 3 -3 4 -12 1 -19z"/>
<path d="M6930 5206 c0 -2 7 -7 16 -10 8 -3 12 -2 9 4 -6 10 -25 14 -25 6z"/>
<path d="M6610 5191 c0 -5 5 -13 10 -16 6 -3 10 -2 10 4 0 5 -4 13 -10 16 -5
3 -10 2 -10 -4z"/>
<path d="M6965 5160 c38 -25 48 -25 33 0 -7 11 -24 20 -38 20 l-25 0 30 -20z"/>
<path d="M7010 5120 c0 -5 5 -10 11 -10 5 0 7 5 4 10 -3 6 -8 10 -11 10 -2 0
-4 -4 -4 -10z"/>
<path d="M6855 5100 c3 -5 8 -10 11 -10 2 0 4 5 4 10 0 6 -5 10 -11 10 -5 0
-7 -4 -4 -10z"/>
<path d="M6210 5052 c0 -15 4 -20 16 -15 9 3 12 9 7 12 -4 3 -11 10 -15 15 -5
5 -8 0 -8 -12z"/>
<path d="M6680 5061 c0 -5 6 -12 13 -14 6 -3 2 -6 -11 -6 -14 -1 -22 -6 -20
-13 3 -7 -5 -21 -16 -30 -21 -18 -21 -18 9 -12 20 4 26 3 17 -4 -8 -5 -13 -12
-13 -16 1 -15 -12 -35 -20 -30 -5 3 -9 0 -9 -5 0 -6 9 -11 21 -11 11 0 17 5
14 10 -3 6 1 10 10 10 8 0 18 -6 21 -14 8 -22 31 -8 30 17 0 12 -8 27 -16 34
-8 6 -12 14 -9 17 3 4 20 -7 37 -24 18 -16 36 -30 42 -30 15 0 12 26 -5 40 -8
7 -15 17 -15 23 0 5 10 2 22 -9 22 -19 22 -19 -1 14 -12 17 -24 32 -25 32 -2
0 -20 7 -40 15 -20 8 -36 11 -36 6z"/>
<path d="M6450 5039 c0 -5 5 -7 10 -4 6 3 10 8 10 11 0 2 -4 4 -10 4 -5 0 -10
-5 -10 -11z"/>
<path d="M6871 5038 c-1 -9 -7 -18 -13 -20 -9 -3 -8 -10 5 -22 9 -10 22 -26
27 -37 14 -25 50 -25 50 -1 0 10 -10 29 -21 41 -18 19 -19 25 -8 32 9 6 10 9
2 9 -6 0 -15 -5 -19 -12 -5 -8 -10 -6 -15 8 -6 15 -8 16 -8 2z"/>
<path d="M6830 4994 c0 -3 7 -12 15 -21 20 -19 32 -9 15 12 -12 15 -30 20 -30
9z"/>
<path d="M6560 4965 c0 -19 45 -95 56 -95 3 0 3 4 0 9 -4 5 0 12 6 14 8 4 7 6
-3 6 -9 1 -19 11 -22 24 -4 12 -13 31 -21 42 -15 20 -15 20 -16 0z"/>
<path d="M6490 4960 c0 -5 5 -10 10 -10 6 0 10 5 10 10 0 6 -4 10 -10 10 -5 0
-10 -4 -10 -10z"/>
<path d="M6438 4913 c7 -3 16 -2 19 1 4 3 -2 6 -13 5 -11 0 -14 -3 -6 -6z"/>
<path d="M6910 4910 c0 -5 4 -10 9 -10 6 0 13 5 16 10 3 6 -1 10 -9 10 -9 0
-16 -4 -16 -10z"/>
<path d="M6668 4893 c7 -3 16 -2 19 1 4 3 -2 6 -13 5 -11 0 -14 -3 -6 -6z"/>
<path d="M6499 4883 c-1 -5 -1 -11 0 -16 1 -4 -10 -12 -24 -17 -33 -12 -32
-18 3 -13 25 4 26 3 9 -10 -20 -16 -16 -21 26 -31 22 -5 27 -3 27 12 0 11 -7
33 -16 50 -15 32 -23 39 -25 25z"/>
<path d="M6695 4870 c-11 -12 -13 -20 -6 -20 6 0 21 9 33 20 17 15 18 20 6 20
-8 0 -23 -9 -33 -20z"/>
<path d="M6725 4840 c3 -5 8 -10 11 -10 2 0 4 5 4 10 0 6 -5 10 -11 10 -5 0
-7 -4 -4 -10z"/>
<path d="M6500 4780 c-13 -8 -12 -10 3 -10 9 0 17 5 17 10 0 12 -1 12 -20 0z"/>
<path d="M6545 4770 c-3 -5 1 -10 9 -10 9 0 16 5 16 10 0 6 -4 10 -9 10 -6 0
-13 -4 -16 -10z"/>
<path d="M6603 4749 c-7 -17 -16 -28 -21 -25 -10 6 -24 -18 -16 -27 3 -3 19 2
35 11 24 14 31 15 38 3 17 -26 22 8 6 39 -20 38 -28 38 -42 -1z"/>
<path d="M6670 4753 c0 -10 5 -25 10 -33 8 -12 10 -11 10 8 0 12 0 25 1 29 0
4 -4 9 -10 11 -6 2 -11 -5 -11 -15z"/>
<path d="M6945 4750 c3 -5 8 -10 11 -10 2 0 4 5 4 10 0 6 -5 10 -11 10 -5 0
-7 -4 -4 -10z"/>
<path d="M6640 4646 c0 -8 5 -18 10 -21 6 -3 10 3 10 14 0 12 -4 21 -10 21 -5
0 -10 -6 -10 -14z"/>
<path d="M6738 5333 c7 -3 16 -2 19 1 4 3 -2 6 -13 5 -11 0 -14 -3 -6 -6z"/>
<path d="M8483 4833 c-7 -3 -13 -11 -13 -19 0 -8 -4 -14 -10 -14 -5 0 -10 -7
-10 -15 0 -10 10 -14 38 -13 20 1 46 -2 57 -6 18 -7 19 -7 2 4 -10 7 -26 24
-35 39 -9 15 -23 26 -29 24z"/>
<path d="M4870 4612 c0 -10 33 -42 44 -42 3 0 -1 11 -10 25 -16 25 -34 33 -34
17z"/>
<path d="M4946 4526 c6 -16 34 -30 34 -18 0 5 -5 13 -12 20 -16 16 -29 15 -22
-2z"/>
<path d="M5010 4466 c0 -2 8 -10 18 -17 15 -13 16 -12 3 4 -13 16 -21 21 -21
13z"/>
<path d="M4410 7980 c-13 -8 -13 -10 2 -10 9 0 20 5 23 10 8 13 -5 13 -25 0z"/>
<path d="M4325 7950 c-4 -6 3 -10 14 -10 25 0 27 6 6 13 -8 4 -17 2 -20 -3z"/>
<path d="M4206 7925 c-24 -18 -19 -35 10 -35 20 0 24 -3 17 -12 -5 -7 -9 -30
-8 -51 1 -32 -2 -40 -22 -48 -14 -5 -23 -17 -23 -29 0 -15 7 -20 29 -20 24 0
34 8 55 44 28 49 34 88 18 127 -12 30 -51 42 -76 24z"/>
<path d="M5310 7920 c0 -5 7 -10 15 -10 8 0 15 5 15 10 0 6 -7 10 -15 10 -8 0
-15 -4 -15 -10z"/>
<path d="M4517 7809 c-9 -6 -26 -7 -37 -4 -19 6 -70 -20 -70 -36 0 -5 11 -11
25 -15 14 -3 25 -12 25 -20 0 -18 4 -18 46 2 32 15 47 44 23 44 -8 0 -7 5 1
15 16 20 10 26 -13 14z"/>
<path d="M4366 7781 c-9 -14 4 -41 20 -41 8 0 14 10 14 25 0 25 -23 35 -34 16z"/>
<path d="M4670 7760 c0 -5 -13 -10 -29 -10 -17 0 -33 -5 -36 -11 -11 -17 55
-3 74 15 10 11 11 16 3 16 -7 0 -12 -4 -12 -10z"/>
<path d="M4505 7703 c-11 -2 -30 -6 -42 -9 -16 -3 -23 -12 -23 -27 0 -13 -5
-28 -12 -35 -23 -23 22 -26 50 -3 15 12 37 26 50 31 19 8 21 13 12 30 -6 11
-12 19 -13 19 -1 -1 -11 -3 -22 -6z"/>
<path d="M4665 7647 c-87 -40 -125 -60 -125 -69 0 -4 3 -8 6 -8 9 0 174 91
174 96 0 6 1 6 -55 -19z"/>
<path d="M4552 7639 c-28 -11 -57 -29 -62 -40 -10 -17 -8 -18 16 -9 30 12 114
60 114 66 0 7 -13 4 -68 -17z"/>
<path d="M4363 7610 c-25 -10 -31 -30 -9 -30 25 0 46 12 46 26 0 16 -6 16 -37
4z"/>
<path d="M4387 7524 c-13 -13 -7 -23 13 -21 11 1 19 6 17 11 -4 13 -21 18 -30
10z"/>
<path d="M9497 4298 c15 -29 31 -55 34 -58 3 -3 14 -20 23 -38 10 -19 20 -31
23 -29 5 6 -95 177 -103 177 -3 0 7 -24 23 -52z"/>
<path d="M9590 4140 c6 -11 13 -20 16 -20 2 0 0 9 -6 20 -6 11 -13 20 -16 20
-2 0 0 -9 6 -20z"/>
<path d="M8556 3553 c-4 -5 -22 -14 -39 -21 -32 -12 -32 -12 -3 -6 30 5 79 34
60 34 -6 0 -14 -3 -18 -7z"/>
<path d="M8444 3504 c-18 -14 -18 -14 6 -3 31 14 36 19 24 19 -6 0 -19 -7 -30
-16z"/>
<path d="M8265 3434 c-255 -108 -365 -157 -361 -161 2 -3 19 2 38 10 18 8 74
33 124 56 50 23 98 41 107 41 9 0 18 4 21 8 3 5 55 28 116 51 60 24 110 45
110 47 0 10 -34 -1 -155 -52z"/>
<path d="M7870 3260 c-9 -6 -10 -10 -3 -10 6 0 15 5 18 10 8 12 4 12 -15 0z"/>
<path d="M7815 3240 c-16 -7 -17 -9 -3 -9 9 -1 20 4 23 9 7 11 7 11 -20 0z"/>
<path d="M7765 3220 c-3 -5 -2 -10 4 -10 5 0 13 5 16 10 3 6 2 10 -4 10 -5 0
-13 -4 -16 -10z"/>
<path d="M7715 3200 c-13 -6 -15 -9 -5 -9 8 0 22 4 30 9 18 12 2 12 -25 0z"/>
<path d="M7565 3140 c-13 -6 -15 -9 -5 -9 8 0 22 4 30 9 18 12 2 12 -25 0z"/>
<path d="M7355 2560 c-3 -5 1 -10 9 -10 9 0 16 5 16 10 0 6 -4 10 -9 10 -6 0
-13 -4 -16 -10z"/>
<path d="M5376 2193 c-29 -90 -28 -92 3 -28 31 62 37 85 23 85 -5 0 -16 -26
-26 -57z"/>
<path d="M5333 2057 c-19 -38 -53 -129 -53 -139 0 -5 -8 -28 -19 -51 -33 -73
-35 -89 -15 -85 13 2 22 19 31 63 7 33 26 98 42 144 29 81 36 116 14 68z"/>
</g>
</svg>
